<svg xmlns="http://www.w3.org/2000/svg" xmlns:xlink="http://www.w3.org/1999/xlink" enable-background="new 0 0 850 850" viewBox="0 0 850 850" width="850" height="850"><rect width="180.87" height="192.57" x="225.44" y="294.76" fill="#a4a3b7" class="colorb7b2a3 svgShape" transform="rotate(-15.188 315.856 391.021)"/><rect width="115.94" height="5.83" x="227.03" y="320.05" fill="#fff" class="colorffffff svgShape" transform="rotate(-15.188 284.977 322.946)"/><rect width="131.38" height="5.83" x="231.68" y="336.16" fill="#fff" class="colorffffff svgShape" transform="rotate(-15.188 297.354 339.056)"/><rect width="139.73" height="5.83" x="236.46" y="353.21" fill="#fff" class="colorffffff svgShape" transform="rotate(-15.188 306.303 356.097)"/><rect width="115.94" height="5.83" x="241.8" y="374.46" fill="#fff" class="colorffffff svgShape" transform="rotate(-15.188 299.747 377.35)"/><rect width="139.73" height="5.83" x="246.31" y="389.48" fill="#fff" class="colorffffff svgShape" transform="rotate(-15.188 316.148 392.364)"/><rect width="131.38" height="5.83" x="251.37" y="408.7" fill="#fff" class="colorffffff svgShape" transform="rotate(-15.188 317.044 411.591)"/><rect width="139.73" height="5.83" x="256.15" y="425.74" fill="#fff" class="colorffffff svgShape" transform="rotate(-15.188 325.995 428.633)"/><rect width="139.73" height="5.83" x="262.33" y="444.59" fill="#fff" class="colorffffff svgShape" transform="rotate(-15.188 332.177 447.48)"/><g class="color000000 svgShape"><path fill="#0f00ff" d="M283.56,251.8l98.91-78.11c1.97-1.56,4.75-1.56,6.72,0l98.91,78.11H283.56z" class="colorffc800 svgShape"/><polygon fill="#fff" points="283.54 260.47 385.81 179.71 488.08 260.47" class="colorffffff svgShape"/><rect width="204.54" height="134.36" x="283.54" y="251.8" fill="#fff" class="colorffffff svgShape"/><polygon fill="#0f00ff" points="283.54 251.8 385.81 332.56 488.08 251.8" class="colorffc800 svgShape"/><rect width="180.87" height="192.57" x="295.38" y="166.88" fill="#d5d2ff" class="colorfff3d2 svgShape"/><rect width="115.94" height="5.83" x="315.88" y="186.46" fill="#0f00ff" class="colorffc800 svgShape"/><rect width="131.39" height="5.83" x="315.88" y="205.26" fill="#0f00ff" class="colorffc800 svgShape"/><rect width="139.73" height="5.83" x="315.88" y="224.05" fill="#0f00ff" class="colorffc800 svgShape"/><rect width="115.94" height="5.83" x="315.88" y="242.84" fill="#0f00ff" class="colorffc800 svgShape"/><rect width="139.73" height="5.83" x="315.88" y="261.63" fill="#0f00ff" class="colorffc800 svgShape"/><rect width="131.39" height="5.83" x="315.88" y="280.42" fill="#0f00ff" class="colorffc800 svgShape"/><rect width="139.73" height="5.83" x="315.88" y="299.21" fill="#0f00ff" class="colorffc800 svgShape"/><g class="color000000 svgShape"><polygon fill="#b0abff" points="283.54 251.8 283.54 386.16 488.08 386.16 488.08 251.8 385.81 332.56" class="colorffebab svgShape"/></g><g class="color000000 svgShape"><path fill="#0f00ff" d="M283.54,386.16l99.28-65.62c1.81-1.2,4.17-1.2,5.98,0l99.28,65.62H283.54z" class="colorffc800 svgShape"/></g></g><g class="color000000 svgShape"><path fill="#f9f9ff" d="M714.26,621.47H347.93c-8.69,0-15.73-7.04-15.73-15.73V367.84c0-8.69,7.04-15.73,15.73-15.73h366.33      c8.69,0,15.73,7.04,15.73,15.73v237.89C729.99,614.42,722.95,621.47,714.26,621.47z" class="colorfffff9 svgShape"/><path fill="#373649" d="M729.99,585.5H332.2V355.73c0-8.69,7.04-15.73,15.73-15.73h366.33c8.69,0,15.73,7.04,15.73,15.73V585.5z" class="color364449 svgShape"/><defs><rect id="a" width="361.1" height="206.82" x="350.55" y="358.35"/></defs><use fill="#f9f9ff" class="colorfffff9 svgShape" overflow="visible" xlink:href="#a"/><rect width="89.54" height="48.44" x="486.32" y="621.47" fill="#a4a3b7" class="colorb7b2a3 svgShape"/><rect width="158.53" height="13.21" x="451.83" y="669.9" fill="#f9f9ff" class="colorfffff9 svgShape"/><path fill="#c8c8c8" d="M539.53,602.75c0,4.66-3.78,8.44-8.44,8.44c-4.66,0-8.44-3.78-8.44-8.44c0-4.66,3.78-8.44,8.44-8.44      C535.76,594.31,539.53,598.09,539.53,602.75z" class="colorc8c8c8 svgShape"/><rect width="361.1" height="8.44" x="350.55" y="358.35" fill="#272638" class="color263238 svgShape"/><path fill="#fff" d="M692.55,362.57c0,1.28-1.04,2.32-2.32,2.32s-2.32-1.04-2.32-2.32c0-1.28,1.04-2.32,2.32-2.32       S692.55,361.29,692.55,362.57z" class="colorffffff svgShape"/><path fill="#fff" d="M700.8,362.57c0,1.28-1.04,2.32-2.32,2.32c-1.28,0-2.32-1.04-2.32-2.32c0-1.28,1.04-2.32,2.32-2.32       C699.77,360.25,700.8,361.29,700.8,362.57z" class="colorffffff svgShape"/><path fill="#fff" d="M709.06,362.57c0,1.28-1.04,2.32-2.32,2.32c-1.28,0-2.32-1.04-2.32-2.32c0-1.28,1.04-2.32,2.32-2.32       C708.02,360.25,709.06,361.29,709.06,362.57z" class="colorffffff svgShape"/><g class="color000000 svgShape"><path fill="#373649" d="M591.66,529.6H470.53c-5.98,0-10.85-4.87-10.85-10.85v-6.33c0-5.98,4.87-10.85,10.85-10.85h121.13         c5.98,0,10.85,4.87,10.85,10.85v6.33C602.51,524.73,597.65,529.6,591.66,529.6z M470.53,502.3         c-5.58,0-10.12,4.54-10.12,10.12v6.33c0,5.58,4.54,10.12,10.12,10.12h121.13c5.58,0,10.12-4.54,10.12-10.12v-6.33         c0-5.58-4.54-10.12-10.12-10.12H470.53z" class="color364449 svgShape"/><circle cx="506.26" cy="515.58" r="5.88" fill="#373649" class="color364449 svgShape"/><circle cx="481.42" cy="515.58" r="5.88" fill="#373649" class="color364449 svgShape"/><circle cx="531.09" cy="515.58" r="5.88" fill="#373649" class="color364449 svgShape"/><circle cx="555.93" cy="515.58" r="5.88" fill="#373649" class="color364449 svgShape"/><circle cx="580.77" cy="515.58" r="5.88" fill="#373649" class="color364449 svgShape"/><g class="color000000 svgShape"><path fill="#373649" d="M549.96,487.95h-37.74c-4.83,0-8.74-3.91-8.74-8.74v-37.74c0-4.83,3.91-8.74,8.74-8.74h37.74        c4.83,0,8.74,3.91,8.74,8.74v37.74C558.7,484.03,554.79,487.95,549.96,487.95z" class="color364449 svgShape"/><path fill="#fff" d="M539.69,452.61c0,4.75-3.85,8.6-8.6,8.6c-4.75,0-8.6-3.85-8.6-8.6c0-4.75,3.85-8.6,8.6-8.6        C535.84,444.01,539.69,447.86,539.69,452.61z" class="colorffffff svgShape"/><polygon fill="#fff" points="537.25 475.01 524.94 475.01 526.84 459.23 535.35 459.23" class="colorffffff svgShape"/><path fill="#373649" d="M548.3,418.05c-0.05-6.18-3.4-12.02-8.83-15.03c-5.43-3.01-12.31-2.86-17.56,0.49         c-4.97,3.17-7.97,8.69-8.01,14.58c-0.02,2.96,0,5.92,0,8.88c0,3.27,0,6.55,0,9.82c0,2.35,3.65,2.35,3.65,0         c0-5.9,0-11.81,0-17.71c0-1.23,0-2.46,0.25-3.67c0.51-2.47,1.66-4.76,3.38-6.6c3.59-3.82,9.11-5.25,14.11-3.65         c5.57,1.78,9.32,7.1,9.36,12.9C544.67,420.4,548.32,420.41,548.3,418.05L548.3,418.05z" class="color364449 svgShape"/></g></g><g class="color000000 svgShape"><path fill="#272638" d="M559.65,419.93c4.09-5.51,8.17-11.02,12.26-16.53c0.59-0.79,1.17-1.58,1.76-2.37        c0.84-1.13-1.06-2.22-1.89-1.1c-4.09,5.51-8.17,11.02-12.26,16.53c-0.59,0.79-1.17,1.58-1.76,2.37        C556.92,419.95,558.82,421.05,559.65,419.93L559.65,419.93z" class="color263238 svgShape"/><path fill="#272638" d="M564.08,428.88c6.57-1.98,13.13-3.96,19.7-5.95c0.94-0.28,1.89-0.57,2.83-0.85        c1.34-0.41,0.77-2.52-0.58-2.11c-6.57,1.98-13.13,3.96-19.7,5.95c-0.94,0.28-1.89,0.57-2.83,0.85        C562.15,427.18,562.72,429.29,564.08,428.88L564.08,428.88z" class="color263238 svgShape"/><path fill="#272638" d="M563.27,438.11c6.61,1.85,13.21,3.7,19.82,5.55c0.95,0.27,1.9,0.53,2.85,0.8        c1.36,0.38,1.94-1.73,0.58-2.11c-6.61-1.85-13.21-3.7-19.82-5.55c-0.95-0.27-1.9-0.53-2.85-0.8        C562.49,435.62,561.91,437.74,563.27,438.11L563.27,438.11z" class="color263238 svgShape"/></g></g><g class="color000000 svgShape"><circle cx="698.48" cy="319.57" r="63.49" fill="#a4a3b7" class="colorb7b2a3 svgShape" transform="rotate(-67.5 698.47 319.559)"/><path fill="#fff" d="M740.96,339l-35.01-60.64c-3.03-5.24-10.59-5.24-13.62,0L657.32,339c-3.03,5.24,0.76,11.79,6.81,11.79      h70.02C740.2,350.79,743.98,344.24,740.96,339z" class="colorffffff svgShape"/><path fill="#a4a3b7" d="M695.41,294.21c0-4.81,7.46-4.8,7.46,0c0,11.19,0,22.37,0,33.55c0,4.81-7.46,4.8-7.46,0      C695.41,316.58,695.41,305.4,695.41,294.21z" class="colorb7b2a3 svgShape"/><path fill="#a4a3b7" d="M699.14,345c-2.46,0-4.46-2-4.46-4.46c0-2.46,2-4.46,4.46-4.46c2.46,0,4.46,2,4.46,4.46      C703.6,343,701.6,345,699.14,345z" class="colorb7b2a3 svgShape"/></g><g class="color000000 svgShape"><path fill="#0f00ff" d="M395.87,683.12H256.5c-3.86,0-6.99-3.13-6.99-6.99v-89.37c0-3.86,3.13-6.99,6.99-6.99h139.36       c3.86,0,6.99,3.13,6.99,6.99v89.37C402.86,679.99,399.73,683.12,395.87,683.12z" class="colorffc800 svgShape"/><rect width="153.35" height="20.5" x="249.51" y="597.59" fill="#b0abff" class="colorffebab svgShape"/><path fill="#b0abff" d="M266.8,640.32c6.08,0,12.15,0,18.23,0c9.67,0,19.35,0,29.02,0c2.21,0,4.41,0,6.62,0        c1.41,0,1.41-2.19,0-2.19c-6.08,0-12.15,0-18.23,0c-9.67,0-19.35,0-29.02,0c-2.21,0-4.41,0-6.62,0        C265.39,638.13,265.39,640.32,266.8,640.32L266.8,640.32z" class="colorffebab svgShape"/><path fill="#b0abff" d="M266.8,660.36c6.08,0,12.15,0,18.23,0c9.67,0,19.35,0,29.02,0c2.21,0,4.41,0,6.62,0        c1.41,0,1.41-2.19,0-2.19c-6.08,0-12.15,0-18.23,0c-9.67,0-19.35,0-29.02,0c-2.21,0-4.41,0-6.62,0        C265.39,658.17,265.39,660.36,266.8,660.36L266.8,660.36z" class="colorffebab svgShape"/><g class="color000000 svgShape"><path fill="#fff" d="M235.09,578.7c-4-0.96-8.01-1.92-12.01-2.88c-6.38-1.53-12.75-3.06-19.13-4.59        c-1.46-0.35-2.92-0.7-4.37-1.05c-1.37-0.33-1.95,1.78-0.58,2.11c4,0.96,8.01,1.92,12.01,2.88c6.38,1.53,12.75,3.06,19.13,4.59        c1.46,0.35,2.92,0.7,4.37,1.05C235.88,581.14,236.46,579.03,235.09,578.7L235.09,578.7z" class="colorffffff svgShape"/><path fill="#fff" d="M241.75,570.7c-2.64-3.16-5.28-6.32-7.91-9.48c-4.2-5.03-8.4-10.07-12.61-15.1        c-0.96-1.15-1.92-2.3-2.88-3.45c-0.9-1.08-2.44,0.47-1.55,1.55c2.64,3.16,5.28,6.32,7.91,9.48c4.2,5.03,8.4,10.07,12.61,15.1        c0.96,1.15,1.92,2.3,2.88,3.45C241.11,573.33,242.65,571.78,241.75,570.7L241.75,570.7z" class="colorffffff svgShape"/><path fill="#fff" d="M250.61,567.51c-0.53-4.08-1.06-8.16-1.6-12.25c-0.85-6.5-1.69-13-2.54-19.51        c-0.19-1.49-0.39-2.97-0.58-4.46c-0.08-0.59-0.45-1.09-1.09-1.09c-0.53-0.01-1.17,0.51-1.09,1.09        c0.53,4.08,1.06,8.16,1.6,12.25c0.85,6.5,1.69,13,2.54,19.51c0.19,1.49,0.39,2.97,0.58,4.46c0.08,0.59,0.45,1.09,1.09,1.09        C250.04,568.61,250.68,568.09,250.61,567.51L250.61,567.51z" class="colorffffff svgShape"/></g></g><g class="color000000 svgShape"><path fill="#2b2b2b" d="M118.21,669.88l-8.86-0.99c0,0-14.65-3.67-5.48-16.4c5.49-7.62,6.7-12.49,8.93-20.22      c1.41-4.91,19.12-0.61,19.12-0.61s-3.44,13.4-2.04,18.31C136,671.35,118.21,669.88,118.21,669.88z" class="color2b2b2b svgShape"/><path d="M185.97,621.76c2.04,8.15-2.65,15.98,10.52,20.68c6.07,2.17,15.99,6.59,15.05,12.7c-1.28,8.31-19.46,5.33-19.46,5.33      s-20.38-8.16-26.48-8.16c-6.12,0-3.65-16.61-1.62-24.77C166.02,619.4,185.97,621.76,185.97,621.76z" class="color000000 svgShape"/><path fill="#04031c" d="M193.37,537.17c-2.07,20.73-3.69,97.61-3.69,97.61l-31.45,0.64c0,0-1.64-76.87-1.15-86.12       c3.45-64.48,5.91-74.32,5.91-74.32s-8.26,60.62-10.34,68.91c-2.08,8.29-17.41,100.34-17.41,100.34l-31.81-0.91       c1.58-15.73,10.99-123.05,13.45-150.95c1.97-22.31,2.62-52.5,11.81-86.63l73.77,2.63       C202.48,408.37,195.45,516.44,193.37,537.17z" class="color1c0303 svgShape"/><path fill="#bdbae8" d="M161.96,231.67c0.59,5.84-6.52,25.26-10.2,33.41c-3.64,8.15-3.15,9.1-3.15,9.1l29.95,16.66        c0,0-2.17-24.82,7.69-29.24C192.38,258.85,161.96,231.67,161.96,231.67z" class="colore8c8ba svgShape"/><path fill="#a29edd" d="M186.92,259.95c1.46-1.16-0.35-4.52-2.92-8.02l-12.42-9.34l-0.55,1.8c-2.83,9.24,1.3,19.19,9.85,23.7h0         C180.88,268.09,177.11,267.7,186.92,259.95z" class="colorddac9e svgShape"/><path fill="#bdbae8" d="M202.12,230.79c1.01,16.9-7.64,33.5-16.18,34.02c-8.54,0.5-23.85-15.35-24.85-32.25       c-1.02-16.88,5.16-28.4,21.32-26.9C200.03,207.31,201.1,213.91,202.12,230.79z" class="colore8c8ba svgShape"/><path fill="#272638" d="M199.22,203.17c4.03,7.26,3.47,12.29-0.46,13.09c-3.91,0.79-7.87,0.69-10.38,3.25       c-2.35,2.38-6.66,3.25-8.45,4.89c-1.78,1.62,0.91-6.79,0.91-6.79l-2.63,6.56l-0.08-6.13l-0.93,3.22l-5.81,5.21l-0.7,8.72       l-3.98,3.52l-1.85-6.25l-2.38,10.72l-7.55,13.92c0,0-5.47-11.64-7.07-17.05c-1.91-6.43-1.36-7.95-1.57-11.68       c-0.26-4.69-0.28-5.8-0.2-10.22c0.1-4.82,3.59-12.09,6.63-13.37c3.02-1.26,4.83-2.16,6.5-1.55c1.69,0.6,1.39-3,5.81-4.66       c4.4-1.69,4.22-2.36,10.76-3.19c6.55-0.83,11.16,0.75,16.67,2.79C196.09,199.53,199.22,203.17,199.22,203.17z" class="color263238 svgShape"/><path fill="#5951da" d="M183.14,274.42c0,0,5.07,0.44,21.2,8.11c12.8,6.1,9.35,3.66,10.12,10.58c0.6,5.31-6.07,24.64-8.09,34.76      c-1.54,7.69-4.82,33.9,3.3,103.03c0.9,7.63-29.64,8.94-39.52-7.99c0-28.43,4.73-81.71,6.26-97.07      C176.79,322.02,183.14,274.42,183.14,274.42z" class="color4b4b5e svgShape"/><path fill="#5951da" d="M150.69,267.76c0,0-12.44,4.52-29.59,11.56c-13.11,5.37-9.66,5.75-10.43,12.67      c-0.76,6.92,15.87,46.42,17.4,54.1c1.54,7.69-8.52,65.34-11.34,85.57c-0.67,4.83,60.17,10.66,60.54-7.38      c0-17.55,7.51-53.9-0.86-98.68C175.7,321.82,150.69,267.76,150.69,267.76z" class="color4b4b5e svgShape"/><path fill="#bdbae8" d="M107.39,353.7c29.46,3.12,42.99,1.5,42.99,1.5s4.26-3.43,8.99-7.03c10.74-8.2,11.43-3.91,11.43-3.91      l-6.67,8.15l19.41-0.2c0,0,1.3-0.21,2.35,0.82c3.14,3.1,5.49,9.15-4.7,13.31c-13.57,5.55-18.81,1.44-31.25,2.66      c-14.39,1.4-35.73,5.72-42.64,5.7C100.36,374.67,107.39,353.7,107.39,353.7z" class="colore8c8ba svgShape"/><polygon fill="#fff" points="136.43 355 143.96 354.54 144.32 373.94 133.6 375.24" class="colorffffff svgShape"/><path fill="#5951da" d="M113.78,283.51c-6.14,3.85-15.62,38.87-19.81,53.04c-5.09,17.29-6.95,27.55-5.43,31.17      c6.95,16.7,48.68,9.86,48.68,9.86l0.31-24.15c0,0-25.59-1.44-24.46-3.13c4.07-6.1,11.36-17.87,10.98-21.02      C120.74,302.47,113.78,283.51,113.78,283.51z" class="color4b4b5e svgShape"/><polygon points="126.74 349.96 196.31 340.77 242.9 350.61 185.8 363.74" class="color000000 svgShape"/><path fill="#d2d1e8" d="M169.64,277.61c2.46,1.96,7.14,0.73,8.12,0c0.99-0.75,7.88,10.33,7.88,10.33L175.3,323.7l-16.73-39.94      L169.64,277.61z" class="colord1e6e8 svgShape"/><polygon fill="#5951da" points="172.02 278.43 168.42 284.01 171.98 290.53 177.03 290.4 180.55 282.37 177.27 278.59" class="color4b4b5e svgShape"/><polygon fill="#5951da" points="171.98 289.17 168.42 311.24 176.54 326.22 181.87 308.29 177.03 288.68" class="color4b4b5e svgShape"/><polygon fill="#d2d1e8" points="175.3 278.1 180.88 268.09 185.15 273.51 183.92 286.71" class="colord1e6e8 svgShape"/><polygon fill="#5951da" points="183.83 286.79 183.01 271.04 190.31 276.62 192.29 284 186.17 281.4 191.24 287.26 176.04 326.83" class="color4b4b5e svgShape"/><polygon fill="#fff" points="154.63 258.66 174.32 277.85 164.23 290.16 148.73 267.52" class="colorffffff svgShape"/><g class="color000000 svgShape"><polygon fill="#5951da" points="160 281.98 149.96 263.58 140.6 272.44 144.84 282.11 153.99 281.6 151.44 288.21 176.29 326.22" class="color4b4b5e svgShape"/></g><g class="color000000 svgShape"><polygon points="186.46 363.08 201.55 296.14 268.08 291.14 249.62 352.91" class="color000000 svgShape"/></g><g class="color000000 svgShape"><path fill="#a29edd" d="M235.62,357.47c-2.96,1.55-5.08,2.51-7.92,3.33c-2.83,0.82-3.56-1.7-5.06-3.31c-1.5-1.62-4.53-6.2-4-9.09      c0.52-2.88,3.49,3.77,3.76,4.72c0.27,0.93-4.67-5.48-3.23-7.61c1.43-2.12,4.99,5.39,5.57,6.24c0.59,0.86-5.71-5.52-4.14-8.36      c1.57-2.85,7.38,7.76,7.38,7.76s-4.18-9.71-2.52-9.86c1.67-0.15,5.85,7.18,6.13,8.12c0.27,0.95,2.85,1.56,2.11-0.96      c-0.73-2.52,1.35-8.25,1.35-8.25s1.41,1.3,1.48,5.04c0.06,3.73,1.3,9.19,1.3,9.19L235.62,357.47z" class="colorddac9e svgShape"/></g></g></svg>