<svg xmlns="http://www.w3.org/2000/svg" xmlns:xlink="http://www.w3.org/1999/xlink" width="500" zoomAndPan="magnify" viewBox="0 0 375 374.999991" height="500" preserveAspectRatio="xMidYMid meet" version="1.0"><defs><clipPath id="1415c36935"><path d="M 3.90625 14.011719 L 360 14.011719 L 360 326 L 3.90625 326 Z M 3.90625 14.011719 " clip-rule="nonzero"/></clipPath></defs><g clip-path="url(#1415c36935)"><path fill="#ff1616" d="M 171.824219 296.539062 L 251.261719 296.539062 C 273.132812 296.539062 293.011719 287.492188 307.402344 273.101562 C 321.792969 258.710938 330.625 238.832031 330.625 216.960938 C 330.625 210.835938 329.984375 204.851562 328.632812 199.222656 L 327.992188 199.648438 C 308.398438 219.382812 281.183594 231.636719 251.191406 231.636719 L 171.824219 231.636719 Z M 171.824219 137.527344 L 171.824219 202.285156 L 251.261719 202.285156 C 273.132812 202.285156 293.011719 193.378906 307.402344 179.0625 C 310.179688 176.140625 312.746094 173.21875 315.238281 170.011719 C 312.816406 166.808594 310.179688 163.742188 307.402344 160.964844 C 293.011719 146.574219 273.132812 137.527344 251.261719 137.527344 Z M 142.472656 43.414062 L 96.234375 43.414062 L 96.234375 311.21875 C 96.234375 319.339844 89.683594 325.894531 81.558594 325.894531 C 73.4375 325.894531 66.882812 319.339844 66.882812 311.21875 L 66.882812 43.414062 L 18.507812 43.414062 C 10.386719 43.414062 3.832031 36.859375 3.832031 28.738281 C 3.832031 20.617188 10.386719 14.0625 18.507812 14.0625 L 251.121094 14.0625 C 281.113281 14.0625 308.328125 26.316406 327.917969 46.050781 C 347.652344 65.785156 359.90625 93 359.90625 122.851562 C 359.90625 139.664062 356.0625 155.765625 349.222656 170.011719 C 356.132812 184.261719 359.90625 200.148438 359.90625 216.960938 C 359.90625 246.957031 347.652344 274.171875 327.917969 293.90625 C 308.328125 313.640625 281.113281 325.894531 251.121094 325.894531 L 157.148438 325.894531 C 149.027344 325.894531 142.472656 319.339844 142.472656 311.21875 Z M 251.261719 43.414062 L 171.898438 43.414062 L 171.898438 108.171875 L 251.332031 108.171875 C 281.328125 108.171875 308.542969 120.425781 328.132812 140.160156 L 328.773438 140.804688 C 330.128906 134.960938 330.769531 129.046875 330.769531 122.921875 C 330.769531 101.050781 321.863281 81.316406 307.542969 66.78125 C 293.011719 52.320312 273.132812 43.414062 251.261719 43.414062 Z M 251.261719 43.414062 " fill-opacity="1" fill-rule="nonzero"/></g></svg>