<svg xmlns="http://www.w3.org/2000/svg" xmlns:xlink="http://www.w3.org/1999/xlink" width="300" zoomAndPan="magnify" viewBox="0 0 224.87999 60" height="80" preserveAspectRatio="xMidYMid meet" version="1.0"><defs><g/><clipPath id="9c5958c3d8"><path d="M 3 15.722656 L 31.476562 15.722656 L 31.476562 41 L 3 41 Z M 3 15.722656 " clip-rule="nonzero"/></clipPath></defs><g clip-path="url(#9c5958c3d8)"><path fill="#ff1616" d="M 16.53125 38.488281 L 22.933594 38.488281 C 24.695312 38.488281 26.296875 37.761719 27.457031 36.601562 C 28.617188 35.441406 29.328125 33.839844 29.328125 32.074219 C 29.328125 31.582031 29.277344 31.101562 29.167969 30.648438 L 29.117188 30.679688 C 27.535156 32.269531 25.34375 33.257812 22.925781 33.257812 L 16.53125 33.257812 Z M 16.53125 25.675781 L 16.53125 30.894531 L 22.933594 30.894531 C 24.695312 30.894531 26.296875 30.175781 27.457031 29.023438 C 27.679688 28.785156 27.886719 28.550781 28.089844 28.292969 C 27.894531 28.035156 27.679688 27.789062 27.457031 27.5625 C 26.296875 26.402344 24.695312 25.675781 22.933594 25.675781 Z M 14.164062 18.089844 L 10.4375 18.089844 L 10.4375 39.671875 C 10.4375 40.328125 9.910156 40.855469 9.257812 40.855469 C 8.601562 40.855469 8.074219 40.328125 8.074219 39.671875 L 8.074219 18.089844 L 4.175781 18.089844 C 3.519531 18.089844 2.992188 17.5625 2.992188 16.90625 C 2.992188 16.253906 3.519531 15.722656 4.175781 15.722656 L 22.921875 15.722656 C 25.339844 15.722656 27.53125 16.710938 29.109375 18.300781 C 30.699219 19.894531 31.6875 22.085938 31.6875 24.492188 C 31.6875 25.847656 31.378906 27.144531 30.828125 28.292969 C 31.382812 29.441406 31.6875 30.722656 31.6875 32.074219 C 31.6875 34.492188 30.699219 36.6875 29.109375 38.277344 C 27.53125 39.867188 25.339844 40.855469 22.921875 40.855469 L 15.347656 40.855469 C 14.695312 40.855469 14.164062 40.328125 14.164062 39.671875 Z M 22.933594 18.089844 L 16.535156 18.089844 L 16.535156 23.308594 L 22.9375 23.308594 C 25.355469 23.308594 27.546875 24.296875 29.128906 25.886719 L 29.179688 25.9375 C 29.289062 25.46875 29.339844 24.992188 29.339844 24.496094 C 29.339844 22.734375 28.621094 21.144531 27.46875 19.972656 C 26.296875 18.808594 24.695312 18.089844 22.933594 18.089844 Z M 22.933594 18.089844 " fill-opacity="1" fill-rule="nonzero"/></g><g fill="#545454" fill-opacity="1"><g transform="translate(35.254508, 36.21314)"><g><path d="M 0.1875 -15.609375 L 0.1875 -19.515625 L 13.90625 -19.515625 L 13.90625 -15.609375 L 9.265625 -15.609375 L 9.265625 0 L 4.828125 0 L 4.828125 -15.609375 Z M 0.1875 -15.609375 "/></g></g></g><g fill="#545454" fill-opacity="1"><g transform="translate(47.810685, 36.21314)"><g><path d="M 1.421875 0 L 1.421875 -12.140625 L 5.609375 -12.140625 L 5.609375 -10.390625 L 5.65625 -10.390625 C 5.6875 -10.453125 5.738281 -10.53125 5.8125 -10.625 C 5.882812 -10.71875 6.035156 -10.878906 6.265625 -11.109375 C 6.503906 -11.347656 6.753906 -11.5625 7.015625 -11.75 C 7.285156 -11.945312 7.632812 -12.117188 8.0625 -12.265625 C 8.488281 -12.410156 8.925781 -12.484375 9.375 -12.484375 C 9.820312 -12.484375 10.265625 -12.421875 10.703125 -12.296875 C 11.148438 -12.171875 11.476562 -12.046875 11.6875 -11.921875 L 12.015625 -11.734375 L 10.265625 -8.1875 C 9.742188 -8.625 9.019531 -8.84375 8.09375 -8.84375 C 7.582031 -8.84375 7.144531 -8.734375 6.78125 -8.515625 C 6.425781 -8.296875 6.171875 -8.023438 6.015625 -7.703125 C 5.867188 -7.390625 5.765625 -7.125 5.703125 -6.90625 C 5.640625 -6.6875 5.609375 -6.515625 5.609375 -6.390625 L 5.609375 0 Z M 1.421875 0 "/></g></g></g><g fill="#545454" fill-opacity="1"><g transform="translate(59.397881, 36.21314)"><g><path d="M 2.25 -1.5 C 1.113281 -2.738281 0.546875 -4.253906 0.546875 -6.046875 C 0.546875 -7.847656 1.113281 -9.367188 2.25 -10.609375 C 3.382812 -11.859375 4.828125 -12.484375 6.578125 -12.484375 C 8.179688 -12.484375 9.503906 -11.976562 10.546875 -10.96875 L 10.546875 -12.140625 L 14.734375 -12.140625 L 14.734375 0 L 10.59375 0 L 10.59375 -1.375 L 10.546875 -1.375 C 9.503906 -0.21875 8.179688 0.359375 6.578125 0.359375 C 4.828125 0.359375 3.382812 -0.257812 2.25 -1.5 Z M 5.796875 -8.109375 C 5.253906 -7.578125 4.984375 -6.890625 4.984375 -6.046875 C 4.984375 -5.210938 5.242188 -4.53125 5.765625 -4 C 6.285156 -3.476562 6.972656 -3.21875 7.828125 -3.21875 C 8.648438 -3.21875 9.320312 -3.484375 9.84375 -4.015625 C 10.375 -4.554688 10.640625 -5.238281 10.640625 -6.0625 C 10.640625 -6.894531 10.367188 -7.578125 9.828125 -8.109375 C 9.285156 -8.648438 8.617188 -8.921875 7.828125 -8.921875 C 7.023438 -8.921875 6.347656 -8.648438 5.796875 -8.109375 Z M 5.796875 -8.109375 "/></g></g></g><g fill="#545454" fill-opacity="1"><g transform="translate(75.549119, 36.21314)"><g><path d="M 7.875 -9.0625 C 7.082031 -9.0625 6.398438 -8.769531 5.828125 -8.1875 C 5.265625 -7.601562 4.984375 -6.898438 4.984375 -6.078125 C 4.984375 -5.242188 5.265625 -4.535156 5.828125 -3.953125 C 6.398438 -3.367188 7.082031 -3.078125 7.875 -3.078125 C 8.257812 -3.078125 8.617188 -3.125 8.953125 -3.21875 C 9.296875 -3.3125 9.546875 -3.40625 9.703125 -3.5 L 9.90625 -3.640625 L 11.328125 -0.734375 C 11.222656 -0.648438 11.070312 -0.550781 10.875 -0.4375 C 10.675781 -0.320312 10.222656 -0.160156 9.515625 0.046875 C 8.816406 0.253906 8.066406 0.359375 7.265625 0.359375 C 5.484375 0.359375 3.914062 -0.265625 2.5625 -1.515625 C 1.21875 -2.773438 0.546875 -4.28125 0.546875 -6.03125 C 0.546875 -7.800781 1.21875 -9.316406 2.5625 -10.578125 C 3.914062 -11.847656 5.484375 -12.484375 7.265625 -12.484375 C 8.066406 -12.484375 8.804688 -12.390625 9.484375 -12.203125 C 10.160156 -12.015625 10.640625 -11.828125 10.921875 -11.640625 L 11.328125 -11.359375 L 9.90625 -8.5 C 9.382812 -8.875 8.707031 -9.0625 7.875 -9.0625 Z M 7.875 -9.0625 "/></g></g></g><g fill="#545454" fill-opacity="1"><g transform="translate(87.160037, 36.21314)"><g><path d="M 15.28125 -12.140625 L 9.515625 -6.34375 L 15.84375 0 L 10.453125 0 L 5.609375 -4.84375 L 5.609375 0 L 1.421875 0 L 1.421875 -20.34375 L 5.609375 -20.34375 L 5.609375 -7.90625 L 9.84375 -12.140625 Z M 15.28125 -12.140625 "/></g></g></g><g fill="#ff1616" fill-opacity="1"><g transform="translate(106.225228, 36.21314)"><g><path d="M 1.421875 -19.515625 L 7.46875 -19.515625 C 9.300781 -19.515625 10.757812 -19.125 11.84375 -18.34375 C 12.9375 -17.5625 13.484375 -16.296875 13.484375 -14.546875 C 13.484375 -12.585938 12.671875 -11.191406 11.046875 -10.359375 C 13.828125 -9.867188 15.21875 -8.226562 15.21875 -5.4375 C 15.21875 -3.800781 14.644531 -2.484375 13.5 -1.484375 C 12.363281 -0.492188 10.804688 0 8.828125 0 L 1.421875 0 Z M 5.859375 -11.875 L 6.21875 -11.875 C 7.21875 -11.875 7.957031 -12.046875 8.4375 -12.390625 C 8.925781 -12.742188 9.171875 -13.3125 9.171875 -14.09375 C 9.171875 -15.425781 8.1875 -16.09375 6.21875 -16.09375 L 5.859375 -16.09375 Z M 5.859375 -3.4375 L 7.265625 -3.4375 C 9.441406 -3.4375 10.53125 -4.160156 10.53125 -5.609375 C 10.53125 -6.472656 10.253906 -7.09375 9.703125 -7.46875 C 9.160156 -7.851562 8.347656 -8.046875 7.265625 -8.046875 L 5.859375 -8.046875 Z M 5.859375 -3.4375 "/></g></g></g><g fill="#ff1616" fill-opacity="1"><g transform="translate(121.974467, 36.21314)"><g><path d="M 2.25 -1.5 C 1.113281 -2.738281 0.546875 -4.253906 0.546875 -6.046875 C 0.546875 -7.847656 1.113281 -9.367188 2.25 -10.609375 C 3.382812 -11.859375 4.828125 -12.484375 6.578125 -12.484375 C 8.179688 -12.484375 9.503906 -11.976562 10.546875 -10.96875 L 10.546875 -12.140625 L 14.734375 -12.140625 L 14.734375 0 L 10.59375 0 L 10.59375 -1.375 L 10.546875 -1.375 C 9.503906 -0.21875 8.179688 0.359375 6.578125 0.359375 C 4.828125 0.359375 3.382812 -0.257812 2.25 -1.5 Z M 5.796875 -8.109375 C 5.253906 -7.578125 4.984375 -6.890625 4.984375 -6.046875 C 4.984375 -5.210938 5.242188 -4.53125 5.765625 -4 C 6.285156 -3.476562 6.972656 -3.21875 7.828125 -3.21875 C 8.648438 -3.21875 9.320312 -3.484375 9.84375 -4.015625 C 10.375 -4.554688 10.640625 -5.238281 10.640625 -6.0625 C 10.640625 -6.894531 10.367188 -7.578125 9.828125 -8.109375 C 9.285156 -8.648438 8.617188 -8.921875 7.828125 -8.921875 C 7.023438 -8.921875 6.347656 -8.648438 5.796875 -8.109375 Z M 5.796875 -8.109375 "/></g></g></g><g fill="#ff1616" fill-opacity="1"><g transform="translate(138.125706, 36.21314)"><g><path d="M 7.875 -9.0625 C 7.082031 -9.0625 6.398438 -8.769531 5.828125 -8.1875 C 5.265625 -7.601562 4.984375 -6.898438 4.984375 -6.078125 C 4.984375 -5.242188 5.265625 -4.535156 5.828125 -3.953125 C 6.398438 -3.367188 7.082031 -3.078125 7.875 -3.078125 C 8.257812 -3.078125 8.617188 -3.125 8.953125 -3.21875 C 9.296875 -3.3125 9.546875 -3.40625 9.703125 -3.5 L 9.90625 -3.640625 L 11.328125 -0.734375 C 11.222656 -0.648438 11.070312 -0.550781 10.875 -0.4375 C 10.675781 -0.320312 10.222656 -0.160156 9.515625 0.046875 C 8.816406 0.253906 8.066406 0.359375 7.265625 0.359375 C 5.484375 0.359375 3.914062 -0.265625 2.5625 -1.515625 C 1.21875 -2.773438 0.546875 -4.28125 0.546875 -6.03125 C 0.546875 -7.800781 1.21875 -9.316406 2.5625 -10.578125 C 3.914062 -11.847656 5.484375 -12.484375 7.265625 -12.484375 C 8.066406 -12.484375 8.804688 -12.390625 9.484375 -12.203125 C 10.160156 -12.015625 10.640625 -11.828125 10.921875 -11.640625 L 11.328125 -11.359375 L 9.90625 -8.5 C 9.382812 -8.875 8.707031 -9.0625 7.875 -9.0625 Z M 7.875 -9.0625 "/></g></g></g><g fill="#ff1616" fill-opacity="1"><g transform="translate(149.736624, 36.21314)"><g><path d="M 15.28125 -12.140625 L 9.515625 -6.34375 L 15.84375 0 L 10.453125 0 L 5.609375 -4.84375 L 5.609375 0 L 1.421875 0 L 1.421875 -20.34375 L 5.609375 -20.34375 L 5.609375 -7.90625 L 9.84375 -12.140625 Z M 15.28125 -12.140625 "/></g></g></g><g fill="#ff1616" fill-opacity="1"><g transform="translate(165.012914, 36.21314)"><g><path d="M 1.421875 0 L 1.421875 -20.34375 L 5.609375 -20.34375 L 5.609375 0 Z M 1.421875 0 "/></g></g></g><g fill="#ff1616" fill-opacity="1"><g transform="translate(172.036227, 36.21314)"><g><path d="M 1.828125 -18.90625 C 2.316406 -19.394531 2.898438 -19.640625 3.578125 -19.640625 C 4.253906 -19.640625 4.835938 -19.394531 5.328125 -18.90625 C 5.816406 -18.414062 6.0625 -17.832031 6.0625 -17.15625 C 6.0625 -16.476562 5.816406 -15.894531 5.328125 -15.40625 C 4.835938 -14.914062 4.253906 -14.671875 3.578125 -14.671875 C 2.898438 -14.671875 2.316406 -14.914062 1.828125 -15.40625 C 1.335938 -15.894531 1.09375 -16.476562 1.09375 -17.15625 C 1.09375 -17.832031 1.335938 -18.414062 1.828125 -18.90625 Z M 1.421875 -12.140625 L 1.421875 0 L 5.609375 0 L 5.609375 -12.140625 Z M 1.421875 -12.140625 "/></g></g></g><g fill="#ff1616" fill-opacity="1"><g transform="translate(179.177774, 36.21314)"><g><path d="M 1.421875 0 L 1.421875 -12.140625 L 5.609375 -12.140625 L 5.609375 -10.859375 L 5.65625 -10.859375 C 6.738281 -11.941406 7.894531 -12.484375 9.125 -12.484375 C 9.726562 -12.484375 10.320312 -12.40625 10.90625 -12.25 C 11.5 -12.09375 12.066406 -11.847656 12.609375 -11.515625 C 13.160156 -11.191406 13.601562 -10.722656 13.9375 -10.109375 C 14.28125 -9.503906 14.453125 -8.800781 14.453125 -8 L 14.453125 0 L 10.265625 0 L 10.265625 -6.859375 C 10.265625 -7.492188 10.0625 -8.046875 9.65625 -8.515625 C 9.257812 -8.984375 8.738281 -9.21875 8.09375 -9.21875 C 7.457031 -9.21875 6.882812 -8.972656 6.375 -8.484375 C 5.863281 -8.003906 5.609375 -7.460938 5.609375 -6.859375 L 5.609375 0 Z M 1.421875 0 "/></g></g></g><g fill="#ff1616" fill-opacity="1"><g transform="translate(194.808779, 36.21314)"><g><path d="M 15.28125 -12.140625 L 9.515625 -6.34375 L 15.84375 0 L 10.453125 0 L 5.609375 -4.84375 L 5.609375 0 L 1.421875 0 L 1.421875 -20.34375 L 5.609375 -20.34375 L 5.609375 -7.90625 L 9.84375 -12.140625 Z M 15.28125 -12.140625 "/></g></g></g><g fill="#ff1616" fill-opacity="1"><g transform="translate(210.085069, 36.21314)"><g><path d="M 6.6875 -12.484375 C 7.382812 -12.484375 8.070312 -12.40625 8.75 -12.25 C 9.425781 -12.09375 9.929688 -11.9375 10.265625 -11.78125 L 10.765625 -11.546875 L 9.390625 -8.796875 C 8.441406 -9.304688 7.539062 -9.5625 6.6875 -9.5625 C 6.21875 -9.5625 5.882812 -9.507812 5.6875 -9.40625 C 5.488281 -9.300781 5.390625 -9.109375 5.390625 -8.828125 C 5.390625 -8.765625 5.394531 -8.703125 5.40625 -8.640625 C 5.425781 -8.578125 5.457031 -8.515625 5.5 -8.453125 C 5.550781 -8.398438 5.597656 -8.351562 5.640625 -8.3125 C 5.679688 -8.269531 5.75 -8.222656 5.84375 -8.171875 C 5.9375 -8.128906 6.007812 -8.097656 6.0625 -8.078125 C 6.125 -8.054688 6.21875 -8.019531 6.34375 -7.96875 C 6.46875 -7.925781 6.5625 -7.890625 6.625 -7.859375 C 6.6875 -7.835938 6.789062 -7.800781 6.9375 -7.75 C 7.09375 -7.707031 7.207031 -7.679688 7.28125 -7.671875 C 7.769531 -7.523438 8.195312 -7.363281 8.5625 -7.1875 C 8.925781 -7.019531 9.304688 -6.785156 9.703125 -6.484375 C 10.109375 -6.179688 10.421875 -5.800781 10.640625 -5.34375 C 10.859375 -4.882812 10.96875 -4.363281 10.96875 -3.78125 C 10.96875 -1.019531 9.054688 0.359375 5.234375 0.359375 C 4.359375 0.359375 3.53125 0.222656 2.75 -0.046875 C 1.96875 -0.316406 1.40625 -0.585938 1.0625 -0.859375 L 0.546875 -1.28125 L 2.25 -4.140625 C 2.375 -4.023438 2.535156 -3.894531 2.734375 -3.75 C 2.941406 -3.601562 3.3125 -3.398438 3.84375 -3.140625 C 4.382812 -2.878906 4.851562 -2.75 5.25 -2.75 C 6.113281 -2.75 6.546875 -3.039062 6.546875 -3.625 C 6.546875 -3.882812 6.4375 -4.085938 6.21875 -4.234375 C 6 -4.390625 5.625 -4.5625 5.09375 -4.75 C 4.570312 -4.9375 4.160156 -5.113281 3.859375 -5.28125 C 3.097656 -5.664062 2.492188 -6.109375 2.046875 -6.609375 C 1.609375 -7.109375 1.390625 -7.769531 1.390625 -8.59375 C 1.390625 -9.820312 1.867188 -10.773438 2.828125 -11.453125 C 3.785156 -12.140625 5.070312 -12.484375 6.6875 -12.484375 Z M 6.6875 -12.484375 "/></g></g></g></svg>