<svg xmlns="http://www.w3.org/2000/svg" id="Layer_1" x="0" y="0" enable-background="new 0 0 97 97" version="1.1" viewBox="0 0 97 97" xml:space="preserve" width="97" height="97"><circle cx="48.5" cy="48.5" r="34.1" fill="#564cf5" class="colorf5c24c svgShape"/><line x1="48.5" x2="48.5" y1="2.5" y2="9.6" fill="#4eb970" stroke="#2a2934" stroke-miterlimit="10" stroke-width="4" class="colorStroke292d34 svgStroke"/><line x1="48.5" x2="48.5" y1="87.4" y2="94.5" fill="#4eb970" stroke="#2a2934" stroke-miterlimit="10" stroke-width="4" class="colorStroke292d34 svgStroke"/><line x1="94.5" x2="87.4" y1="48.5" y2="48.5" fill="#4eb970" stroke="#2a2934" stroke-miterlimit="10" stroke-width="4" class="colorStroke292d34 svgStroke"/><line x1="9.6" x2="2.5" y1="48.5" y2="48.5" fill="#4eb970" stroke="#2a2934" stroke-miterlimit="10" stroke-width="4" class="colorStroke292d34 svgStroke"/><line x1="81" x2="76" y1="81" y2="76" fill="#4eb970" stroke="#2a2934" stroke-miterlimit="10" stroke-width="4" class="colorStroke292d34 svgStroke"/><line x1="21" x2="16" y1="21" y2="16" fill="#4eb970" stroke="#2a2934" stroke-miterlimit="10" stroke-width="4" class="colorStroke292d34 svgStroke"/><line x1="65.5" x2="62.9" y1="5.8" y2="12.4" fill="#4eb970" stroke="#2a2934" stroke-miterlimit="10" stroke-width="4" class="colorStroke292d34 svgStroke"/><line x1="34.1" x2="31.5" y1="84.6" y2="91.2" fill="#4eb970" stroke="#2a2934" stroke-miterlimit="10" stroke-width="4" class="colorStroke292d34 svgStroke"/><line x1="91.2" x2="84.6" y1="65.5" y2="62.9" fill="#4eb970" stroke="#2a2934" stroke-miterlimit="10" stroke-width="4" class="colorStroke292d34 svgStroke"/><line x1="12.4" x2="5.8" y1="34.1" y2="31.5" fill="#4eb970" stroke="#2a2934" stroke-miterlimit="10" stroke-width="4" class="colorStroke292d34 svgStroke"/><line x1="66.7" x2="63.9" y1="90.8" y2="84.2" fill="#4eb970" stroke="#2a2934" stroke-miterlimit="10" stroke-width="4" class="colorStroke292d34 svgStroke"/><line x1="33.1" x2="30.3" y1="12.8" y2="6.2" fill="#4eb970" stroke="#2a2934" stroke-miterlimit="10" stroke-width="4" class="colorStroke292d34 svgStroke"/><path fill="#5951da" stroke="#2a2934" stroke-miterlimit="10" stroke-width="4" d="M22.7 49.7L8.1 62.2c-6.7 5.7-7.4 15.7-1.8 22.4l0 0C12 91.2 22 92 28.7 86.3l14.7-12.5c6.7-5.7 7.4-15.7 1.8-22.4l0 0C39.4 44.8 29.4 44 22.7 49.7zM38.4 68.1L23.8 80.6c-3.5 3-8.8 2.6-11.8-.9-3-3.5-2.6-8.8.9-11.8l14.7-12.5c3.5-3 8.8-2.6 11.8.9C42.4 59.8 41.9 65.1 38.4 68.1zM68.3 10.7L53.7 23.2c-6.7 5.7-7.4 15.7-1.8 22.4l0 0c5.7 6.7 15.7 7.4 22.4 1.8l14.7-12.5c6.7-5.7 7.4-15.7 1.8-22.4l0 0C85 5.8 75 5 68.3 10.7zM84.1 29.1L69.4 41.6c-3.5 3-8.8 2.6-11.8-.9-3-3.5-2.6-8.8.9-11.8l14.7-12.5c3.5-3 8.8-2.6 11.8.9C88 20.8 87.6 26.1 84.1 29.1z" class="color4eb970 svgShape colorStroke292d34 svgStroke"/><path fill="#fff" stroke="#2a2934" stroke-miterlimit="10" stroke-width="4" d="M65.9,38.6L36,64.1c-1.2,1-3,0.9-4.1-0.3l-1.1-1.3c-1-1.2-0.9-3,0.3-4.1L61,32.9c1.2-1,3-0.9,4.1,0.3l1.1,1.3    C67.2,35.7,67.1,37.5,65.9,38.6z" class="colorffffff svgShape colorStroke292d34 svgStroke"/></svg>