<svg xmlns="http://www.w3.org/2000/svg" enable-background="new 0 0 3000 3000" viewBox="0 0 3000 3000" width="3000" height="3000"><path fill="#e3e1ff" d="M1059.9,553.1c-485.6-81-819.9,165.4-649,689.6c51.1,156.7,41.8,335.3-30.8,478.1   c-34.1,67.1-80.6,125.6-140.7,174.8c-64,52.5-117.5,123.2-152.5,208.3c-3.4,8.3-6.7,16.6-9.8,24.9   c-89.4,240.5,53.6,515.6,265.8,515.6H2487c158.2,0,305-106.9,380.5-280.8c128.1-295,118.6-656.4-110.1-1068.7   c-87.7-158.2-235.7-248-389.2-233.8c-2.5,0.2-5.1,0.5-7.7,0.8c-35.2,3.6-70.9-0.2-104.7-13c-133.3-50.4-206.4-212.3-247.4-433.6   c-25.8-139-119.5-243-233-257.2c-109-13.7-250.4,33.1-428.5,148.7c-50.9,33.1-106.6,54-163.8,59.3c-27.3,2.5-54.1,1.5-80.1-4.2   C1088.7,558.7,1074.3,555.5,1059.9,553.1z" class="colore1e5ff svgShape" enable-background="new" opacity=".4"/><path fill="#5951da" d="M2555.2,594.9h-741.5c-18.8,0-34.1,15.3-34.1,34.1v86.2h809.7V629C2589.3,610.2,2574,594.9,2555.2,594.9z" class="color8a8bc4 svgShape"/><path fill="#ececf1" d="M2535,1621.1h-701.2c-30,0-54.3-24.3-54.3-54.3V715.2h809.7v851.6C2589.3,1596.8,2565,1621.1,2535,1621.1z" class="colorecf0f1 svgShape"/><path fill="#fff" d="M1855.8,657c0,8.1-6.5,14.6-14.6,14.6c-8.1,0-14.6-6.5-14.6-14.6s6.5-14.6,14.6-14.6      C1849.3,642.5,1855.8,649,1855.8,657z" class="colorffffff svgShape"/><circle cx="1902.5" cy="657" r="14.6" fill="#fff" class="colorffffff svgShape"/><path fill="#fff" d="M1978.4,657c0,8.1-6.5,14.6-14.6,14.6c-8.1,0-14.6-6.5-14.6-14.6s6.5-14.6,14.6-14.6      C1971.8,642.5,1978.4,649,1978.4,657z" class="colorffffff svgShape"/><path fill="#fff" d="M2496.1,671.4h-253.4c-7.9,0-14.4-6.4-14.4-14.4l0,0c0-7.9,6.4-14.4,14.4-14.4h253.4      c7.9,0,14.4,6.4,14.4,14.4l0,0C2510.5,665,2504.1,671.4,2496.1,671.4z" class="colorffffff svgShape"/><path fill="#fff" d="M2335.5,927.8c0,32.1-10,61.9-27.1,86.4c-27.3,39.1-72.7,64.7-124,64.7s-96.7-25.6-124-64.7      c-17.1-24.5-27.1-54.3-27.1-86.4c0-83.5,67.7-151.1,151.1-151.1C2267.9,776.7,2335.5,844.3,2335.5,927.8z" class="colorffffff svgShape"/><path fill="#5c53ed" d="M2308.4,1014.2c-27.3,39.1-72.7,64.7-124,64.7s-96.7-25.6-124-64.7c27.3-39.1,72.7-64.7,124-64.7      C2235.7,949.5,2281.1,975.1,2308.4,1014.2z" class="color53b4ed svgShape"/><circle cx="2184.5" cy="876.9" r="53.2" fill="#5c53ed" class="color53b4ed svgShape"/><path fill="#fff" d="M2438.4,1257h-507.9c-25.6,0-46.3-20.7-46.3-46.3l0,0c0-25.6,20.7-46.3,46.3-46.3h507.9     c25.6,0,46.3,20.7,46.3,46.3l0,0C2484.6,1236.3,2463.9,1257,2438.4,1257z" class="colorffffff svgShape"/><g class="color000000 svgShape"><path fill="#38374c" d="M2055.5,1193.1v22.2c0,2.6,0.7,4.6,2.1,6c1.4,1.3,3.3,2,5.8,2c2.5,0,4.4-0.7,5.8-2c1.4-1.3,2.1-3.3,2.1-6      v-22.2h5.7v22.1c0,2.8-0.6,5.2-1.9,7.2c-1.2,2-2.9,3.4-5,4.4c-2.1,1-4.4,1.4-6.9,1.4s-4.8-0.5-6.8-1.4c-2.1-1-3.7-2.4-4.9-4.4      c-1.2-2-1.8-4.4-1.8-7.2v-22.1H2055.5z" class="color37424c svgShape"/><path fill="#38374c" d="M2088.6,1227.2c-1.7-0.8-3.1-1.8-4.1-3.2c-1-1.3-1.5-2.9-1.6-4.5h5.9c0.1,1.2,0.7,2.2,1.7,2.9      s2.3,1.2,3.8,1.2c1.6,0,2.9-0.3,3.7-0.9s1.3-1.4,1.3-2.4c0-1-0.5-1.8-1.5-2.3s-2.6-1.1-4.7-1.7c-2.1-0.6-3.8-1.1-5.1-1.7      s-2.4-1.3-3.4-2.5c-0.9-1.1-1.4-2.6-1.4-4.4c0-1.5,0.4-2.8,1.3-4s2.1-2.2,3.7-2.9c1.6-0.7,3.5-1.1,5.6-1.1      c3.1,0,5.7,0.8,7.6,2.4c1.9,1.6,2.9,3.8,3.1,6.5h-5.7c-0.1-1.2-0.6-2.2-1.5-3c-0.9-0.7-2.1-1.1-3.7-1.1c-1.5,0-2.7,0.3-3.5,0.8      s-1.2,1.3-1.2,2.2c0,0.7,0.3,1.3,0.8,1.8s1.2,0.9,1.9,1.2c0.8,0.3,1.9,0.6,3.4,1.1c2,0.5,3.6,1.1,4.9,1.6      c1.3,0.6,2.4,1.4,3.3,2.4c0.9,1.1,1.4,2.5,1.4,4.3c0,1.6-0.4,3-1.3,4.2s-2.1,2.2-3.7,2.9c-1.6,0.7-3.4,1.1-5.6,1.1      C2092.3,1228.3,2090.4,1228,2088.6,1227.2z" class="color37424c svgShape"/><path fill="#38374c" d="M2136.3,1216.2h-21.1c0.2,2.2,1,4,2.4,5.3c1.5,1.3,3.3,2,5.4,2c3.1,0,5.2-1.3,6.5-3.9h6.2      c-0.8,2.5-2.4,4.6-4.5,6.2c-2.2,1.6-4.9,2.4-8.1,2.4c-2.6,0-5-0.6-7.1-1.8c-2.1-1.2-3.7-2.8-4.9-5c-1.2-2.2-1.8-4.7-1.8-7.5      s0.6-5.3,1.7-7.5s2.8-3.8,4.9-5c2.1-1.2,4.5-1.8,7.2-1.8c2.6,0,4.9,0.6,7,1.7c2,1.1,3.6,2.7,4.8,4.8s1.7,4.4,1.7,7.1      C2136.5,1214.5,2136.4,1215.4,2136.3,1216.2z M2130.5,1211.6c0-2.1-0.8-3.8-2.2-5.1s-3.3-1.9-5.5-1.9c-2,0-3.7,0.6-5.1,1.9      c-1.4,1.2-2.2,2.9-2.5,5.1L2130.5,1211.6L2130.5,1211.6z" class="color37424c svgShape"/><path fill="#38374c" d="M2151.1,1201c1.4-0.8,3-1.2,4.9-1.2v5.9h-1.4c-2.2,0-3.9,0.6-5.1,1.7c-1.1,1.1-1.7,3.1-1.7,5.9v14.5h-5.7      v-27.6h5.7v4C2148.7,1202.9,2149.8,1201.8,2151.1,1201z" class="color37424c svgShape"/><path fill="#38374c" d="M2181.1,1201.2c1.7,0.9,3.1,2.2,4,4s1.4,3.9,1.4,6.4v16.3h-5.7v-15.4c0-2.5-0.6-4.4-1.9-5.7      c-1.2-1.3-2.9-2-5.1-2c-2.1,0-3.8,0.7-5.1,2s-1.9,3.2-1.9,5.7v15.4h-5.7v-27.6h5.7v3.2c0.9-1.1,2.1-2,3.6-2.7      c1.4-0.6,3-0.9,4.6-0.9C2177.4,1199.8,2179.4,1200.3,2181.1,1201.2z" class="color37424c svgShape"/><path fill="#38374c" d="M2193.7,1206.6c1.1-2.1,2.7-3.8,4.7-5c2-1.2,4.2-1.8,6.6-1.8c2.2,0,4.1,0.4,5.7,1.3      c1.6,0.8,2.9,1.9,3.9,3.2v-4h5.8v27.6h-5.8v-4.1c-1,1.3-2.3,2.4-4,3.3s-3.6,1.3-5.7,1.3c-2.4,0-4.5-0.6-6.5-1.8      s-3.5-2.9-4.7-5.1s-1.7-4.7-1.7-7.4C2192,1211.2,2192.5,1208.8,2193.7,1206.6z M2213.4,1209.1c-0.8-1.4-1.8-2.5-3.1-3.2      c-1.3-0.7-2.6-1.1-4.1-1.1c-1.5,0-2.8,0.4-4.1,1.1s-2.3,1.8-3.1,3.2s-1.2,3-1.2,4.9c0,1.9,0.4,3.6,1.2,5      c0.8,1.4,1.8,2.5,3.1,3.3s2.6,1.1,4.1,1.1c1.5,0,2.8-0.4,4.1-1.1s2.3-1.8,3.1-3.2c0.8-1.4,1.2-3.1,1.2-5      C2214.6,1212.2,2214.2,1210.5,2213.4,1209.1z" class="color37424c svgShape"/><path fill="#38374c" d="M2267.1,1201.2c1.7,0.9,3.1,2.2,4.1,4c1,1.8,1.5,3.9,1.5,6.4v16.3h-5.7v-15.4c0-2.5-0.6-4.4-1.9-5.7      c-1.2-1.3-2.9-2-5.1-2c-2.1,0-3.8,0.7-5.1,2s-1.9,3.2-1.9,5.7v15.4h-5.7v-15.4c0-2.5-0.6-4.4-1.9-5.7c-1.2-1.3-2.9-2-5.1-2      c-2.1,0-3.8,0.7-5.1,2c-1.2,1.3-1.9,3.2-1.9,5.7v15.4h-5.7v-27.6h5.7v3.2c0.9-1.1,2.1-2,3.6-2.7s3-0.9,4.6-0.9      c2.2,0,4.2,0.5,5.9,1.4c1.7,0.9,3.1,2.3,4,4.1c0.8-1.7,2.1-3,3.9-4s3.7-1.5,5.7-1.5C2263.4,1199.8,2265.4,1200.3,2267.1,1201.2z      " class="color37424c svgShape"/><path fill="#38374c" d="M2305,1216.2h-21.1c0.2,2.2,1,4,2.4,5.3c1.5,1.3,3.3,2,5.4,2c3.1,0,5.2-1.3,6.5-3.9h6.2      c-0.8,2.5-2.4,4.6-4.5,6.2c-2.2,1.6-4.9,2.4-8.1,2.4c-2.6,0-5-0.6-7.1-1.8c-2.1-1.2-3.7-2.8-4.9-5c-1.2-2.2-1.8-4.7-1.8-7.5      s0.6-5.3,1.7-7.5s2.8-3.8,4.9-5c2.1-1.2,4.5-1.8,7.2-1.8c2.6,0,4.9,0.6,7,1.7c2,1.1,3.6,2.7,4.8,4.8s1.7,4.4,1.7,7.1      C2305.2,1214.5,2305.1,1215.4,2305,1216.2z M2299.2,1211.6c0-2.1-0.8-3.8-2.2-5.1s-3.3-1.9-5.5-1.9c-2,0-3.7,0.6-5.1,1.9      c-1.4,1.2-2.2,2.9-2.5,5.1L2299.2,1211.6L2299.2,1211.6z" class="color37424c svgShape"/></g><g class="color000000 svgShape"><path fill="#fff" d="M2438.4,1410h-507.9c-25.6,0-46.3-20.7-46.3-46.3l0,0c0-25.6,20.7-46.3,46.3-46.3h507.9      c25.6,0,46.3,20.7,46.3,46.3l0,0C2484.6,1389.3,2463.9,1410,2438.4,1410z" class="colorffffff svgShape"/><path fill="#38374c" d="M1954.4,1363.8c0,7.3-5.9,13.2-13.2,13.2s-13.2-5.9-13.2-13.2s5.9-13.2,13.2-13.2       S1954.4,1356.5,1954.4,1363.8z" class="color37424c svgShape"/><path fill="#38374c" d="M2051.7,1363.8c0,7.3-5.9,13.2-13.2,13.2s-13.2-5.9-13.2-13.2s5.9-13.2,13.2-13.2       C2045.8,1350.6,2051.7,1356.5,2051.7,1363.8z" class="color37424c svgShape"/><path fill="#38374c" d="M2148.9,1363.8c0,7.3-5.9,13.2-13.2,13.2s-13.2-5.9-13.2-13.2s5.9-13.2,13.2-13.2       S2148.9,1356.5,2148.9,1363.8z" class="color37424c svgShape"/><path fill="#38374c" d="M2246.2,1363.8c0,7.3-5.9,13.2-13.2,13.2s-13.2-5.9-13.2-13.2s5.9-13.2,13.2-13.2       S2246.2,1356.5,2246.2,1363.8z" class="color37424c svgShape"/><path fill="#38374c" d="M2343.4,1363.8c0,7.3-5.9,13.2-13.2,13.2s-13.2-5.9-13.2-13.2s5.9-13.2,13.2-13.2       C2337.5,1350.6,2343.4,1356.5,2343.4,1363.8z" class="color37424c svgShape"/><path fill="#38374c" d="M2440.7,1363.8c0,7.3-5.9,13.2-13.2,13.2s-13.2-5.9-13.2-13.2s5.9-13.2,13.2-13.2       C2434.8,1350.6,2440.7,1356.5,2440.7,1363.8z" class="color37424c svgShape"/></g><g class="color000000 svgShape"><path fill="#fff" d="M2278.6,1566.3h-230.3c-28.6,0-51.7-23.1-51.7-51.7l0,0c0-28.5,23.1-51.7,51.7-51.7h230.3      c28.6,0,51.7,23.1,51.7,51.7l0,0C2330.3,1543.1,2307.1,1566.3,2278.6,1566.3z" class="colorffffff svgShape"/><path fill="#38374c" d="M2097.4,1523.6h13.5v5.3h-20V1489h6.6L2097.4,1523.6L2097.4,1523.6z" class="color37424c svgShape"/><path fill="#38374c" d="M2121.9,1527.4c-2.4-1.4-4.3-3.3-5.7-5.7s-2.1-5.3-2.1-8.6c0-3.2,0.7-6.1,2.1-8.6c1.4-2.5,3.4-4.4,5.8-5.7       s5.2-2,8.2-2c3,0,5.8,0.7,8.2,2s4.4,3.3,5.8,5.7c1.4,2.5,2.1,5.3,2.1,8.6c0,3.2-0.7,6.1-2.2,8.6c-1.5,2.5-3.4,4.4-5.9,5.8       c-2.5,1.4-5.3,2-8.3,2C2127.1,1529.4,2124.4,1528.7,2121.9,1527.4z M2134.8,1522.5c1.5-0.8,2.7-2,3.6-3.6       c0.9-1.6,1.4-3.6,1.4-5.9c0-2.3-0.4-4.2-1.3-5.8c-0.9-1.6-2.1-2.8-3.5-3.6c-1.5-0.8-3-1.2-4.7-1.2s-3.2,0.4-4.7,1.2       c-1.4,0.8-2.6,2-3.4,3.6c-0.8,1.6-1.3,3.5-1.3,5.8c0,3.4,0.9,6,2.6,7.9s3.9,2.8,6.6,2.8       C2131.7,1523.7,2133.3,1523.3,2134.8,1522.5z" class="color37424c svgShape"/><path fill="#38374c" d="M2172.2,1498.2c1.9,1,3.4,2.2,4.4,3.7v-4.6h6.6v32.2c0,2.9-0.6,5.5-1.8,7.8c-1.2,2.3-3,4.1-5.3,5.4       c-2.3,1.3-5.1,1.9-8.3,1.9c-4.3,0-7.9-1-10.7-3s-4.4-4.7-4.8-8.2h6.5c0.5,1.7,1.6,3,3.2,4s3.6,1.5,5.8,1.5       c2.6,0,4.8-0.8,6.4-2.4c1.6-1.6,2.4-3.9,2.4-7v-5.3c-1.1,1.5-2.6,2.8-4.5,3.8s-4.1,1.5-6.5,1.5c-2.8,0-5.3-0.7-7.6-2.1       s-4.1-3.3-5.4-5.9c-1.3-2.5-2-5.3-2-8.5s0.7-6,2-8.4s3.1-4.3,5.4-5.7c2.3-1.4,4.8-2,7.6-2       C2168.2,1496.7,2170.3,1497.2,2172.2,1498.2z M2175.3,1507.3c-0.9-1.6-2.1-2.8-3.5-3.7c-1.5-0.8-3-1.3-4.7-1.3       c-1.7,0-3.3,0.4-4.7,1.2s-2.6,2-3.5,3.6c-0.9,1.6-1.4,3.5-1.4,5.7s0.4,4.1,1.4,5.7c0.9,1.7,2.1,2.9,3.6,3.8s3,1.3,4.7,1.3       c1.7,0,3.2-0.4,4.7-1.3c1.4-0.8,2.6-2.1,3.5-3.7c0.9-1.6,1.4-3.5,1.4-5.7C2176.7,1510.8,2176.2,1508.9,2175.3,1507.3z" class="color37424c svgShape"/><path fill="#38374c" d="M2192.2,1491.8c-0.8-0.8-1.2-1.8-1.2-3s0.4-2.2,1.2-3c0.8-0.8,1.8-1.2,3-1.2c1.1,0,2.1,0.4,2.9,1.2       c0.8,0.8,1.2,1.8,1.2,3s-0.4,2.2-1.2,3c-0.8,0.8-1.8,1.2-2.9,1.2C2194,1493,2193.1,1492.6,2192.2,1491.8z M2198.4,1497.2v31.7       h-6.6v-31.7H2198.4z" class="color37424c svgShape"/><path fill="#38374c" d="M2229.7,1498.3c2,1,3.5,2.6,4.6,4.6c1.1,2,1.7,4.5,1.7,7.3v18.7h-6.5v-17.7c0-2.8-0.7-5-2.1-6.5       s-3.4-2.3-5.8-2.3s-4.4,0.8-5.8,2.3c-1.4,1.5-2.1,3.7-2.1,6.5v17.7h-6.6v-31.7h6.6v3.6c1.1-1.3,2.4-2.3,4.1-3       c1.7-0.7,3.4-1.1,5.3-1.1C2225.5,1496.7,2227.8,1497.2,2229.7,1498.3z" class="color37424c svgShape"/></g><g class="color000000 svgShape"><path fill="#5b51fa" d="M2301.8,1978.4l-33.8,4.9c-5.8-16.7-14.8-31.7-26.3-44.3l20.4-27.3c1-1.3,0.7-3.3-0.6-4.3l-33.5-25     c-1.4-1-3.3-0.7-4.3,0.6l-20.4,27.3c-15.3-7.5-32.3-11.9-49.9-12.7l-4.9-33.7c-0.2-1.7-1.8-2.8-3.5-2.6l-41.4,6     c-1.7,0.2-2.8,1.8-2.6,3.5l4.9,33.7c-16.7,5.8-31.7,14.8-44.3,26.3l-27.3-20.4c-1.3-1-3.3-0.7-4.3,0.6l-25,33.5     c-1,1.3-0.7,3.3,0.6,4.3l27.3,20.4c-7.5,15.3-11.9,32.3-12.7,49.9l-33.7,4.9c-1.7,0.2-2.8,1.8-2.6,3.5l6,41.4     c0.2,1.7,1.8,2.8,3.5,2.6l33.7-4.9c5.8,16.7,14.8,31.7,26.3,44.3l-20.4,27.3c-1,1.4-0.7,3.2,0.6,4.3l33.5,25     c1.3,1,3.3,0.7,4.3-0.6l20.4-27.3c15.3,7.5,32.3,11.9,49.9,12.7l4.9,33.7c0.2,1.7,1.8,2.8,3.5,2.6l41.4-6     c1.7-0.2,2.8-1.8,2.6-3.5l-4.9-33.7c16.7-5.8,31.7-14.8,44.3-26.3l27.3,20.4c1.4,1,3.3,0.7,4.3-0.6l25-33.5     c1-1.4,0.7-3.3-0.6-4.3l-27.3-20.4c7.5-15.3,11.9-32.3,12.7-49.9l33.8-4.9c1.6-0.2,2.8-1.8,2.6-3.5l-6-41.4     C2305,1979.4,2303.4,1978.2,2301.8,1978.4z M2158.6,2101.2c-42.1,6.1-81.2-23.1-87.3-65.2c-6.1-42.1,23.1-81.2,65.2-87.3     c42.1-6.1,81.2,23.1,87.3,65.2C2229.9,2056,2200.8,2095.1,2158.6,2101.2z" class="colorfaa951 svgShape"/></g><g class="color000000 svgShape"><path fill="#5951da" d="M2057.3,2189.2l-33.8,4.9c-5.8-16.7-14.8-31.7-26.3-44.3l20.4-27.3c1-1.3,0.7-3.3-0.6-4.3l-33.5-25     c-1.3-1-3.3-0.7-4.3,0.6l-20.4,27.3c-15.3-7.5-32.3-11.9-49.9-12.7l-4.9-33.7c-0.2-1.7-1.8-2.8-3.5-2.6l-41.4,6     c-1.7,0.2-2.8,1.8-2.6,3.5l4.9,33.7c-16.7,5.8-31.7,14.8-44.3,26.4l-27.3-20.4c-1.3-1-3.3-0.7-4.3,0.6l-25,33.5     c-1,1.4-0.7,3.3,0.6,4.3l27.3,20.4c-7.5,15.3-11.9,32.3-12.7,49.9l-33.7,4.9c-1.7,0.2-2.8,1.8-2.6,3.5l6,41.4     c0.2,1.7,1.8,2.8,3.5,2.6l33.7-4.9c5.8,16.7,14.8,31.7,26.3,44.3l-20.4,27.3c-1,1.4-0.7,3.2,0.6,4.3l33.5,25     c1.3,1,3.3,0.7,4.3-0.6l20.4-27.3c15.3,7.5,32.3,11.9,49.9,12.7l4.9,33.7c0.2,1.7,1.8,2.8,3.5,2.6l41.4-6     c1.7-0.2,2.8-1.8,2.6-3.5l-4.9-33.7c16.7-5.8,31.7-14.8,44.3-26.3l27.3,20.4c1.3,1,3.3,0.7,4.3-0.6l25-33.5     c1-1.4,0.7-3.3-0.6-4.3l-27.3-20.4c7.5-15.3,11.9-32.3,12.7-49.9l33.8-4.9c1.6-0.2,2.8-1.8,2.6-3.5l-6-41.4     C2060.5,2190.1,2058.9,2188.9,2057.3,2189.2z M1914.1,2311.9c-42.1,6.1-81.2-23.1-87.3-65.2c-6.1-42.1,23.1-81.2,65.2-87.3     c42.1-6.1,81.2,23.1,87.3,65.2C1985.4,2266.8,1956.2,2305.8,1914.1,2311.9z" class="color8a8bc4 svgShape"/></g><g class="color000000 svgShape"><path fill="#a09bf7" d="M921.1,1137.4c0,0,13.8,133.2,85.1,128.9c71.3-4.3,0,5.2,0,5.2l-36.1,85.1c0,0-73.9-16.1-153.8-155.9       l51.8-86.9L921.1,1137.4z" class="colorf7c19b svgShape"/><polygon fill="#a09bf7" points="901.9 2464.5 898.1 2561.6 821.4 2560.1 823.7 2466.9" class="colorf7c19b svgShape"/><path fill="#333" d="M800.5,2610.1c0.1,18.9,15.7,34.2,34.6,34.2l155.5-0.1c13.8,0,25-11.2,25-25l0,0c0-2.4-2.5-7.6-4.4-9.2         l-97.5-75.5c-3.4-2.8-7.8-1.5-11.3,1.1c-22.9,17.1-55.4,16.5-87.9,14.6C802.7,2571.5,800.5,2591.4,800.5,2610.1z" class="color333333 svgShape"/><polygon fill="#a09bf7" points="612.6 2464.5 608.8 2561.6 532.1 2560.1 534.4 2466.9" class="colorf7c19b svgShape"/><path fill="#333" d="M511.2,2610.1c0.1,18.9,15.7,34.2,34.6,34.2l155.5-0.1c13.8,0,25-11.2,25-25l0,0c0-2.4-2.5-7.6-4.4-9.2         l-97.5-75.5c-3.4-2.8-7.8-1.5-11.3,1.1c-22.9,17.1-55.4,16.5-87.9,14.6C513.4,2571.5,511.1,2591.4,511.2,2610.1z" class="color333333 svgShape"/><path fill="#38374c" d="M834.3,1410.7l112.9,467.2c8.3,34.3,11.1,69.8,8.4,105l-40.6,526H808.7L794.1,2063          c-1.8-32.6-7.8-64.8-17.7-95.8l-65.6-226L684,2005.4c-0.6,8-1.5,16-2.6,23.9L627.7,2509H518.1          c-5.1-342.9-19.9-657.8-3.4-997.7l250.9-147.6L834.3,1410.7z" class="color37424c svgShape"/><path fill="#6056fa" d="M535.2,1193.2l1.8,0.9c-4.4,26.1-8.2,52.9-11.3,80.7c62,0.2,135.7-20.5,213.6-48.5          c0,0,65.7-20.9,121.5,11.2c0.4-14.8,1-29.8,1.9-45.1c0,0,63.6-17.2,89.4-60.2l-81.2-132.5c-14.7-23.9-40.7-38.5-68.8-38.5          l-43.7-5.6c0,0-44.8,43.5-87.1-5.6l-109,15.9c-29.8,4.6-55.6,23.4-69.1,50.4l-61,121.9l12.9,6.8L535.2,1193.2z" class="colorfa5669 svgShape"/><path fill="#6056fa" d="M507.1,1608.8c112.7,52.8,246.5-2.5,378.8-38.3c-16-80.1-26.4-216.2-25.4-312.4          c0.1-6.8,0.2-13.6,0.4-20.4c-55.7-32.2-121.5-11.2-121.5-11.2c-78,28-151.7,48.7-213.6,48.5c-3.4,30.2-5.9,61.3-7.7,93.5          C515.4,1414.2,506.7,1559.3,507.1,1608.8z" class="colorfa5669 svgShape"/><path fill="#a09bf7" d="M415.3,1325c5,24,25.7,41.6,50.1,43.4c17.7,1.3,35.3,1.2,52.6-0.1c111.4-7.8,211.2-60.7,241.5-78.3        c5.8-3.3,13-2.7,18.2,1.5l24.2,20.2c1.9,1.6,4.3,2.5,6.8,2.5c1.8,0,3.8-0.5,5.4-1.5c4.7-2.9,6.4-8.9,3.8-13.9l-16.7-31.9        l33.3,22.2c1.5,1.1,3.3,1.5,5,1.5c2.8,0,5.6-1.3,7.3-3.8c2.3-3.3,2.1-7.9-0.5-11l-23.8-27.6l32,9.7c1,0.3,2.1,0.5,3.1,0.5        c1,0,2-0.1,2.9-0.4c3.5-1,6.3-3.8,7.3-7.6c1.1-4.6-0.9-9.2-4.9-11.7c-0.7-0.4-1.3-0.8-2-1.2c-55.7-32.2-121.5-11.2-121.5-11.2        c-78,28-151.7,48.7-213.6,48.5c-6.2,0-12.4-0.2-18.4-0.7l27.8-80.9l-90.2-48.1C405.7,1226,407.4,1288,415.3,1325z" class="colorf7c19b svgShape"/><g class="color000000 svgShape"><polygon fill="#c3c2d6" points="913.8 1384.2 1250.3 1384.2 1335.3 1137.4 1000.2 1137.4" class="colorc2cbd6 svgShape"/><polygon fill="#a7a6bf" points="913.8 1405.6 1244.7 1405.6 1250.3 1384.2 913.8 1384.2" class="colora6b1bf svgShape"/><rect width="237.6" height="21.3" x="676.2" y="1384.2" fill="#c3c2d6" class="colorc2cbd6 svgShape"/><path fill="#ececf1" d="M1095.9,1260.8c0,15.9,12.9,28.7,28.7,28.7s28.7-12.8,28.7-28.7c0-15.9-12.9-28.7-28.7-28.7        C1108.7,1232.1,1095.9,1245,1095.9,1260.8z" class="colorecf0f1 svgShape"/></g><path fill="#a09bf7" d="M1208.1,1329.8c-3.7,2.6-4.9,7.6-2.8,11.6c6.4,12.5,18.8,32.5,18.8,32.5l-21.1-20.1      c-3.2-3.1-8.4-2.8-11.3,0.6l0,0c-2.5,3-2.4,7.3,0.2,10.2l17.9,19.5l-21.5-8.3c-6.5-2.5-13.6,1.5-14.9,8.3l0,0      c-0.6,3.4,0.3,6.8,2.6,9.4c7.8,8.9,27.8,28.9,54.5,31.2c13.3,1.2,27.1-9.2,30.7-22.1l6.3-22.9c5-18.1,1.2-34.1-9.1-45.7      l-10.5-11.7c-3.3-3.7-8.8-4.3-12.8-1.4l0,0c-3.4,2.4-4.8,6.7-3.7,10.6l9.4,32.1l-19.7-31.3      C1218.4,1327.9,1212.4,1326.8,1208.1,1329.8L1208.1,1329.8z" class="colorf7c19b svgShape"/><g class="color000000 svgShape"><path fill="#a09bf7" d="M758.3,955.7l-0.1-23.9l-36.6-13.2L674.4,901l-3.2,9l0.4,46.3c0.2,23.3,18.7,42.2,41.9,43l0,0      C738.1,1000,758.4,980.3,758.3,955.7z" class="colorf7c19b svgShape"/><path fill="#333" d="M796.5,839.9c0,0,26.3-17,25.5-53.1c0,0,18.7-32.8,1.3-65.6c-5-9.4-12.5-17.2-21.2-23.3      c-20.9-14.4-75.7-47.1-104-16.3c0,0-106.5-5.4-77.5,137.2c0,0,1.9,19,21.3,66l71.8-21.2L796.5,839.9z" class="color333333 svgShape"/><path fill="#a09bf7" d="M808.9,768.1c0,0,31.2,164.9-45.1,177c0,0-77,12.9-113.3-59c0,0-23.8,6.3-29.9-25.2      c-1.4-7.1,0.5-14.6,5.9-19.4c6.3-5.6,16.6-7.1,30.9,16c0,0,31.3-44,25.2-75.2c0,0,58.5,1.4,78.1-23.8      C775.3,769.8,791.6,771.8,808.9,768.1z" class="colorf7c19b svgShape"/></g></g><g class="color000000 svgShape"><polygon fill="#414051" points="1352.2 765.9 1340 767.3 1308 531 1320.3 529.6" class="color404251 svgShape"/><path fill="#e1e1e8" d="M1628.5,732.6h-556.2c-19,0-34.4,13.7-34.4,30.5v230c0,16.9,15.4,30.5,34.4,30.5h556.2      c19,0,34.4-13.7,34.4-30.5v-230C1663,746.3,1647.6,732.6,1628.5,732.6z M1350.4,778.7c-8.6,0-15.5-6.1-15.5-13.7      c0-7.6,6.9-13.7,15.5-13.7c8.5,0,15.5,6.1,15.5,13.7C1365.9,772.6,1359,778.7,1350.4,778.7z" class="colore1e3e8 svgShape"/><polygon fill="#414051" points="1352.2 765.9 1340 767.3 1377.9 692.7 1389.4 697" class="color404251 svgShape"/><g class="color000000 svgShape"><path fill="#342bcc" d="M1258.8,879.1l-14.6-25.3h-7.9v25.3h-10.4v-63.3h21.9c4.9,0,9,0.8,12.3,2.5s5.9,4,7.6,6.8       c1.7,2.9,2.5,6,2.5,9.6c0,4.1-1.2,7.9-3.6,11.2s-6.1,5.7-11.1,6.9l15.7,26.2L1258.8,879.1L1258.8,879.1z M1236.3,845.4h11.5       c3.9,0,6.8-1,8.8-2.9c2-2,3-4.6,3-7.8c0-3.3-1-5.8-2.9-7.7c-1.9-1.8-4.9-2.8-8.8-2.8h-11.5V845.4z" class="color2b91cc svgShape"/><path fill="#342bcc" d="M1293.9,824.1v18.6h21.9v8.5h-21.9v19.4h24.6v8.5h-35v-63.4h35v8.5L1293.9,824.1L1293.9,824.1z" class="color2b91cc svgShape"/><path fill="#342bcc" d="M1340.7,877.5c-3.4-1.5-6.1-3.6-8-6.3c-1.9-2.7-2.9-5.9-2.9-9.6h11.1c0.2,2.7,1.3,5,3.2,6.7       s4.6,2.6,8.1,2.6c3.6,0,6.4-0.9,8.4-2.6c2-1.7,3-4,3-6.7c0-2.1-0.6-3.9-1.9-5.2c-1.2-1.3-2.8-2.4-4.7-3.1       c-1.8-0.7-4.4-1.5-7.7-2.4c-4.1-1.1-7.5-2.2-10.1-3.3c-2.6-1.1-4.8-2.9-6.6-5.2s-2.7-5.5-2.7-9.5c0-3.6,0.9-6.8,2.7-9.6       s4.4-4.8,7.7-6.3c3.3-1.5,7.1-2.2,11.4-2.2c6.1,0,11.2,1.5,15.1,4.6c3.9,3.1,6.1,7.3,6.5,12.6h-11.5c-0.2-2.3-1.3-4.3-3.3-5.9       s-4.7-2.5-7.9-2.5c-3,0-5.4,0.8-7.3,2.3s-2.8,3.7-2.8,6.6c0,1.9,0.6,3.5,1.8,4.8c1.2,1.2,2.7,2.2,4.5,3       c1.8,0.7,4.3,1.5,7.5,2.4c4.2,1.2,7.6,2.3,10.2,3.5c2.6,1.2,4.9,2.9,6.7,5.3s2.8,5.6,2.8,9.6c0,3.2-0.9,6.3-2.6,9.1       c-1.7,2.9-4.2,5.2-7.6,6.9s-7.2,2.6-11.7,2.6C1347.9,879.7,1344.1,879,1340.7,877.5z" class="color2b91cc svgShape"/><path fill="#342bcc" d="M1396.7,824.1v18.6h21.9v8.5h-21.9v19.4h24.6v8.5h-35v-63.4h35v8.5L1396.7,824.1L1396.7,824.1z" class="color2b91cc svgShape"/><path fill="#342bcc" d="M1475,815.7v8.5h-16.9v54.9h-10.4v-54.9h-16.9v-8.5H1475z" class="color2b91cc svgShape"/><g class="color000000 svgShape"><path fill="#342bcc" d="M1141.3,937.7c-1.5,2.9-3.9,5.2-7.3,7c-3.3,1.8-7.6,2.7-12.8,2.7h-11.5v25.7h-10.4v-63.3h21.9       c4.9,0,9,0.8,12.3,2.5s5.9,3.9,7.6,6.8s2.5,6,2.5,9.6C1143.6,931.8,1142.9,934.9,1141.3,937.7z M1130.1,936.2       c1.9-1.8,2.9-4.3,2.9-7.6c0-6.9-3.9-10.4-11.8-10.4h-11.5v20.7h11.5C1125.2,938.9,1128.1,938,1130.1,936.2z" class="color2b91cc svgShape"/><path fill="#342bcc" d="M1191.7,960.1h-26.5l-4.6,12.9h-10.8l22.7-63.4h12l22.7,63.4h-10.9L1191.7,960.1z M1188.8,951.7       l-10.3-29.4l-10.4,29.4H1188.8z" class="color2b91cc svgShape"/><path fill="#342bcc" d="M1226.5,971.5c-3.4-1.5-6.1-3.6-8-6.3c-1.9-2.7-2.9-5.9-2.9-9.6h11.1c0.2,2.7,1.3,5,3.2,6.7       s4.6,2.6,8.1,2.6c3.6,0,6.4-0.9,8.4-2.6c2-1.7,3-4,3-6.7c0-2.1-0.6-3.9-1.9-5.2c-1.2-1.3-2.8-2.4-4.7-3.1       c-1.8-0.7-4.4-1.5-7.7-2.4c-4.1-1.1-7.5-2.2-10.1-3.3c-2.6-1.1-4.8-2.9-6.6-5.2s-2.7-5.5-2.7-9.5c0-3.6,0.9-6.8,2.7-9.6       s4.4-4.8,7.7-6.3c3.3-1.5,7.1-2.2,11.4-2.2c6.1,0,11.2,1.5,15.1,4.6c3.9,3.1,6.1,7.3,6.5,12.6h-11.5c-0.2-2.3-1.3-4.3-3.3-5.9       s-4.7-2.5-7.9-2.5c-3,0-5.4,0.8-7.3,2.3s-2.8,3.7-2.8,6.6c0,1.9,0.6,3.5,1.8,4.8c1.2,1.2,2.7,2.2,4.5,3       c1.8,0.7,4.3,1.5,7.5,2.4c4.2,1.2,7.6,2.3,10.2,3.5c2.6,1.2,4.9,2.9,6.7,5.3s2.8,5.6,2.8,9.6c0,3.2-0.9,6.3-2.6,9.1       c-1.7,2.9-4.2,5.2-7.6,6.9s-7.2,2.6-11.7,2.6C1233.7,973.7,1229.9,973,1226.5,971.5z" class="color2b91cc svgShape"/><path fill="#342bcc" d="M1281.5,971.5c-3.4-1.5-6.1-3.6-8-6.3c-1.9-2.7-2.9-5.9-2.9-9.6h11.1c0.2,2.7,1.3,5,3.2,6.7       s4.6,2.6,8.1,2.6c3.6,0,6.4-0.9,8.4-2.6c2-1.7,3-4,3-6.7c0-2.1-0.6-3.9-1.9-5.2c-1.2-1.3-2.8-2.4-4.7-3.1       c-1.8-0.7-4.4-1.5-7.7-2.4c-4.1-1.1-7.5-2.2-10.1-3.3c-2.6-1.1-4.8-2.9-6.6-5.2s-2.7-5.5-2.7-9.5c0-3.6,0.9-6.8,2.7-9.6       s4.4-4.8,7.7-6.3c3.3-1.5,7.1-2.2,11.4-2.2c6.1,0,11.2,1.5,15.1,4.6c3.9,3.1,6.1,7.3,6.5,12.6h-11.5c-0.2-2.3-1.3-4.3-3.3-5.9       s-4.7-2.5-7.9-2.5c-3,0-5.4,0.8-7.3,2.3s-2.8,3.7-2.8,6.6c0,1.9,0.6,3.5,1.8,4.8c1.2,1.2,2.7,2.2,4.5,3       c1.8,0.7,4.3,1.5,7.5,2.4c4.2,1.2,7.6,2.3,10.2,3.5c2.6,1.2,4.9,2.9,6.7,5.3s2.8,5.6,2.8,9.6c0,3.2-0.9,6.3-2.6,9.1       c-1.7,2.9-4.2,5.2-7.6,6.9s-7.2,2.6-11.7,2.6C1288.7,973.7,1284.9,973,1281.5,971.5z" class="color2b91cc svgShape"/><path fill="#342bcc" d="M1409.6,909.7l-18.8,63.3h-11.8l-13.3-47.9l-14.1,47.9l-11.7,0.1l-17.9-63.4h11l13.1,51.6l14.2-51.6h11.7       l13.2,51.3l13.2-51.3L1409.6,909.7L1409.6,909.7z" class="color2b91cc svgShape"/><path fill="#342bcc" d="M1430.8,969.6c-4.9-2.8-8.9-6.6-11.8-11.6c-2.9-5-4.3-10.5-4.3-16.7c0-6.2,1.4-11.8,4.3-16.7       c2.9-4.9,6.8-8.8,11.8-11.5s10.4-4.2,16.3-4.2c5.9,0,11.4,1.4,16.4,4.2c4.9,2.8,8.8,6.6,11.7,11.5c2.9,4.9,4.3,10.5,4.3,16.7       c0,6.2-1.4,11.8-4.3,16.7c-2.9,5-6.8,8.8-11.7,11.6s-10.4,4.2-16.4,4.2C1441.2,973.7,1435.8,972.3,1430.8,969.6z M1458.3,961.8       c3.3-1.9,5.8-4.6,7.7-8.2c1.8-3.6,2.8-7.7,2.8-12.4c0-4.7-0.9-8.8-2.8-12.3c-1.8-3.5-4.4-6.2-7.7-8.1c-3.3-1.9-7-2.8-11.2-2.8       s-7.9,0.9-11.2,2.8c-3.3,1.9-5.8,4.6-7.7,8.1c-1.8,3.5-2.8,7.6-2.8,12.3s0.9,8.8,2.8,12.4c1.8,3.5,4.4,6.3,7.7,8.2       c3.3,1.9,7,2.9,11.2,2.9C1451.3,964.7,1455,963.7,1458.3,961.8z" class="color2b91cc svgShape"/><path fill="#342bcc" d="M1522.5,973.1l-14.6-25.3h-7.9v25.3h-10.4v-63.3h21.9c4.9,0,9,0.8,12.3,2.5s5.9,4,7.6,6.8       c1.7,2.9,2.5,6,2.5,9.6c0,4.1-1.2,7.9-3.6,11.2s-6.1,5.7-11.1,6.9l15.7,26.2L1522.5,973.1L1522.5,973.1z M1500,939.5h11.5       c3.9,0,6.8-1,8.8-2.9c2-2,3-4.6,3-7.8c0-3.3-1-5.8-2.9-7.7c-1.9-1.8-4.9-2.8-8.8-2.8H1500V939.5z" class="color2b91cc svgShape"/><path fill="#342bcc" d="M1585.7,913.6c5.1,2.6,9,6.3,11.8,11.1c2.8,4.8,4.2,10.5,4.2,16.9c0,6.4-1.4,12-4.2,16.8       c-2.8,4.7-6.7,8.4-11.8,10.9s-11,3.8-17.7,3.8h-20.7v-63.3h20.7C1574.7,909.7,1580.6,911,1585.7,913.6z M1585,958.6       c3.9-4,5.9-9.7,5.9-17c0-7.3-2-13.1-5.9-17.2c-3.9-4.1-9.6-6.2-17-6.2h-10.3v46.4h10.3C1575.3,964.6,1581,962.6,1585,958.6z" class="color2b91cc svgShape"/></g></g></g><g class="color000000 svgShape"><path fill="#5049bd" d="M1782,1782.6l-75.8,131.2l-75.8-131.2h61.6c0-160.7-130.7-291.4-291.4-291.4v-28.2      c43.2,0,85,8.5,124.4,25.1c38.1,16.1,72.3,39.2,101.6,68.5s52.4,63.5,68.5,101.6c16.7,39.4,25.1,81.3,25.1,124.4L1782,1782.6      L1782,1782.6z" class="color49bda0 svgShape"/><path fill="#5049bd" d="M1047.4,1783.1l75.8-131.2l75.8,131.2h-61.6c0,160.7,130.7,291.4,291.4,291.4v28.2      c-43.2,0-85-8.5-124.4-25.1c-38.1-16.1-72.3-39.2-101.6-68.5s-52.4-63.5-68.5-101.6c-16.7-39.4-25.1-81.3-25.1-124.4      L1047.4,1783.1L1047.4,1783.1z" class="color49bda0 svgShape"/></g><g class="color000000 svgShape"><circle cx="1414.7" cy="1782.9" r="172.1" fill="#463bfb" class="colorfbb03b svgShape"/><circle cx="1414.7" cy="1782.9" r="152.9" fill="#fff" class="colorffffff svgShape"/><path fill="#636186" d="M1465.9,1747.6h-9.7v-22.5c0-23.3-18.6-42.3-41.4-42.3s-41.4,19-41.4,42.3v22.5h-9.7v-22.5       c0-28.8,22.9-52.2,51.1-52.2c28.2,0,51.1,23.4,51.1,52.2L1465.9,1747.6L1465.9,1747.6z" class="color617586 svgShape"/><path fill="#463bfb" d="M1479.9,1863.4h-130.3c-2.7,0-4.9-2.2-4.9-4.9v-107.6c0-2.7,2.2-4.9,4.9-4.9h130.3        c2.7,0,4.9,2.2,4.9,4.9v107.6C1484.8,1861.2,1482.6,1863.4,1479.9,1863.4z" class="colorfbb03b svgShape"/><path fill="#fff" d="M1402.2,1826.3l4.6-22.8c-2.3-2.2-3.8-5.2-3.8-8.7c0-6.5,5.3-11.8,11.8-11.8c6.5,0,11.8,5.3,11.8,11.8        c0,3.4-1.5,6.5-3.8,8.7l4.6,22.8H1402.2z" class="colorffffff svgShape"/></g></svg>