<svg xmlns="http://www.w3.org/2000/svg" xmlns:xlink="http://www.w3.org/1999/xlink" enable-background="new 0 0 850 850" viewBox="0 0 850 850" width="850" height="850"><rect width="427.64" height="253.64" x="277.94" y="418.97" fill="#d5d2ff" class="colorfff3d2 svgShape"/><rect width="229.41" height="2.71" x="240.83" y="589.88" fill="#0f00ff" class="colorffc800 svgShape" transform="rotate(-46.346 355.524 591.242)"/><rect width="2.71" height="230.98" x="627.24" y="471.04" fill="#0f00ff" class="colorffc800 svgShape" transform="rotate(-41.807 628.572 586.532)"/><defs><filter id="a" width="427.64" height="253.64" x="277.94" y="418.97" filterUnits="userSpaceOnUse"><feFlood flood-color="#fff" flood-opacity="1" result="back"/><feBlend in="SourceGraphic" in2="back"/></filter></defs><mask id="b" width="427.64" height="253.64" x="277.94" y="418.97" maskUnits="userSpaceOnUse"><g filter="url(#a)"><rect width="427.64" height="253.64" x="277.81" y="418.33" fill="#71c5f3"/></g></mask><g class="color000000 svgShape" mask="url(#b)" opacity=".4"><defs><rect id="c" width="427.64" height="253.64" x="277.94" y="418.97"/></defs><clipPath id="d"><use class="color000000 svgShape" overflow="visible" xlink:href="#c"/></clipPath><rect width="427.64" height="110.29" x="277.94" y="418.97" fill="#fff" class="colorffffff svgShape" clip-path="url(#d)"/><rect width="427.64" height=".54" x="277.94" y="529.26" fill="#fff" class="colorffffff svgShape" clip-path="url(#d)"/><rect width="427.64" height=".54" x="277.94" y="529.8" fill="#fff" class="colorffffff svgShape" clip-path="url(#d)"/><rect width="427.64" height=".54" x="277.94" y="530.33" fill="#fff" class="colorffffff svgShape" clip-path="url(#d)"/><rect width="427.64" height=".54" x="277.94" y="530.87" fill="#fff" class="colorffffff svgShape" clip-path="url(#d)"/><rect width="427.64" height=".54" x="277.94" y="531.41" fill="#fff" class="colorffffff svgShape" clip-path="url(#d)"/><rect width="427.64" height=".54" x="277.94" y="531.95" fill="#fff" class="colorffffff svgShape" clip-path="url(#d)"/><rect width="427.64" height=".54" x="277.94" y="532.48" fill="#fff" class="colorffffff svgShape" clip-path="url(#d)"/><rect width="427.64" height=".54" x="277.94" y="533.02" fill="#fff" class="colorffffff svgShape" clip-path="url(#d)"/><rect width="427.64" height=".54" x="277.94" y="533.56" fill="#fff" class="colorffffff svgShape" clip-path="url(#d)"/><rect width="427.64" height=".54" x="277.94" y="534.09" fill="#fff" class="colorffffff svgShape" clip-path="url(#d)"/><rect width="427.64" height=".54" x="277.94" y="534.63" fill="#fff" class="colorffffff svgShape" clip-path="url(#d)"/><rect width="427.64" height=".54" x="277.94" y="535.17" fill="#fff" class="colorffffff svgShape" clip-path="url(#d)"/><rect width="427.64" height=".54" x="277.94" y="535.7" fill="#fff" class="colorffffff svgShape" clip-path="url(#d)"/><rect width="427.64" height=".54" x="277.94" y="536.24" fill="#fefeff" class="colorfeffff svgShape" clip-path="url(#d)"/><rect width="427.64" height=".54" x="277.94" y="536.78" fill="#fefeff" class="colorfeffff svgShape" clip-path="url(#d)"/><rect width="427.64" height=".54" x="277.94" y="537.31" fill="#fefeff" class="colorfefeff svgShape" clip-path="url(#d)"/><rect width="427.64" height=".54" x="277.94" y="537.85" fill="#fefeff" class="colorfefeff svgShape" clip-path="url(#d)"/><rect width="427.64" height=".54" x="277.94" y="538.39" fill="#fefeff" class="colorfefeff svgShape" clip-path="url(#d)"/><rect width="427.64" height=".54" x="277.94" y="538.92" fill="#fefeff" class="colorfefeff svgShape" clip-path="url(#d)"/><rect width="427.64" height=".54" x="277.94" y="539.46" fill="#fefeff" class="colorfefeff svgShape" clip-path="url(#d)"/><rect width="427.64" height=".54" x="277.94" y="540" fill="#fefeff" class="colorfefeff svgShape" clip-path="url(#d)"/><rect width="427.64" height=".54" x="277.94" y="540.54" fill="#fdfdff" class="colorfdfeff svgShape" clip-path="url(#d)"/><rect width="427.64" height=".54" x="277.94" y="541.07" fill="#fdfdff" class="colorfdfeff svgShape" clip-path="url(#d)"/><rect width="427.64" height=".54" x="277.94" y="541.61" fill="#fdfdfe" class="colorfdfefe svgShape" clip-path="url(#d)"/><rect width="427.64" height=".54" x="277.94" y="542.15" fill="#fdfdfe" class="colorfdfefe svgShape" clip-path="url(#d)"/><rect width="427.64" height=".54" x="277.94" y="542.68" fill="#fdfdfe" class="colorfdfdfe svgShape" clip-path="url(#d)"/><rect width="427.64" height=".54" x="277.94" y="543.22" fill="#fdfdfe" class="colorfdfdfe svgShape" clip-path="url(#d)"/><rect width="427.64" height=".54" x="277.94" y="543.76" fill="#fcfcfe" class="colorfcfdfe svgShape" clip-path="url(#d)"/><rect width="427.64" height=".54" x="277.94" y="544.29" fill="#fcfcfe" class="colorfcfdfe svgShape" clip-path="url(#d)"/><rect width="427.64" height=".54" x="277.94" y="544.83" fill="#fcfcfe" class="colorfcfdfe svgShape" clip-path="url(#d)"/><rect width="427.64" height=".54" x="277.94" y="545.37" fill="#fcfcfe" class="colorfcfdfe svgShape" clip-path="url(#d)"/><rect width="427.64" height=".54" x="277.94" y="545.9" fill="#fcfcfe" class="colorfcfdfe svgShape" clip-path="url(#d)"/><rect width="427.64" height=".54" x="277.94" y="546.44" fill="#fbfbfe" class="colorfbfcfe svgShape" clip-path="url(#d)"/><rect width="427.64" height=".54" x="277.94" y="546.98" fill="#fbfbfe" class="colorfbfcfe svgShape" clip-path="url(#d)"/><rect width="427.64" height=".54" x="277.94" y="547.52" fill="#fbfbfe" class="colorfbfcfe svgShape" clip-path="url(#d)"/><rect width="427.64" height=".54" x="277.94" y="548.05" fill="#fbfbfe" class="colorfbfcfe svgShape" clip-path="url(#d)"/><rect width="427.64" height=".54" x="277.94" y="548.59" fill="#fafafe" class="colorfafcfe svgShape" clip-path="url(#d)"/><rect width="427.64" height=".54" x="277.94" y="549.13" fill="#fafafe" class="colorfafcfe svgShape" clip-path="url(#d)"/><rect width="427.64" height=".54" x="277.94" y="549.66" fill="#fafafd" class="colorfafbfd svgShape" clip-path="url(#d)"/><rect width="427.64" height=".54" x="277.94" y="550.2" fill="#fafafd" class="colorfafbfd svgShape" clip-path="url(#d)"/><rect width="427.64" height=".54" x="277.94" y="550.74" fill="#f9f9fd" class="colorf9fbfd svgShape" clip-path="url(#d)"/><rect width="427.64" height=".54" x="277.94" y="551.27" fill="#f9f9fd" class="colorf9fbfd svgShape" clip-path="url(#d)"/><rect width="427.64" height=".54" x="277.94" y="551.81" fill="#f9f9fd" class="colorf9fbfd svgShape" clip-path="url(#d)"/><rect width="427.64" height=".54" x="277.94" y="552.35" fill="#f8f8fd" class="colorf8fafd svgShape" clip-path="url(#d)"/><rect width="427.64" height=".54" x="277.94" y="552.88" fill="#f8f8fd" class="colorf8fafd svgShape" clip-path="url(#d)"/><rect width="427.64" height=".54" x="277.94" y="553.42" fill="#f8f8fd" class="colorf8fafd svgShape" clip-path="url(#d)"/><rect width="427.64" height=".54" x="277.94" y="553.96" fill="#f7f7fd" class="colorf7fafd svgShape" clip-path="url(#d)"/><rect width="427.64" height=".54" x="277.94" y="554.5" fill="#f7f7fd" class="colorf7f9fd svgShape" clip-path="url(#d)"/><rect width="427.64" height=".54" x="277.94" y="555.03" fill="#f7f7fd" class="colorf7f9fd svgShape" clip-path="url(#d)"/><rect width="427.64" height=".54" x="277.94" y="555.57" fill="#f6f6fc" class="colorf6f9fc svgShape" clip-path="url(#d)"/><rect width="427.64" height=".54" x="277.94" y="556.11" fill="#f6f6fc" class="colorf6f9fc svgShape" clip-path="url(#d)"/><rect width="427.64" height=".54" x="277.94" y="556.64" fill="#f6f6fc" class="colorf6f8fc svgShape" clip-path="url(#d)"/><rect width="427.64" height=".54" x="277.94" y="557.18" fill="#f5f5fc" class="colorf5f8fc svgShape" clip-path="url(#d)"/><rect width="427.64" height=".54" x="277.94" y="557.72" fill="#f5f5fc" class="colorf5f8fc svgShape" clip-path="url(#d)"/><rect width="427.64" height=".54" x="277.94" y="558.25" fill="#f4f4fc" class="colorf4f8fc svgShape" clip-path="url(#d)"/><rect width="427.64" height=".54" x="277.94" y="558.79" fill="#f4f4fc" class="colorf4f7fc svgShape" clip-path="url(#d)"/><rect width="427.64" height=".54" x="277.94" y="559.33" fill="#f4f4fc" class="colorf4f7fc svgShape" clip-path="url(#d)"/><rect width="427.64" height=".54" x="277.94" y="559.86" fill="#f3f3fb" class="colorf3f7fb svgShape" clip-path="url(#d)"/><rect width="427.64" height=".54" x="277.94" y="560.4" fill="#f3f3fb" class="colorf3f6fb svgShape" clip-path="url(#d)"/><rect width="427.64" height=".54" x="277.94" y="560.94" fill="#f3f2fb" class="colorf2f6fb svgShape" clip-path="url(#d)"/><rect width="427.64" height=".54" x="277.94" y="561.47" fill="#f3f2fb" class="colorf2f6fb svgShape" clip-path="url(#d)"/><rect width="427.64" height=".54" x="277.94" y="562.01" fill="#f2f1fb" class="colorf1f5fb svgShape" clip-path="url(#d)"/><rect width="427.64" height=".54" x="277.94" y="562.55" fill="#f2f1fb" class="colorf1f5fb svgShape" clip-path="url(#d)"/><rect width="427.64" height=".54" x="277.94" y="563.09" fill="#f2f1fb" class="colorf1f5fb svgShape" clip-path="url(#d)"/><rect width="427.64" height=".54" x="277.94" y="563.62" fill="#f1f0fb" class="colorf0f4fb svgShape" clip-path="url(#d)"/><rect width="427.64" height=".54" x="277.94" y="564.16" fill="#f1f0fa" class="colorf0f4fa svgShape" clip-path="url(#d)"/><rect width="427.64" height=".54" x="277.94" y="564.7" fill="#f0effa" class="coloreff4fa svgShape" clip-path="url(#d)"/><rect width="427.64" height=".54" x="277.94" y="565.23" fill="#f0effa" class="coloreff3fa svgShape" clip-path="url(#d)"/><rect width="427.64" height=".54" x="277.94" y="565.77" fill="#efeefa" class="coloreef3fa svgShape" clip-path="url(#d)"/><rect width="427.64" height=".54" x="277.94" y="566.31" fill="#efeefa" class="coloreef3fa svgShape" clip-path="url(#d)"/><rect width="427.64" height=".54" x="277.94" y="566.84" fill="#eeedfa" class="coloredf2fa svgShape" clip-path="url(#d)"/><rect width="427.64" height=".54" x="277.94" y="567.38" fill="#eeedf9" class="coloredf2f9 svgShape" clip-path="url(#d)"/><rect width="427.64" height=".54" x="277.94" y="567.92" fill="#edecf9" class="colorecf2f9 svgShape" clip-path="url(#d)"/><rect width="427.64" height=".54" x="277.94" y="568.45" fill="#ecebf9" class="colorebf1f9 svgShape" clip-path="url(#d)"/><rect width="427.64" height=".54" x="277.94" y="568.99" fill="#ecebf9" class="colorebf1f9 svgShape" clip-path="url(#d)"/><rect width="427.64" height=".54" x="277.94" y="569.53" fill="#ebeaf9" class="coloreaf0f9 svgShape" clip-path="url(#d)"/><rect width="427.64" height=".54" x="277.94" y="570.07" fill="#ebeaf9" class="coloreaf0f9 svgShape" clip-path="url(#d)"/><rect width="427.64" height=".54" x="277.94" y="570.6" fill="#eae9f8" class="colore9f0f8 svgShape" clip-path="url(#d)"/><rect width="427.64" height=".54" x="277.94" y="571.14" fill="#eae9f8" class="colore9eff8 svgShape" clip-path="url(#d)"/><rect width="427.64" height=".54" x="277.94" y="571.68" fill="#e9e8f8" class="colore8eff8 svgShape" clip-path="url(#d)"/><rect width="427.64" height=".54" x="277.94" y="572.21" fill="#e8e7f8" class="colore7eef8 svgShape" clip-path="url(#d)"/><rect width="427.64" height=".54" x="277.94" y="572.75" fill="#e8e7f8" class="colore7eef8 svgShape" clip-path="url(#d)"/><rect width="427.64" height=".54" x="277.94" y="573.29" fill="#e7e6f8" class="colore6edf8 svgShape" clip-path="url(#d)"/><rect width="427.64" height=".54" x="277.94" y="573.82" fill="#e7e6f7" class="colore6edf7 svgShape" clip-path="url(#d)"/><rect width="427.64" height=".54" x="277.94" y="574.36" fill="#e6e5f7" class="colore5edf7 svgShape" clip-path="url(#d)"/><rect width="427.64" height=".54" x="277.94" y="574.9" fill="#e5e4f7" class="colore4ecf7 svgShape" clip-path="url(#d)"/><rect width="427.64" height=".54" x="277.94" y="575.43" fill="#e5e4f7" class="colore4ecf7 svgShape" clip-path="url(#d)"/><rect width="427.64" height=".54" x="277.94" y="575.97" fill="#e4e3f7" class="colore3ebf7 svgShape" clip-path="url(#d)"/><rect width="427.64" height=".54" x="277.94" y="576.51" fill="#e3e2f6" class="colore2ebf6 svgShape" clip-path="url(#d)"/><rect width="427.64" height=".54" x="277.94" y="577.04" fill="#e3e2f6" class="colore2eaf6 svgShape" clip-path="url(#d)"/><rect width="427.64" height=".54" x="277.94" y="577.58" fill="#e2e1f6" class="colore1eaf6 svgShape" clip-path="url(#d)"/><rect width="427.64" height=".54" x="277.94" y="578.12" fill="#e1e0f6" class="colore0e9f6 svgShape" clip-path="url(#d)"/><rect width="427.64" height=".54" x="277.94" y="578.66" fill="#e0dff6" class="colordfe9f6 svgShape" clip-path="url(#d)"/><rect width="427.64" height=".54" x="277.94" y="579.19" fill="#e0dff5" class="colordfe8f5 svgShape" clip-path="url(#d)"/><rect width="427.64" height=".54" x="277.94" y="579.73" fill="#dfdef5" class="colordee8f5 svgShape" clip-path="url(#d)"/><rect width="427.64" height=".54" x="277.94" y="580.27" fill="#deddf5" class="colordde7f5 svgShape" clip-path="url(#d)"/><rect width="427.64" height=".54" x="277.94" y="580.8" fill="#deddf5" class="colordde7f5 svgShape" clip-path="url(#d)"/><rect width="427.64" height=".54" x="277.94" y="581.34" fill="#dddcf5" class="colordce6f5 svgShape" clip-path="url(#d)"/><rect width="427.64" height=".54" x="277.94" y="581.88" fill="#dcdbf4" class="colordbe6f4 svgShape" clip-path="url(#d)"/><rect width="427.64" height=".54" x="277.94" y="582.41" fill="#dbdaf4" class="colordae5f4 svgShape" clip-path="url(#d)"/><rect width="427.64" height=".54" x="277.94" y="582.95" fill="#dbdaf4" class="colordae5f4 svgShape" clip-path="url(#d)"/><rect width="427.64" height=".54" x="277.94" y="583.49" fill="#dbd9f4" class="colord9e4f4 svgShape" clip-path="url(#d)"/><rect width="427.64" height=".54" x="277.94" y="584.02" fill="#dad8f3" class="colord8e3f3 svgShape" clip-path="url(#d)"/><rect width="427.64" height=".54" x="277.94" y="584.56" fill="#d9d7f3" class="colord7e3f3 svgShape" clip-path="url(#d)"/><rect width="427.64" height=".54" x="277.94" y="585.1" fill="#d8d6f3" class="colord6e2f3 svgShape" clip-path="url(#d)"/><rect width="427.64" height=".54" x="277.94" y="585.64" fill="#d8d6f3" class="colord6e2f3 svgShape" clip-path="url(#d)"/><rect width="427.64" height=".54" x="277.94" y="586.17" fill="#d7d5f2" class="colord5e1f2 svgShape" clip-path="url(#d)"/><rect width="427.64" height=".54" x="277.94" y="586.71" fill="#d6d4f2" class="colord4e1f2 svgShape" clip-path="url(#d)"/><rect width="427.64" height=".54" x="277.94" y="587.25" fill="#d5d3f2" class="colord3e0f2 svgShape" clip-path="url(#d)"/><rect width="427.64" height=".54" x="277.94" y="587.78" fill="#d4d2f2" class="colord2dff2 svgShape" clip-path="url(#d)"/><rect width="427.64" height=".54" x="277.94" y="588.32" fill="#d3d1f1" class="colord1dff1 svgShape" clip-path="url(#d)"/><rect width="427.64" height=".54" x="277.94" y="588.86" fill="#d3d1f1" class="colord1def1 svgShape" clip-path="url(#d)"/><rect width="427.64" height=".54" x="277.94" y="589.39" fill="#d2d0f1" class="colord0def1 svgShape" clip-path="url(#d)"/><rect width="427.64" height=".54" x="277.94" y="589.93" fill="#d1cff1" class="colorcfddf1 svgShape" clip-path="url(#d)"/><rect width="427.64" height=".54" x="277.94" y="590.47" fill="#d0cef0" class="colorcedcf0 svgShape" clip-path="url(#d)"/><rect width="427.64" height=".54" x="277.94" y="591" fill="#cfcdf0" class="colorcddcf0 svgShape" clip-path="url(#d)"/><rect width="427.64" height=".54" x="277.94" y="591.54" fill="#ceccf0" class="colorccdbf0 svgShape" clip-path="url(#d)"/><rect width="427.64" height=".54" x="277.94" y="592.08" fill="#cdcbf0" class="colorcbdbf0 svgShape" clip-path="url(#d)"/><rect width="427.64" height=".54" x="277.94" y="592.61" fill="#cccaef" class="colorcadaef svgShape" clip-path="url(#d)"/><rect width="427.64" height=".54" x="277.94" y="593.15" fill="#cbc9ef" class="colorc9d9ef svgShape" clip-path="url(#d)"/><rect width="427.64" height=".54" x="277.94" y="593.69" fill="#cbc9ef" class="colorc9d9ef svgShape" clip-path="url(#d)"/><rect width="427.64" height=".54" x="277.94" y="594.23" fill="#cac8ee" class="colorc8d8ee svgShape" clip-path="url(#d)"/><rect width="427.64" height=".54" x="277.94" y="594.76" fill="#c9c7ee" class="colorc7d7ee svgShape" clip-path="url(#d)"/><rect width="427.64" height=".54" x="277.94" y="595.3" fill="#c8c6ee" class="colorc6d7ee svgShape" clip-path="url(#d)"/><rect width="427.64" height=".54" x="277.94" y="595.84" fill="#c7c5ee" class="colorc5d6ee svgShape" clip-path="url(#d)"/><rect width="427.64" height=".54" x="277.94" y="596.37" fill="#c6c4ed" class="colorc4d5ed svgShape" clip-path="url(#d)"/><rect width="427.64" height=".54" x="277.94" y="596.91" fill="#c5c3ed" class="colorc3d5ed svgShape" clip-path="url(#d)"/><rect width="427.64" height=".54" x="277.94" y="597.45" fill="#c4c2ed" class="colorc2d4ed svgShape" clip-path="url(#d)"/><rect width="427.64" height=".54" x="277.94" y="597.98" fill="#c3c1ec" class="colorc1d3ec svgShape" clip-path="url(#d)"/><rect width="427.64" height=".54" x="277.94" y="598.52" fill="#c3c0ec" class="colorc0d2ec svgShape" clip-path="url(#d)"/><rect width="427.64" height=".54" x="277.94" y="599.06" fill="#c2bfec" class="colorbfd2ec svgShape" clip-path="url(#d)"/><rect width="427.64" height=".54" x="277.94" y="599.59" fill="#c1beec" class="colorbed1ec svgShape" clip-path="url(#d)"/><rect width="427.64" height=".54" x="277.94" y="600.13" fill="#c0bdeb" class="colorbdd0eb svgShape" clip-path="url(#d)"/><rect width="427.64" height=".54" x="277.94" y="600.67" fill="#bfbceb" class="colorbcd0eb svgShape" clip-path="url(#d)"/><rect width="427.64" height=".54" x="277.94" y="601.21" fill="#bebbeb" class="colorbbcfeb svgShape" clip-path="url(#d)"/><rect width="427.64" height=".54" x="277.94" y="601.74" fill="#bdbaea" class="colorbaceea svgShape" clip-path="url(#d)"/><rect width="427.64" height=".54" x="277.94" y="602.28" fill="#bcb9ea" class="colorb9cdea svgShape" clip-path="url(#d)"/><rect width="427.64" height=".54" x="277.94" y="602.82" fill="#bab7ea" class="colorb7cdea svgShape" clip-path="url(#d)"/><rect width="427.64" height=".54" x="277.94" y="603.35" fill="#b9b6e9" class="colorb6cce9 svgShape" clip-path="url(#d)"/><rect width="427.64" height=".54" x="277.94" y="603.89" fill="#b8b5e9" class="colorb5cbe9 svgShape" clip-path="url(#d)"/><rect width="427.64" height=".54" x="277.94" y="604.43" fill="#b7b4e9" class="colorb4cae9 svgShape" clip-path="url(#d)"/><rect width="427.64" height=".54" x="277.94" y="604.96" fill="#b6b3e8" class="colorb3c9e8 svgShape" clip-path="url(#d)"/><rect width="427.64" height=".54" x="277.94" y="605.5" fill="#b5b2e8" class="colorb2c9e8 svgShape" clip-path="url(#d)"/><rect width="427.64" height=".54" x="277.94" y="606.04" fill="#b4b1e8" class="colorb1c8e8 svgShape" clip-path="url(#d)"/><rect width="427.64" height=".54" x="277.94" y="606.57" fill="#b3b0e7" class="colorb0c7e7 svgShape" clip-path="url(#d)"/><rect width="427.64" height=".54" x="277.94" y="607.11" fill="#b2afe7" class="colorafc6e7 svgShape" clip-path="url(#d)"/><rect width="427.64" height=".54" x="277.94" y="607.65" fill="#b0ade7" class="coloradc5e7 svgShape" clip-path="url(#d)"/><rect width="427.64" height=".54" x="277.94" y="608.18" fill="#aface6" class="coloracc5e6 svgShape" clip-path="url(#d)"/><rect width="427.64" height=".54" x="277.94" y="608.72" fill="#aeabe6" class="colorabc4e6 svgShape" clip-path="url(#d)"/><rect width="427.64" height=".54" x="277.94" y="609.26" fill="#aeaae6" class="coloraac3e6 svgShape" clip-path="url(#d)"/><rect width="427.64" height=".54" x="277.94" y="609.8" fill="#aca9e5" class="colora9c2e5 svgShape" clip-path="url(#d)"/><rect width="427.64" height=".54" x="277.94" y="610.33" fill="#aca8e5" class="colora8c1e5 svgShape" clip-path="url(#d)"/><rect width="427.64" height=".54" x="277.94" y="610.87" fill="#aaa6e5" class="colora6c0e5 svgShape" clip-path="url(#d)"/><rect width="427.64" height=".54" x="277.94" y="611.41" fill="#a9a5e4" class="colora5c0e4 svgShape" clip-path="url(#d)"/><rect width="427.64" height=".54" x="277.94" y="611.94" fill="#a8a4e4" class="colora4bfe4 svgShape" clip-path="url(#d)"/><rect width="427.64" height=".54" x="277.94" y="612.48" fill="#a7a3e4" class="colora3bee4 svgShape" clip-path="url(#d)"/><rect width="427.64" height=".54" x="277.94" y="613.02" fill="#a6a2e3" class="colora2bde3 svgShape" clip-path="url(#d)"/><rect width="427.64" height=".54" x="277.94" y="613.55" fill="#a4a0e3" class="colora0bce3 svgShape" clip-path="url(#d)"/><rect width="427.64" height=".54" x="277.94" y="614.09" fill="#a39fe2" class="color9fbbe2 svgShape" clip-path="url(#d)"/><rect width="427.64" height=".54" x="277.94" y="614.63" fill="#a29ee2" class="color9ebae2 svgShape" clip-path="url(#d)"/><rect width="427.64" height=".54" x="277.94" y="615.16" fill="#a19de2" class="color9dbae2 svgShape" clip-path="url(#d)"/><rect width="427.64" height=".54" x="277.94" y="615.7" fill="#9f9be1" class="color9bb9e1 svgShape" clip-path="url(#d)"/><rect width="427.64" height=".54" x="277.94" y="616.24" fill="#9e9ae1" class="color9ab8e1 svgShape" clip-path="url(#d)"/><rect width="427.64" height=".54" x="277.94" y="616.78" fill="#9d99e1" class="color99b7e1 svgShape" clip-path="url(#d)"/><rect width="427.64" height=".54" x="277.94" y="617.31" fill="#9b97e0" class="color97b6e0 svgShape" clip-path="url(#d)"/><rect width="427.64" height=".54" x="277.94" y="617.85" fill="#9a96e0" class="color96b5e0 svgShape" clip-path="url(#d)"/><rect width="427.64" height=".54" x="277.94" y="618.39" fill="#9995df" class="color95b4df svgShape" clip-path="url(#d)"/><rect width="427.64" height=".54" x="277.94" y="618.92" fill="#9793df" class="color93b3df svgShape" clip-path="url(#d)"/><rect width="427.64" height=".54" x="277.94" y="619.46" fill="#9692df" class="color92b2df svgShape" clip-path="url(#d)"/><rect width="427.64" height=".54" x="277.94" y="620" fill="#9591de" class="color91b1de svgShape" clip-path="url(#d)"/><rect width="427.64" height=".54" x="277.94" y="620.53" fill="#948fde" class="color8fb0de svgShape" clip-path="url(#d)"/><rect width="427.64" height=".54" x="277.94" y="621.07" fill="#938edd" class="color8eafdd svgShape" clip-path="url(#d)"/><rect width="427.64" height=".54" x="277.94" y="621.61" fill="#928ddd" class="color8daedd svgShape" clip-path="url(#d)"/><rect width="427.64" height=".54" x="277.94" y="622.14" fill="#908bdd" class="color8baddd svgShape" clip-path="url(#d)"/><rect width="427.64" height=".54" x="277.94" y="622.68" fill="#8f8adc" class="color8aacdc svgShape" clip-path="url(#d)"/><rect width="427.64" height=".54" x="277.94" y="623.22" fill="#8e89dc" class="color89abdc svgShape" clip-path="url(#d)"/><rect width="427.64" height=".54" x="277.94" y="623.76" fill="#8c87db" class="color87aadb svgShape" clip-path="url(#d)"/><rect width="427.64" height=".54" x="277.94" y="624.29" fill="#8b86db" class="color86a9db svgShape" clip-path="url(#d)"/><rect width="427.64" height=".54" x="277.94" y="624.83" fill="#8984da" class="color84a8da svgShape" clip-path="url(#d)"/><rect width="427.64" height=".54" x="277.94" y="625.37" fill="#8883da" class="color83a7da svgShape" clip-path="url(#d)"/><rect width="427.64" height=".54" x="277.94" y="625.9" fill="#8782da" class="color82a6da svgShape" clip-path="url(#d)"/><rect width="427.64" height=".54" x="277.94" y="626.44" fill="#8580d9" class="color80a5d9 svgShape" clip-path="url(#d)"/><rect width="427.64" height=".54" x="277.94" y="626.98" fill="#847fd9" class="color7fa4d9 svgShape" clip-path="url(#d)"/><rect width="427.64" height=".54" x="277.94" y="627.51" fill="#827dd8" class="color7da3d8 svgShape" clip-path="url(#d)"/><rect width="427.64" height=".54" x="277.94" y="628.05" fill="#817cd8" class="color7ca2d8 svgShape" clip-path="url(#d)"/><rect width="427.64" height=".54" x="277.94" y="628.59" fill="#7f7ad7" class="color7aa1d7 svgShape" clip-path="url(#d)"/><rect width="427.64" height=".54" x="277.94" y="629.12" fill="#7e79d7" class="color79a0d7 svgShape" clip-path="url(#d)"/><rect width="427.64" height=".54" x="277.94" y="629.66" fill="#7d77d7" class="color779fd7 svgShape" clip-path="url(#d)"/><rect width="427.64" height=".54" x="277.94" y="630.2" fill="#7c76d6" class="color769ed6 svgShape" clip-path="url(#d)"/><rect width="427.64" height=".54" x="277.94" y="630.73" fill="#7a74d6" class="color749dd6 svgShape" clip-path="url(#d)"/><rect width="427.64" height=".54" x="277.94" y="631.27" fill="#7973d5" class="color739cd5 svgShape" clip-path="url(#d)"/><rect width="427.64" height=".54" x="277.94" y="631.81" fill="#7771d5" class="color719bd5 svgShape" clip-path="url(#d)"/><rect width="427.64" height=".54" x="277.94" y="632.35" fill="#7670d4" class="color709ad4 svgShape" clip-path="url(#d)"/><rect width="427.64" height=".54" x="277.94" y="632.88" fill="#746ed4" class="color6e99d4 svgShape" clip-path="url(#d)"/><rect width="427.64" height=".54" x="277.94" y="633.42" fill="#736dd3" class="color6d98d3 svgShape" clip-path="url(#d)"/><rect width="427.64" height=".54" x="277.94" y="633.96" fill="#716bd3" class="color6b97d3 svgShape" clip-path="url(#d)"/><rect width="427.64" height=".54" x="277.94" y="634.49" fill="#6f69d2" class="color6995d2 svgShape" clip-path="url(#d)"/><rect width="427.64" height=".54" x="277.94" y="635.03" fill="#6e68d2" class="color6894d2 svgShape" clip-path="url(#d)"/><rect width="427.64" height=".54" x="277.94" y="635.57" fill="#6c66d1" class="color6693d1 svgShape" clip-path="url(#d)"/><rect width="427.64" height=".54" x="277.94" y="636.1" fill="#6b65d1" class="color6592d1 svgShape" clip-path="url(#d)"/><rect width="427.64" height=".54" x="277.94" y="636.64" fill="#6963d1" class="color6391d1 svgShape" clip-path="url(#d)"/><rect width="427.64" height=".54" x="277.94" y="637.18" fill="#6862d0" class="color6290d0 svgShape" clip-path="url(#d)"/><rect width="427.64" height=".54" x="277.94" y="637.71" fill="#6760d0" class="color608fd0 svgShape" clip-path="url(#d)"/><rect width="427.64" height=".54" x="277.94" y="638.25" fill="#655ecf" class="color5e8ecf svgShape" clip-path="url(#d)"/><rect width="427.64" height=".54" x="277.94" y="638.79" fill="#645dcf" class="color5d8ccf svgShape" clip-path="url(#d)"/><rect width="427.64" height=".54" x="277.94" y="639.33" fill="#625bce" class="color5b8bce svgShape" clip-path="url(#d)"/><rect width="427.64" height=".54" x="277.94" y="639.86" fill="#6059ce" class="color598ace svgShape" clip-path="url(#d)"/><rect width="427.64" height=".54" x="277.94" y="640.4" fill="#5f58cd" class="color5889cd svgShape" clip-path="url(#d)"/><rect width="427.64" height=".54" x="277.94" y="640.94" fill="#5d56cd" class="color5688cd svgShape" clip-path="url(#d)"/><rect width="427.64" height=".54" x="277.94" y="641.47" fill="#5b54cc" class="color5487cc svgShape" clip-path="url(#d)"/><rect width="427.64" height=".54" x="277.94" y="642.01" fill="#5a53cc" class="color5385cc svgShape" clip-path="url(#d)"/><rect width="427.64" height=".54" x="277.94" y="642.55" fill="#5851cb" class="color5184cb svgShape" clip-path="url(#d)"/><rect width="427.64" height=".54" x="277.94" y="643.08" fill="#564fcb" class="color4f83cb svgShape" clip-path="url(#d)"/><rect width="427.64" height=".54" x="277.94" y="643.62" fill="#554eca" class="color4e82ca svgShape" clip-path="url(#d)"/><rect width="427.64" height=".54" x="277.94" y="644.16" fill="#534cca" class="color4c81ca svgShape" clip-path="url(#d)"/><rect width="427.64" height=".54" x="277.94" y="644.69" fill="#514ac9" class="color4a7fc9 svgShape" clip-path="url(#d)"/><rect width="427.64" height=".54" x="277.94" y="645.23" fill="#4f48c9" class="color487ec9 svgShape" clip-path="url(#d)"/><rect width="427.64" height=".54" x="277.94" y="645.77" fill="#4f47c8" class="color477dc8 svgShape" clip-path="url(#d)"/><rect width="427.64" height=".54" x="277.94" y="646.3" fill="#4d45c8" class="color457cc8 svgShape" clip-path="url(#d)"/><rect width="427.64" height=".54" x="277.94" y="646.84" fill="#5951da" class="color437ac7 svgShape" clip-path="url(#d)"/><rect width="427.64" height=".54" x="277.94" y="647.38" fill="#4941c6" class="color4179c6 svgShape" clip-path="url(#d)"/><rect width="427.64" height=".54" x="277.94" y="647.92" fill="#4840c6" class="color4078c6 svgShape" clip-path="url(#d)"/><rect width="427.64" height=".54" x="277.94" y="648.45" fill="#463ec5" class="color3e77c5 svgShape" clip-path="url(#d)"/><rect width="427.64" height=".54" x="277.94" y="648.99" fill="#443cc5" class="color3c75c5 svgShape" clip-path="url(#d)"/><rect width="427.64" height=".54" x="277.94" y="649.53" fill="#423ac4" class="color3a74c4 svgShape" clip-path="url(#d)"/><rect width="427.64" height=".54" x="277.94" y="650.06" fill="#4038c4" class="color3873c4 svgShape" clip-path="url(#d)"/><rect width="427.64" height=".54" x="277.94" y="650.6" fill="#3f37c3" class="color3771c3 svgShape" clip-path="url(#d)"/><rect width="427.64" height=".54" x="277.94" y="651.14" fill="#3d35c3" class="color3570c3 svgShape" clip-path="url(#d)"/><rect width="427.64" height=".54" x="277.94" y="651.67" fill="#3b33c2" class="color336fc2 svgShape" clip-path="url(#d)"/><rect width="427.64" height=".54" x="277.94" y="652.21" fill="#3931c2" class="color316ec2 svgShape" clip-path="url(#d)"/><rect width="427.64" height=".54" x="277.94" y="652.75" fill="#382fc1" class="color2f6cc1 svgShape" clip-path="url(#d)"/><rect width="427.64" height=".54" x="277.94" y="653.28" fill="#362dc0" class="color2d6bc0 svgShape" clip-path="url(#d)"/><rect width="427.64" height=".54" x="277.94" y="653.82" fill="#342bc0" class="color2b6ac0 svgShape" clip-path="url(#d)"/><rect width="427.64" height=".54" x="277.94" y="654.36" fill="#332abf" class="color2a68bf svgShape" clip-path="url(#d)"/><rect width="427.64" height=".54" x="277.94" y="654.9" fill="#3128bf" class="color2867bf svgShape" clip-path="url(#d)"/><rect width="427.64" height=".54" x="277.94" y="655.43" fill="#2f26be" class="color2666be svgShape" clip-path="url(#d)"/><rect width="427.64" height=".54" x="277.94" y="655.97" fill="#2d24be" class="color2464be svgShape" clip-path="url(#d)"/><rect width="427.64" height=".54" x="277.94" y="656.51" fill="#2b22bd" class="color2263bd svgShape" clip-path="url(#d)"/><rect width="427.64" height=".54" x="277.94" y="657.04" fill="#2920bd" class="color2062bd svgShape" clip-path="url(#d)"/><rect width="427.64" height=".54" x="277.94" y="657.58" fill="#271ebc" class="color1e60bc svgShape" clip-path="url(#d)"/><rect width="427.64" height=".54" x="277.94" y="658.12" fill="#251cbb" class="color1c5fbb svgShape" clip-path="url(#d)"/><rect width="427.64" height=".54" x="277.94" y="658.65" fill="#231abb" class="color1a5dbb svgShape" clip-path="url(#d)"/><rect width="427.64" height=".54" x="277.94" y="659.19" fill="#2118ba" class="color185cba svgShape" clip-path="url(#d)"/><rect width="427.64" height=".54" x="277.94" y="659.73" fill="#2016ba" class="color165bba svgShape" clip-path="url(#d)"/><rect width="427.64" height=".54" x="277.94" y="660.26" fill="#1e14b9" class="color1459b9 svgShape" clip-path="url(#d)"/><rect width="427.64" height=".54" x="277.94" y="660.8" fill="#1c12b8" class="color1258b8 svgShape" clip-path="url(#d)"/><rect width="427.64" height=".54" x="277.94" y="661.34" fill="#1a10b8" class="color1056b8 svgShape" clip-path="url(#d)"/><rect width="427.64" height=".54" x="277.94" y="661.87" fill="#180eb7" class="color0e55b7 svgShape" clip-path="url(#d)"/><rect width="427.64" height=".54" x="277.94" y="662.41" fill="#160cb7" class="color0c54b7 svgShape" clip-path="url(#d)"/><rect width="427.64" height=".54" x="277.94" y="662.95" fill="#140ab6" class="color0a52b6 svgShape" clip-path="url(#d)"/><rect width="427.64" height=".54" x="277.94" y="663.49" fill="#1208b5" class="color0851b5 svgShape" clip-path="url(#d)"/><rect width="427.64" height=".54" x="277.94" y="664.02" fill="#1006b5" class="color064fb5 svgShape" clip-path="url(#d)"/><rect width="427.64" height=".54" x="277.94" y="664.56" fill="#0e04b4" class="color044eb4 svgShape" clip-path="url(#d)"/><rect width="427.64" height=".54" x="277.94" y="665.1" fill="#0c02b4" class="color024cb4 svgShape" clip-path="url(#d)"/><rect width="427.64" height=".54" x="277.94" y="665.63" fill="#0a00b3" class="color004bb3 svgShape" clip-path="url(#d)"/><rect width="427.64" height="6.44" x="277.94" y="666.17" fill="#0a00b3" class="color004bb3 svgShape" clip-path="url(#d)"/></g><g class="color000000 svgShape"><polygon fill="#0f00ff" points="705.58 418.97 491.75 545.8 279.73 420.03 278.69 419.42 277.94 418.97" class="colorffc800 svgShape"/><polygon fill="#0f00ff" points="277.94 418.97 491.76 292.15 705.58 418.97" class="colorffc800 svgShape"/></g><g class="color000000 svgShape"><path fill="#b0abff" d="M326.33,242.11v205.56l98.5,58.42l66.93,39.69l66.91-39.69l100.97-59.89v-204.1H326.33z M491.75,254.04       c6.43,0,11.64,5.21,11.64,11.64c0,6.43-5.21,11.64-11.64,11.64s-11.64-5.21-11.64-11.64       C480.12,259.24,485.32,254.04,491.75,254.04z" class="colorffebab svgShape"/><path fill="#b0abff" d="M606.39,374.16v19.76c0,3.74-3.04,6.78-6.78,6.78l-215.72,0c-3.74,0-6.78-3.04-6.78-6.78v-19.76         c0-3.74,3.04-6.78,6.78-6.78l215.72,0C603.36,367.38,606.39,370.42,606.39,374.16z" class="colorffebab svgShape"/><path fill="#373649" d="M472.49,381.09v5.79c0,0.96-0.3,1.72-0.9,2.28c-0.6,0.56-1.42,0.84-2.47,0.84          c-1.03,0-1.84-0.27-2.45-0.82c-0.6-0.54-0.91-1.29-0.92-2.24v-5.86h1.81v5.81c0,0.58,0.14,1,0.41,1.26          c0.28,0.26,0.66,0.4,1.14,0.4c1.02,0,1.54-0.54,1.55-1.61v-5.85H472.49z" class="color364449 svgShape"/><path fill="#373649" d="M482.86,387.57c0-0.34-0.12-0.6-0.36-0.79c-0.24-0.18-0.68-0.38-1.3-0.58c-0.63-0.2-1.13-0.4-1.49-0.6          c-1-0.54-1.5-1.27-1.5-2.18c0-0.48,0.13-0.9,0.4-1.27c0.27-0.37,0.65-0.66,1.15-0.87c0.5-0.21,1.06-0.31,1.69-0.31          c0.63,0,1.19,0.11,1.68,0.34c0.49,0.23,0.87,0.55,1.14,0.96c0.27,0.42,0.41,0.89,0.41,1.41h-1.81c0-0.4-0.13-0.72-0.38-0.94          c-0.25-0.22-0.61-0.34-1.07-0.34c-0.44,0-0.79,0.09-1.03,0.28c-0.25,0.19-0.37,0.43-0.37,0.74c0,0.29,0.14,0.53,0.43,0.72          c0.29,0.19,0.71,0.37,1.27,0.54c1.03,0.31,1.78,0.69,2.25,1.15c0.47,0.46,0.71,1.03,0.71,1.72c0,0.76-0.29,1.36-0.86,1.79          c-0.58,0.43-1.35,0.65-2.33,0.65c-0.68,0-1.29-0.12-1.85-0.37c-0.55-0.25-0.98-0.59-1.27-1.02          c-0.29-0.43-0.44-0.93-0.44-1.5h1.82c0,0.97,0.58,1.46,1.74,1.46c0.43,0,0.77-0.09,1.01-0.26          C482.74,388.13,482.86,387.89,482.86,387.57z" class="color364449 svgShape"/><path fill="#373649" d="M495.51,386.07h-3.48v2.36h4.08v1.46h-5.89v-8.8h5.88v1.47h-4.07v2.1h3.48V386.07z" class="color364449 svgShape"/><path fill="#373649" d="M504.75,386.66h-1.44v3.22h-1.81v-8.8h3.27c1.04,0,1.84,0.23,2.4,0.69c0.56,0.46,0.84,1.12,0.84,1.96          c0,0.6-0.13,1.1-0.39,1.5c-0.26,0.4-0.65,0.72-1.18,0.96l1.9,3.59v0.08h-1.95L504.75,386.66z M503.31,385.19h1.46          c0.46,0,0.81-0.12,1.06-0.35c0.25-0.23,0.37-0.55,0.37-0.96c0-0.41-0.12-0.74-0.35-0.98c-0.24-0.24-0.6-0.36-1.08-0.36          h-1.46V385.19z" class="color364449 svgShape"/><path fill="#373649" d="M520.86,389.88h-1.81l-3.53-5.79v5.79h-1.81v-8.8h1.81l3.53,5.8v-5.8h1.81V389.88z" class="color364449 svgShape"/><path fill="#373649" d="M531.73,388.07h-3.18l-0.6,1.81h-1.93l3.27-8.8h1.68l3.29,8.8h-1.93L531.73,388.07z M529.04,386.6h2.2          l-1.11-3.29L529.04,386.6z" class="color364449 svgShape"/><path fill="#373649" d="M541.77,381.09l2.26,6.38l2.25-6.38h2.38v8.8h-1.82v-2.4l0.18-4.15l-2.37,6.55h-1.24l-2.37-6.55          l0.18,4.14v2.4h-1.81v-8.8H541.77z" class="color364449 svgShape"/><path fill="#373649" d="M559.85,386.07h-3.48v2.36h4.08v1.46h-5.89v-8.8h5.88v1.47h-4.07v2.1h3.48V386.07z" class="color364449 svgShape"/><g class="color000000 svgShape"><path fill="#0f00ff" d="M423.84,400.7h-39.95c-3.74,0-6.78-3.04-6.78-6.78v-19.76c0-3.74,3.04-6.78,6.78-6.78h39.95V400.7z" class="colorffc800 svgShape"/></g><g class="color000000 svgShape"><path fill="#373649" d="M397.83,381.7c-0.13-0.33-0.22-0.66-0.27-1.02c-0.04-0.31-0.04-0.64,0-0.97          c0.04-0.33,0.13-0.64,0.24-0.95c0.13-0.31,0.31-0.57,0.49-0.84c0.2-0.24,0.44-0.49,0.68-0.69c0.24-0.18,0.51-0.33,0.77-0.46          c0.31-0.13,0.64-0.22,0.95-0.29c0.38-0.02,0.77-0.02,1.15,0c0.31,0.07,0.62,0.15,0.93,0.29c0.29,0.13,0.55,0.29,0.8,0.46          c0.24,0.2,0.49,0.44,0.69,0.69c0.18,0.27,0.33,0.53,0.46,0.84c0.13,0.31,0.22,0.62,0.27,0.95c0.02,0.15,0.02,0.33,0.02,0.49          c0,0.18,0,0.33-0.02,0.51c-0.04,0.33-0.15,0.66-0.27,0.99c-0.13,0.27-0.29,0.53-0.46,0.77c-0.2,0.24-0.44,0.49-0.69,0.69          c-0.29,0.2-0.57,0.38-0.88,0.51c-0.29,0.11-0.57,0.2-0.88,0.24c-0.35,0.04-0.71,0.04-1.06,0c-0.31-0.04-0.62-0.13-0.88-0.24          c-0.31-0.13-0.62-0.31-0.88-0.51c-0.24-0.2-0.49-0.44-0.69-0.69C398.11,382.23,397.96,381.96,397.83,381.7z" class="color364449 svgShape"/><path fill="#373649" d="M407.43,392.44v0.27h-12.29c0.02-0.44,0.02-0.91,0.04-1.08c0.09-0.53,0.22-1.08,0.42-1.57          c0.22-0.49,0.49-0.95,0.8-1.37c0.33-0.42,0.71-0.8,1.13-1.11c0.42-0.33,0.88-0.6,1.37-0.82c0.49-0.2,1.02-0.35,1.55-0.42          c0.55-0.07,1.13-0.07,1.66,0c0.53,0.07,1.06,0.22,1.57,0.42c0.49,0.22,0.95,0.49,1.37,0.8c0.42,0.33,0.8,0.71,1.1,1.13          c0.33,0.42,0.6,0.88,0.8,1.35c0.22,0.53,0.38,1.08,0.44,1.59C407.41,391.88,407.43,392.17,407.43,392.44z" class="color364449 svgShape"/></g><g class="color000000 svgShape"><path fill="#fff" d="M606.39,421.04v19.76c0,3.74-3.04,6.78-6.78,6.78l-215.72,0c-3.74,0-6.78-3.04-6.78-6.78v-19.76         c0-3.74,3.04-6.78,6.78-6.78l215.72,0C603.36,414.26,606.39,417.29,606.39,421.04z" class="colorffffff svgShape"/><path fill="#0f00ff" d="M423.84,447.58h-39.95c-3.74,0-6.78-3.04-6.78-6.78v-19.76c0-3.74,3.04-6.78,6.78-6.78h39.95V447.58z" class="colorffc800 svgShape"/><path fill="#373649" d="M468.96,430.72l-3.6-1.02l0.68-2.07l3.56,1.43l-0.23-3.99h2.24l-0.23,4.07l3.47-1.41l0.68,2.09          l-3.66,1.02l2.4,3.05l-1.82,1.29l-2.08-3.34l-2.06,3.23l-1.82-1.24L468.96,430.72z" class="color364449 svgShape"/><path fill="#373649" d="M490.12,430.72l-3.6-1.02l0.68-2.07l3.56,1.43l-0.23-3.99h2.24l-0.23,4.07l3.47-1.41l0.68,2.09          l-3.66,1.02l2.41,3.05l-1.82,1.29l-2.08-3.34l-2.06,3.23l-1.82-1.24L490.12,430.72z" class="color364449 svgShape"/><path fill="#373649" d="M511.28,430.72l-3.6-1.02l0.68-2.07l3.56,1.43l-0.23-3.99h2.24l-0.23,4.07l3.47-1.41l0.68,2.09          l-3.66,1.02l2.4,3.05l-1.82,1.29l-2.08-3.34l-2.06,3.23l-1.82-1.24L511.28,430.72z" class="color364449 svgShape"/><path fill="#373649" d="M532.43,430.72l-3.6-1.02l0.68-2.07l3.56,1.43l-0.23-3.99h2.24l-0.23,4.07l3.47-1.41l0.68,2.09          l-3.66,1.02l2.4,3.05l-1.82,1.29l-2.08-3.34l-2.06,3.23l-1.82-1.24L532.43,430.72z" class="color364449 svgShape"/><path fill="#373649" d="M553.59,430.72l-3.6-1.02l0.68-2.07l3.56,1.43l-0.23-3.99h2.24l-0.23,4.07l3.47-1.41l0.68,2.09          l-3.66,1.02l2.41,3.05l-1.82,1.29l-2.08-3.34l-2.06,3.23l-1.82-1.24L553.59,430.72z" class="color364449 svgShape"/><g class="color000000 svgShape"><path fill="#373649" d="M395.52,429.35v7.87c0,1,0.81,1.81,1.81,1.81h7.87c1,0,1.81-0.81,1.81-1.81v-7.87          c0-1-0.81-1.81-1.81-1.81h-7.87C396.33,427.53,395.52,428.35,395.52,429.35z M402.02,434.24v0.99          c0,0.32-0.21,0.62-0.53,0.67c-0.39,0.06-0.73-0.24-0.73-0.62v-1.05c0,0,0-0.01-0.01-0.01c-0.59-0.24-1.02-0.82-1.04-1.5          v-0.01c0-0.79,0.53-1.52,1.3-1.68c1.07-0.23,2.02,0.55,2.05,1.57c0,0.02,0,0.04,0,0.06c0,0.7-0.43,1.31-1.04,1.56          C402.02,434.23,402.02,434.24,402.02,434.24z" class="color364449 svgShape"/><path fill="#373649" d="M405.07,426.6v0.93H403v-0.93c0-0.95-0.78-1.73-1.73-1.73s-1.73,0.78-1.73,1.73v0.93h-2.07v-0.93          c0-2.09,1.7-3.8,3.8-3.8C403.36,422.8,405.07,424.51,405.07,426.6z" class="color364449 svgShape"/></g></g><g class="color000000 svgShape"><path fill="#373649" d="M546.39,171.52c-2.63-8.84-10.84-15.31-20.52-15.31c-11.8,0-21.4,9.6-21.4,21.4          c0,9.17,5.8,17.02,13.93,20.04c0.37,0.14,0.73,0.26,1.1,0.38c1.4,0.43,2.83,0.73,4.31,0.87c0.42,0.05,0.83,0.08,1.25,0.1          c0.27,0.01,0.54,0.01,0.81,0.01c0.11,0,0.23,0,0.34-0.01c11.65-0.18,21.06-9.7,21.06-21.39          C547.28,175.5,546.96,173.46,546.39,171.52z M511.26,177.61c0-8.06,6.56-14.62,14.62-14.62c8.06,0,14.62,6.56,14.62,14.62          c0,8.06-6.56,14.62-14.62,14.62C517.82,192.23,511.26,185.67,511.26,177.61z" class="color364449 svgShape"/><polygon fill="#373649" points="526.63 195.65 526.47 196.96 526.21 199 520.81 242.11 513.98 242.11 519.5 198.04 519.55 197.66 519.91 194.81" class="color364449 svgShape"/><path fill="#fff" d="M507.55,180.68c-0.74,0-1.35-0.6-1.36-1.34c-0.18-16.87,13.53-20.76,13.66-20.8          c0.73-0.2,1.47,0.23,1.66,0.96c0.2,0.72-0.23,1.47-0.95,1.66c-0.5,0.14-11.82,3.45-11.66,18.15          c0.01,0.75-0.59,1.36-1.34,1.37C507.56,180.68,507.55,180.68,507.55,180.68z" class="colorffffff svgShape" opacity=".15"/><path fill="#fff" d="M509.57,184.03c0,0.57-0.47,1.04-1.04,1.04c-0.57,0-1.04-0.47-1.04-1.04c0-0.57,0.47-1.04,1.04-1.04         C509.1,182.99,509.57,183.46,509.57,184.03z" class="colorffffff svgShape" opacity=".15"/></g><g class="color000000 svgShape"><path fill="#373649" d="M503.37,265.1c-6.33-0.45-14.12-2.1-20.65-6.78c-1.1-0.79-2.17-1.65-3.19-2.62         c-3.82-3.63-6.55-8.16-8.16-13.59c-1.84-6.16-2.26-13.45-1.23-21.82l0.73,0.09l5.99,0.73c-0.01,0.08-0.01,0.15-0.03,0.23         c-0.99,8.27-0.42,15.22,1.7,20.76c1.3,3.43,3.2,6.32,5.67,8.67c1.51,1.42,3.17,2.6,4.91,3.55c3.63,2.02,7.64,3.09,11.36,3.63         c1.1,1.23,1.94,2.71,2.43,4.35C503.17,263.2,503.33,264.14,503.37,265.1z" class="color364449 svgShape"/><polygon fill="#373649" points="483.77 222.43 476.84 221.35 470.87 220.41 470.14 220.29 471.16 213.13 471.16 213.07 473.15 199.01" class="color364449 svgShape"/><path fill="#fff" d="M499.99,261.12c-0.02,0-0.04,0-0.06,0c-0.2,0-19.88-0.23-25.69-21.08c-0.2-0.72,0.22-1.47,0.94-1.67           c0.72-0.2,1.47,0.22,1.67,0.94c5.26,18.89,22.9,19.1,23.08,19.1c0.75,0,1.36,0.61,1.36,1.36           C501.28,260.49,500.71,261.09,499.99,261.12z" class="colorffffff svgShape" opacity=".1"/><path fill="#fff" d="M475.8,235.03c0,0.78-0.63,1.41-1.41,1.41c-0.78,0-1.41-0.63-1.41-1.41c0-0.78,0.63-1.41,1.41-1.41          C475.17,233.63,475.8,234.25,475.8,235.03z" class="colorffffff svgShape" opacity=".15"/></g><g class="color000000 svgShape"><path fill="#0f00ff" d="M521.7,301.99v44.96c0,3.74-3.04,6.78-6.78,6.78h-44.96c-3.74,0-6.78-3.04-6.78-6.78v-44.96         c0-3.74,3.04-6.78,6.78-6.78h44.96C518.66,295.21,521.7,298.25,521.7,301.99z" class="colorffc800 svgShape"/><path fill="#373649" d="M485.32,318.53c-0.27-0.68-0.45-1.36-0.55-2.09c-0.09-0.64-0.09-1.32,0-2c0.09-0.68,0.27-1.32,0.5-1.96          c0.27-0.64,0.64-1.18,1-1.73c0.41-0.5,0.91-1,1.41-1.41c0.5-0.36,1.05-0.68,1.59-0.95c0.64-0.27,1.32-0.45,1.95-0.59          c0.77-0.05,1.59-0.05,2.36,0c0.64,0.14,1.27,0.32,1.91,0.59c0.59,0.27,1.14,0.59,1.64,0.95c0.5,0.41,1,0.91,1.41,1.41          c0.36,0.55,0.68,1.09,0.95,1.73c0.27,0.64,0.45,1.27,0.55,1.96c0.05,0.32,0.05,0.68,0.05,1c0,0.36,0,0.68-0.05,1.05          c-0.09,0.68-0.32,1.36-0.55,2.05c-0.27,0.55-0.59,1.09-0.95,1.59c-0.41,0.5-0.91,1-1.41,1.41          c-0.59,0.41-1.18,0.77-1.82,1.05c-0.59,0.23-1.18,0.41-1.82,0.5c-0.73,0.09-1.45,0.09-2.18,0c-0.64-0.09-1.27-0.27-1.82-0.5          c-0.64-0.27-1.27-0.64-1.82-1.05c-0.5-0.41-1-0.91-1.41-1.41C485.91,319.62,485.6,319.08,485.32,318.53z" class="color364449 svgShape"/><path fill="#373649" d="M505.08,340.62v0.55l-25.28,0c0.05-0.91,0.05-1.86,0.09-2.23c0.18-1.09,0.45-2.23,0.86-3.23          c0.45-1,1-1.96,1.64-2.82c0.68-0.86,1.45-1.64,2.32-2.27c0.86-0.68,1.82-1.23,2.82-1.68c1-0.41,2.09-0.73,3.18-0.86          c1.14-0.14,2.32-0.14,3.41,0c1.09,0.14,2.18,0.45,3.23,0.86c1,0.45,1.96,1,2.82,1.64c0.86,0.68,1.64,1.45,2.27,2.32          c0.68,0.86,1.23,1.82,1.64,2.77c0.45,1.09,0.77,2.23,0.91,3.27C505.03,339.49,505.08,340.08,505.08,340.62z" class="color364449 svgShape"/></g><g class="color000000 svgShape"><path fill="#373649" d="M518.76,461.65h-3.07v3.24h-0.97v-7.33h4.54v0.79h-3.57v2.51h3.07V461.65z" class="color364449 svgShape"/><path fill="#373649" d="M520.43,462.12c0-0.53,0.1-1.01,0.31-1.44c0.21-0.43,0.5-0.76,0.88-0.99c0.37-0.23,0.8-0.35,1.28-0.35         c0.74,0,1.34,0.26,1.8,0.77c0.46,0.51,0.69,1.2,0.69,2.05v0.07c0,0.53-0.1,1.01-0.3,1.43c-0.2,0.42-0.49,0.75-0.87,0.98         c-0.38,0.23-0.81,0.35-1.3,0.35c-0.74,0-1.34-0.26-1.79-0.77c-0.46-0.51-0.69-1.19-0.69-2.04V462.12z M521.37,462.23         c0,0.6,0.14,1.09,0.42,1.45c0.28,0.37,0.65,0.55,1.12,0.55c0.47,0,0.85-0.19,1.13-0.56c0.28-0.37,0.42-0.89,0.42-1.56         c0-0.6-0.14-1.08-0.42-1.45c-0.28-0.37-0.66-0.56-1.13-0.56c-0.46,0-0.83,0.18-1.11,0.55         C521.51,461.02,521.37,461.55,521.37,462.23z" class="color364449 svgShape"/><path fill="#373649" d="M529.7,460.28c-0.14-0.02-0.29-0.04-0.46-0.04c-0.61,0-1.02,0.26-1.24,0.78v3.86h-0.93v-5.44h0.91         l0.01,0.63c0.31-0.49,0.74-0.73,1.3-0.73c0.18,0,0.32,0.02,0.41,0.07V460.28z" class="color364449 svgShape"/><path fill="#373649" d="M530.85,462.12c0-0.85,0.2-1.52,0.59-2.03c0.39-0.5,0.91-0.75,1.56-0.75c0.66,0,1.18,0.23,1.55,0.7         l0.05-0.6h0.85v5.31c0,0.7-0.21,1.26-0.63,1.67c-0.42,0.41-0.98,0.61-1.68,0.61c-0.39,0-0.78-0.08-1.15-0.25         c-0.38-0.17-0.66-0.4-0.86-0.69l0.48-0.56c0.4,0.49,0.89,0.74,1.46,0.74c0.45,0,0.81-0.13,1.06-0.38         c0.25-0.26,0.38-0.61,0.38-1.08v-0.47c-0.37,0.43-0.88,0.64-1.52,0.64c-0.64,0-1.15-0.26-1.55-0.77         S530.85,463.01,530.85,462.12z M531.79,462.23c0,0.61,0.13,1.1,0.38,1.45c0.25,0.35,0.6,0.53,1.06,0.53         c0.59,0,1.02-0.27,1.29-0.8v-2.49c-0.29-0.52-0.71-0.78-1.28-0.78c-0.45,0-0.81,0.18-1.06,0.53         C531.91,461.01,531.79,461.54,531.79,462.23z" class="color364449 svgShape"/><path fill="#373649" d="M537.12,462.12c0-0.53,0.1-1.01,0.31-1.44c0.21-0.43,0.5-0.76,0.88-0.99c0.37-0.23,0.8-0.35,1.28-0.35         c0.74,0,1.34,0.26,1.8,0.77c0.46,0.51,0.69,1.2,0.69,2.05v0.07c0,0.53-0.1,1.01-0.3,1.43c-0.2,0.42-0.49,0.75-0.87,0.98         c-0.38,0.23-0.81,0.35-1.3,0.35c-0.74,0-1.34-0.26-1.79-0.77c-0.46-0.51-0.69-1.19-0.69-2.04V462.12z M538.06,462.23         c0,0.6,0.14,1.09,0.42,1.45c0.28,0.37,0.65,0.55,1.12,0.55c0.47,0,0.85-0.19,1.13-0.56c0.28-0.37,0.42-0.89,0.42-1.56         c0-0.6-0.14-1.08-0.42-1.45c-0.28-0.37-0.66-0.56-1.13-0.56c-0.46,0-0.83,0.18-1.11,0.55         C538.2,461.02,538.06,461.55,538.06,462.23z" class="color364449 svgShape"/><path fill="#373649" d="M545.02,458.13v1.32h1.02v0.72h-1.02v3.38c0,0.22,0.05,0.38,0.14,0.49c0.09,0.11,0.25,0.16,0.46,0.16         c0.11,0,0.26-0.02,0.44-0.06v0.75c-0.24,0.07-0.48,0.1-0.71,0.1c-0.42,0-0.73-0.13-0.94-0.38c-0.21-0.25-0.32-0.61-0.32-1.07         v-3.38h-0.99v-0.72h0.99v-1.32H545.02z" class="color364449 svgShape"/><path fill="#373649" d="M551.82,462.02v2.87h-0.97v-7.33h2.7c0.8,0,1.43,0.2,1.88,0.61c0.46,0.41,0.68,0.95,0.68,1.63         c0,0.71-0.22,1.26-0.67,1.64c-0.44,0.38-1.08,0.58-1.91,0.58H551.82z M551.82,461.23h1.74c0.52,0,0.91-0.12,1.19-0.37         c0.27-0.24,0.41-0.6,0.41-1.06c0-0.44-0.14-0.79-0.41-1.05c-0.28-0.26-0.65-0.4-1.13-0.41h-1.79V461.23z" class="color364449 svgShape"/><path fill="#373649" d="M561.03,464.89c-0.05-0.11-0.1-0.3-0.13-0.57c-0.43,0.45-0.95,0.67-1.55,0.67         c-0.54,0-0.98-0.15-1.32-0.46s-0.52-0.69-0.52-1.15c0-0.57,0.22-1.01,0.65-1.32c0.43-0.31,1.04-0.47,1.82-0.47h0.91v-0.43         c0-0.33-0.1-0.58-0.29-0.78c-0.19-0.19-0.48-0.29-0.86-0.29c-0.33,0-0.61,0.08-0.84,0.25c-0.22,0.17-0.34,0.37-0.34,0.61         h-0.94c0-0.27,0.1-0.53,0.29-0.79c0.19-0.25,0.45-0.45,0.79-0.6c0.33-0.15,0.69-0.22,1.09-0.22c0.63,0,1.12,0.16,1.47,0.47         c0.36,0.31,0.54,0.75,0.55,1.3v2.51c0,0.5,0.06,0.9,0.19,1.19v0.08H561.03z M559.49,464.18c0.29,0,0.57-0.08,0.83-0.23         c0.26-0.15,0.45-0.35,0.57-0.59v-1.12h-0.73c-1.14,0-1.71,0.33-1.71,1c0,0.29,0.1,0.52,0.29,0.68         C558.93,464.1,559.18,464.18,559.49,464.18z" class="color364449 svgShape"/><path fill="#373649" d="M566.96,463.44c0-0.25-0.09-0.45-0.28-0.59c-0.19-0.14-0.52-0.26-0.99-0.36         c-0.47-0.1-0.85-0.22-1.12-0.36c-0.28-0.14-0.48-0.31-0.61-0.5c-0.13-0.19-0.2-0.43-0.2-0.69c0-0.45,0.19-0.82,0.57-1.13         c0.38-0.31,0.86-0.46,1.45-0.46c0.62,0,1.12,0.16,1.5,0.48c0.38,0.32,0.58,0.73,0.58,1.22h-0.94c0-0.25-0.11-0.47-0.32-0.66         c-0.22-0.18-0.49-0.28-0.82-0.28c-0.34,0-0.6,0.07-0.8,0.22c-0.19,0.15-0.29,0.34-0.29,0.58c0,0.22,0.09,0.39,0.27,0.51         c0.18,0.11,0.5,0.22,0.96,0.33c0.47,0.1,0.84,0.23,1.13,0.37s0.5,0.32,0.64,0.52c0.14,0.2,0.21,0.45,0.21,0.74         c0,0.49-0.2,0.88-0.58,1.17c-0.39,0.29-0.89,0.44-1.51,0.44c-0.44,0-0.82-0.08-1.16-0.23c-0.34-0.15-0.6-0.37-0.79-0.65         c-0.19-0.28-0.28-0.58-0.28-0.9h0.93c0.02,0.31,0.14,0.56,0.37,0.74c0.23,0.18,0.54,0.27,0.92,0.27         c0.35,0,0.63-0.07,0.85-0.21C566.85,463.87,566.96,463.68,566.96,463.44z" class="color364449 svgShape"/><path fill="#373649" d="M572.79,463.44c0-0.25-0.09-0.45-0.28-0.59c-0.19-0.14-0.52-0.26-0.99-0.36         c-0.47-0.1-0.85-0.22-1.12-0.36c-0.28-0.14-0.48-0.31-0.61-0.5c-0.13-0.19-0.2-0.43-0.2-0.69c0-0.45,0.19-0.82,0.57-1.13         c0.38-0.31,0.86-0.46,1.45-0.46c0.62,0,1.12,0.16,1.5,0.48c0.38,0.32,0.58,0.73,0.58,1.22h-0.94c0-0.25-0.11-0.47-0.32-0.66         c-0.22-0.18-0.49-0.28-0.82-0.28c-0.34,0-0.6,0.07-0.8,0.22c-0.19,0.15-0.29,0.34-0.29,0.58c0,0.22,0.09,0.39,0.27,0.51         c0.18,0.11,0.5,0.22,0.96,0.33c0.47,0.1,0.84,0.23,1.13,0.37c0.29,0.14,0.5,0.32,0.64,0.52c0.14,0.2,0.21,0.45,0.21,0.74         c0,0.49-0.2,0.88-0.58,1.17c-0.39,0.29-0.89,0.44-1.51,0.44c-0.44,0-0.82-0.08-1.16-0.23c-0.34-0.15-0.6-0.37-0.79-0.65         c-0.19-0.28-0.28-0.58-0.28-0.9h0.93c0.02,0.31,0.14,0.56,0.37,0.74c0.23,0.18,0.54,0.27,0.92,0.27         c0.35,0,0.63-0.07,0.85-0.21C572.68,463.87,572.79,463.68,572.79,463.44z" class="color364449 svgShape"/><path fill="#373649" d="M580.27,463.61l1.05-4.16h0.93l-1.59,5.44h-0.75l-1.32-4.13l-1.29,4.13h-0.76l-1.58-5.44h0.93l1.07,4.08         l1.27-4.08h0.75L580.27,463.61z" class="color364449 svgShape"/><path fill="#373649" d="M583.46,462.12c0-0.53,0.1-1.01,0.31-1.44c0.21-0.43,0.5-0.76,0.88-0.99c0.37-0.23,0.8-0.35,1.28-0.35         c0.74,0,1.34,0.26,1.8,0.77c0.46,0.51,0.69,1.2,0.69,2.05v0.07c0,0.53-0.1,1.01-0.3,1.43c-0.2,0.42-0.49,0.75-0.87,0.98         c-0.38,0.23-0.81,0.35-1.3,0.35c-0.74,0-1.34-0.26-1.79-0.77c-0.46-0.51-0.69-1.19-0.69-2.04V462.12z M584.4,462.23         c0,0.6,0.14,1.09,0.42,1.45c0.28,0.37,0.65,0.55,1.12,0.55c0.47,0,0.85-0.19,1.13-0.56c0.28-0.37,0.42-0.89,0.42-1.56         c0-0.6-0.14-1.08-0.42-1.45c-0.28-0.37-0.66-0.56-1.13-0.56c-0.46,0-0.83,0.18-1.11,0.55         C584.54,461.02,584.4,461.55,584.4,462.23z" class="color364449 svgShape"/><path fill="#373649" d="M592.73,460.28c-0.14-0.02-0.29-0.04-0.46-0.04c-0.61,0-1.02,0.26-1.24,0.78v3.86h-0.93v-5.44H591         l0.01,0.63c0.31-0.49,0.74-0.73,1.3-0.73c0.18,0,0.32,0.02,0.41,0.07V460.28z" class="color364449 svgShape"/><path fill="#373649" d="M593.87,462.12c0-0.84,0.2-1.51,0.59-2.01c0.4-0.51,0.91-0.76,1.55-0.76c0.64,0,1.14,0.22,1.51,0.65         v-2.84h0.93v7.73h-0.86l-0.04-0.58c-0.37,0.46-0.89,0.68-1.55,0.68c-0.63,0-1.15-0.26-1.54-0.77c-0.4-0.52-0.6-1.19-0.6-2.02         V462.12z M594.81,462.23c0,0.62,0.13,1.1,0.38,1.45c0.25,0.35,0.61,0.52,1.06,0.52c0.59,0,1.02-0.26,1.29-0.79v-2.5         c-0.28-0.51-0.71-0.77-1.28-0.77c-0.46,0-0.81,0.18-1.07,0.53C594.93,461.01,594.81,461.54,594.81,462.23z" class="color364449 svgShape"/><path fill="#373649" d="M601.52,462.82c0.01-0.4,0.05-0.71,0.14-0.94c0.08-0.23,0.26-0.49,0.51-0.77l0.66-0.68         c0.28-0.32,0.42-0.66,0.42-1.02c0-0.35-0.09-0.63-0.28-0.83c-0.19-0.2-0.45-0.3-0.81-0.3c-0.34,0-0.62,0.09-0.83,0.27         c-0.21,0.18-0.31,0.42-0.31,0.73h-0.93c0.01-0.54,0.2-0.98,0.58-1.32c0.38-0.33,0.88-0.5,1.49-0.5         c0.63,0,1.13,0.17,1.48,0.51s0.53,0.81,0.53,1.4c0,0.59-0.27,1.16-0.82,1.73l-0.55,0.54c-0.24,0.27-0.37,0.66-0.37,1.17         H601.52z M601.48,464.42c0-0.15,0.05-0.28,0.14-0.38c0.09-0.1,0.23-0.16,0.41-0.16c0.18,0,0.32,0.05,0.41,0.16         c0.09,0.1,0.14,0.23,0.14,0.38c0,0.15-0.05,0.28-0.14,0.38c-0.09,0.1-0.23,0.15-0.41,0.15c-0.18,0-0.32-0.05-0.41-0.15         C601.53,464.69,601.48,464.57,601.48,464.42z" class="color364449 svgShape"/></g></g><g class="color000000 svgShape"><path fill="#c8c8c8" d="M347.05,521.2l0,40.88c0,21.44-6.6,41.94-19.08,59.29c-12.21,16.97-29.04,29.62-48.67,36.56l-1.53,0.54       l-1.53-0.54c-19.63-6.94-36.46-19.58-48.67-36.55c-12.48-17.35-19.08-37.85-19.08-59.29l0-40.88l69.28-19.7L347.05,521.2z" class="colorc8c8c8 svgShape"/><path fill="#a4a3b7" d="M328.66,535.09l0,26.98c0,2.15-0.08,4.29-0.24,6.41c-1.15,15.22-6.41,29.67-15.37,42.13       c-8.57,11.92-20.12,21.38-33.39,27.35l-1.89,0.85l-1.89-0.85c-13.27-5.98-24.81-15.44-33.39-27.35       c-8.96-12.46-14.22-26.91-15.37-42.13c-0.16-2.12-0.24-4.26-0.24-6.41v-26.98l50.89-14.47L328.66,535.09z" class="colorb7b2a3 svgShape"/><g class="color000000 svgShape"><polygon fill="#fff" points="248.08 590 264.52 573.23 248.08 556.47 261.53 543.17 277.75 559.76 294.01 543.18 307.46 556.47 291.02 573.23 307.46 590 294.02 603.29 277.75 586.75 261.53 603.29" class="colorffffff svgShape"/></g></g><g class="color000000 svgShape"><path fill="#0d00e0" d="M346.61,272.88l-0.38,81.34c-0.02,3.95-3.24,7.16-7.21,7.14l-135.32-0.63       c-3.27-0.02-6.02-2.22-6.86-5.21c-0.18-0.63-0.28-1.3-0.28-1.99l0.38-81.34c0.02-3.95,3.24-7.16,7.21-7.14l135.32,0.63       C343.43,265.69,346.63,268.93,346.61,272.88z" class="color007de0 svgShape"/><path fill="#373649" d="M346.61,272.88l-0.38,81.34c-0.02,3.95-3.24,7.16-7.21,7.14l-135.32-0.63c-3.27-0.02-6.02-2.22-6.86-5.21       c-0.18-0.63-0.28-1.3-0.28-1.99l0.38-81.34c0.02-3.95,3.24-7.16,7.21-7.14l135.32,0.63       C343.43,265.69,346.63,268.93,346.61,272.88z" class="color364449 svgShape"/><rect width="18.1" height="149.67" x="262.64" y="215.09" fill="#272638" class="color263238 svgShape" transform="matrix(.00466 -1 1 .00466 -19.503 560.266)"/><rect width="112.05" height="16.59" x="200.2" y="304.51" fill="#fff" class="colorffffff svgShape" transform="matrix(1 .00467 -.00467 1 1.465 -1.194)"/><rect width="19.82" height="16.59" x="316.77" y="304.84" fill="#fff" class="colorffffff svgShape" transform="matrix(1 .00468 -.00468 1 1.469 -1.525)"/></g><g class="color000000 svgShape"><path fill="#1203fc" d="M732.74,384.24h-63.07c-8.01,0-14.52,6.5-14.52,14.52v63.02c0,8.06,6.5,14.56,14.52,14.56h63.07       c8.06,0,14.56-6.5,14.56-14.56v-63.02C747.3,390.74,740.79,384.24,732.74,384.24z M715.66,425.4c0,5.67-3.44,10.49-8.35,12.46       c-0.04,0.04-0.04,0.04-0.04,0.08v7.97c0,2.56-1.72,4.99-4.24,5.41c-3.1,0.5-5.83-1.93-5.83-4.99v-8.39       c0-0.04-0.04-0.04-0.08-0.08c-4.74-1.93-8.14-6.55-8.31-12v-0.08c0-6.34,4.2-12.13,10.41-13.47       c8.56-1.85,16.15,4.45,16.45,12.59V425.4z" class="colorfcca03 svgShape"/><path fill="#c8c8c8" d="M732.72,384.24h-63.07c-8.01,0-14.52,6.5-14.52,14.52v63.02c0,8.06,6.5,14.56,14.52,14.56h63.07       c8.06,0,14.56-6.5,14.56-14.56v-63.02C747.28,390.74,740.78,384.24,732.72,384.24z M715.64,425.4c0,5.67-3.44,10.49-8.35,12.46       c-0.04,0.04-0.04,0.04-0.04,0.08v7.97c0,2.56-1.72,4.99-4.24,5.41c-3.11,0.5-5.83-1.93-5.83-4.99v-8.39       c0-0.04-0.04-0.04-0.08-0.08c-4.74-1.93-8.14-6.55-8.31-12v-0.08c0-6.34,4.2-12.13,10.41-13.47       c8.56-1.85,16.15,4.45,16.45,12.59V425.4z" class="colorc8c8c8 svgShape"/><path fill="#fff" d="M715.66,424.9v0.5c0,5.67-3.44,10.49-8.35,12.46c-0.04,0.04-0.04,0.04-0.04,0.08v7.97       c0,2.56-1.72,4.99-4.24,5.41c-3.1,0.5-5.83-1.93-5.83-4.99v-8.39c0-0.04-0.04-0.04-0.08-0.08c-4.74-1.93-8.14-6.55-8.31-12       v-0.08c0-6.34,4.2-12.13,10.41-13.47C707.77,410.46,715.36,416.76,715.66,424.9z" class="colorffffff svgShape"/><path fill="#a4a3b7" d="M731.64,376.76v7.46h-16.56v-7.46c0-0.66-0.04-1.3-0.14-1.94c-0.95-6.73-6.75-11.92-13.74-11.92       c-6.98,0-12.77,5.19-13.72,11.92c-0.09,0.64-0.14,1.27-0.14,1.94v7.46h-16.57v-7.46c0-0.65,0.03-1.3,0.07-1.94       c1-15.88,14.24-28.48,30.36-28.48c16.12,0,29.36,12.6,30.36,28.48C731.61,375.46,731.64,376.11,731.64,376.76z" class="colorb7b2a3 svgShape"/><g class="color000000 svgShape"><path fill="#373649" d="M767.78,428.22c-13.17-7.13-29.68-2.22-36.81,10.95c-2.67,4.93-3.65,10.33-3.14,15.53l-58.24,22.88      c-3.83,1.51-5.72,5.84-4.22,9.67c0.67,1.7,1.9,3.02,3.39,3.83c1.87,1.01,4.15,1.22,6.28,0.39l2.56-1.01l4.74,11.13      c0.69,1.61,1.88,2.86,3.31,3.64c1.93,1.05,4.3,1.23,6.48,0.31c3.79-1.61,5.56-5.99,3.94-9.78l-4.57-10.75l11.79-4.63l5.13,12.05      c0.69,1.61,1.88,2.86,3.31,3.64c1.93,1.04,4.3,1.23,6.48,0.31c3.79-1.61,5.56-5.99,3.94-9.78l-4.96-11.67l16.13-6.34      c2.26,2.96,5.14,5.51,8.62,7.4c13.17,7.13,29.68,2.22,36.81-10.95C785.86,451.87,780.95,435.35,767.78,428.22z M749.02,462.87      c-5.93-3.21-8.15-10.66-4.93-16.59c3.21-5.93,10.66-8.15,16.59-4.93s8.15,10.66,4.93,16.59      C762.4,463.87,754.95,466.08,749.02,462.87z" class="color364449 svgShape"/></g></g><g class="color000000 svgShape"><path fill="#0f00ff" d="M748.59,623.73H586.47c-3.2,0-5.79-2.59-5.79-5.79v-58.08c0-3.2,2.59-5.79,5.79-5.79h162.12      c3.2,0,5.79,2.59,5.79,5.79v58.08C754.37,621.14,751.78,623.73,748.59,623.73z" class="colorffc800 svgShape"/><path fill="#373649" d="M617.21,597.83h9.46v3.58h-13.92v-21.62h4.46V597.83z" class="color364449 svgShape"/><path fill="#373649" d="M649.08,591.08c0,2.13-0.38,4-1.13,5.6c-0.75,1.6-1.83,2.84-3.23,3.71c-1.4,0.87-3.01,1.31-4.82,1.31       c-1.79,0-3.39-0.43-4.8-1.29c-1.41-0.86-2.5-2.09-3.27-3.69c-0.77-1.6-1.16-3.44-1.17-5.52v-1.07c0-2.13,0.38-4,1.15-5.62       c0.77-1.62,1.85-2.86,3.25-3.73c1.4-0.87,3-1.3,4.8-1.3c1.8,0,3.4,0.43,4.8,1.3c1.4,0.87,2.48,2.11,3.25,3.73       c0.77,1.62,1.15,3.49,1.15,5.61V591.08z M644.57,590.1c0-2.27-0.41-3.99-1.22-5.17c-0.81-1.18-1.97-1.77-3.48-1.77       c-1.5,0-2.65,0.58-3.46,1.75c-0.81,1.16-1.22,2.87-1.23,5.12v1.05c0,2.21,0.41,3.92,1.22,5.14c0.81,1.22,1.98,1.83,3.5,1.83       c1.5,0,2.64-0.59,3.45-1.76c0.8-1.17,1.21-2.88,1.22-5.13V590.1z" class="color364449 svgShape"/><path fill="#373649" d="M672.47,598.67c-0.8,0.96-1.94,1.7-3.4,2.23c-1.46,0.53-3.09,0.79-4.87,0.79c-1.87,0-3.51-0.41-4.92-1.22       c-1.41-0.82-2.5-2-3.27-3.56c-0.77-1.55-1.16-3.38-1.18-5.48v-1.47c0-2.16,0.36-4.03,1.09-5.61c0.73-1.58,1.78-2.79,3.15-3.62       c1.37-0.84,2.98-1.26,4.82-1.26c2.56,0,4.57,0.61,6.01,1.83c1.45,1.22,2.3,3,2.57,5.34h-4.34c-0.2-1.24-0.64-2.14-1.32-2.72       c-0.68-0.57-1.61-0.86-2.8-0.86c-1.51,0-2.67,0.57-3.46,1.71c-0.79,1.14-1.19,2.83-1.2,5.08v1.38c0,2.27,0.43,3.98,1.29,5.14       c0.86,1.16,2.12,1.74,3.79,1.74c1.67,0,2.87-0.36,3.58-1.07v-3.73h-4.05v-3.28h8.51V598.67z" class="color364449 svgShape"/><path fill="#373649" d="M694.47,601.41h-4.46v-21.62h4.46V601.41z" class="color364449 svgShape"/><path fill="#373649" d="M719.23,601.41h-4.46l-8.67-14.23v14.23h-4.46v-21.62h4.46l8.69,14.26v-14.26h4.44V601.41z" class="color364449 svgShape"/></g><g class="color000000 svgShape"><path fill="#a39dff" d="M169.16,294.74c2.9,9.46,6.65,26.98,0.54,34.16c0,0,3.7,9.52,21.66,7.64c19.76-2.07,8.4-10.79,8.4-10.79        c-11.05-1.46-11.61-9.48-10.51-17.2L169.16,294.74z" class="colorffbe9d svgShape"/><path fill="#a39dff" d="M161.59,273.26c2.69,16.04,3.49,22.9,12.5,30.32c13.58,11.19,32.7,4.39,34.86-12.04        c1.94-14.9-0.39-35.75-16.92-40.51c-11.75-3.46-26.41,0.4-29.87,12.15C161.2,266.46,161.01,269.91,161.59,273.26z" class="colorffbe9d svgShape"/><path fill="#0f00ff" d="M164.11,330.59L164.11,330.59c-0.49-1.95,0.66-3.94,2.6-4.48c7.17-1.96,23.54-6.16,32.02-5.87        c6.31,0.23,8.32,3.67,8.89,6.62c0.37,1.98-0.93,3.89-2.91,4.28l-0.58,0.06l-36.29,2.13        C166.12,333.4,164.57,332.27,164.11,330.59z" class="color007cff svgShape"/><path d="M164.11,330.59L164.11,330.59c-0.49-1.95,0.66-3.94,2.6-4.48c7.17-1.96,23.54-6.16,32.02-5.87        c6.31,0.23,8.32,3.67,8.89,6.62c0.37,1.98-0.93,3.89-2.91,4.28l-0.58,0.06l-36.29,2.13        C166.12,333.4,164.57,332.27,164.11,330.59z" class="color000000 svgShape" opacity=".6"/><path fill="#a39dff" d="M154.87,347.62l-10.49,30.36l24.33,32.42l-9.52,6.35c0,0-27.6-22.13-34.2-34.89        c-1.49-2.88,17.1-45.29,17.1-45.29L154.87,347.62z" class="colorffbe9d svgShape"/><path fill="#4c4b5e" d="M150.4,370.55l-25.41-12.8c0,0,12.47-28.9,20.98-32.01C175.37,318.33,150.4,370.55,150.4,370.55z" class="color4b4b5e svgShape"/><path fill="#a39dff" d="M168.71,410.4l12.2,6.95c0,0,4.54,12.01,2.15,13.02c-2.39,1.01-11.17,4-11.17,4s-5.26-7.28-7.62-9.01        c-2.35-1.73-5.09-8.6-5.09-8.6L168.71,410.4z" class="colorffbe9d svgShape"/><path fill="#4c4b5e" d="M227.76,327.03c0,0-3.68,18.37,2.51,99.18l-64.57-0.23c-1.72-27.11-5.03-36.57-23.71-90.44        c9.07-2.88,18.33-5.09,27.72-6.63c9.93-1.78,19.98-2.83,30.06-3.15C212.81,325.58,227.76,327.03,227.76,327.03z" class="color4b4b5e svgShape"/><path fill="#a39dff" d="M247.72,287.97c0,0,0.05-2.64,1.78-1.59c0.91,0.56,1.77,13.69,1.77,13.69l-3.25,0.42L247.72,287.97z" class="colorffbe9d svgShape"/><path fill="#a39dff" d="M235.05,338.69l9.41,15.61c0,0,4.26-18.92,5.13-36.05c0,0-1.93-4.53-4.31-11.41l0.53-8.17        c0.12-1.81,1.85-3.08,3.61-2.64l9.57,2.39c1.44,0.36,2.38,1.75,2.18,3.22l-2.24,16.46c0,0,4.09,55.51-7.71,57.88        c-12.57,2.52-27.59-29.31-27.59-29.31L235.05,338.69z" class="colorffbe9d svgShape"/><path d="M226.86,364.26l-13.35-23.3l5.08,22.75C221.81,372.9,227,369.3,226.86,364.26z" class="color000000 svgShape" opacity=".2"/><path fill="#4c4b5e" d="M237.46,333.49c6.25,13.17,8.11,15.41,8.11,15.41l-18.71,15.37c0,0-22.59-31.57-20.39-40.35        C207.82,318.55,222.64,307.37,237.46,333.49z" class="color4b4b5e svgShape"/><path fill="#272638" d="M203.75,260.43c0.78,4.75,0.23,9.62-1.61,14.07c-3.04,6.73-2.48,19.18,2.04,24.94        c3.66,4.65,9.95,6.24,14.2,10.37c4.26,4.13,6.78,10.11,4.21,16.05c-2.28,5.27-12.49,4.11-15.37,9        c-3.9,6.63-2.06,19.62-11.06,19.73c-12.81,0.24-15.86-11.1-24.73-9.05c-8.88,2.05-22.38,5.38-25.91-8.32        c-2.19-8.41,3.69-14.36,4.54-22.28c0.62-5.6-3.22-10.11-4.06-15.49c-0.88-5.61,0.53-11.34,3.9-15.91        c2.44-3.32,5.64-5.74,6.94-9.83c1.04-3.24,1.69-6.6,2.67-9.87c2.06-6.92,6.75-12.45,14.38-14.19        C195.1,244.9,201.71,251.94,203.75,260.43z" class="color263238 svgShape"/><path fill="#a39dff" d="M196.62,278.75c0.32,3.07,1.52,5.98,3.45,8.39c2.54,3.09,5.01,1.57,5.28-2.06        c0.25-3.2-0.78-8.69-3.81-10.57C198.51,272.63,196.26,275.03,196.62,278.75z" class="colorffbe9d svgShape"/><path fill="#272638" d="M212.95,255.26c1.26,2.73,0.36,6.49-2.36,7.78c0.42,5.63-5.21,10.89-10.8,10.09        c2.48-1.23,2.52-4.93,1.09-7.31c-2.63-4.37-10.59-8.79-4.8-13.98C200.49,247.88,210.52,250.01,212.95,255.26z" class="color263238 svgShape"/><g class="color000000 svgShape"><path fill="#04031c" d="M165.7,425.97c0,0-12.24,17.24-23.44,76.17c-14.76,62.26-39.43,151.15-39.43,151.15l25.21,5.54       c0,0,41.04-109.75,54.69-154.38c12.49-40.76,32.3-78.48,32.3-78.48H165.7z" class="color1c0303 svgShape"/><path fill="#04031c" d="M191.86,425.97c0,0,3.22,104.52,2.15,153.07c-4.77,46.63,7.47,63.41,8.62,80.8h24.22       c0,0,6.07-117.68,11-162.97c4.76-43.53-7.59-70.67-7.59-70.67L191.86,425.97z" class="color1c0303 svgShape"/></g><g class="color000000 svgShape"><path fill="#0f00ff" d="M221.32,679.56c-0.14-0.03-0.25-0.14-0.27-0.29c-0.03-0.14,0.03-0.27,0.15-0.34       c0.27-0.11,5.27-2.96,7.64-2.31c0.46,0.09,0.86,0.38,1.09,0.78c0.32,0.44,0.32,1.03,0,1.47c-0.59,0.84-2.29,1.09-4.2,1.09       C224.25,679.95,222.78,679.82,221.32,679.56z M228,677.15c-1.97,0.24-3.88,0.86-5.62,1.83c2.65,0.36,6.26,0.34,6.93-0.57       c0.15-0.13,0.23-0.32,0-0.74c-0.14-0.25-0.38-0.43-0.67-0.48c-0.22-0.03-0.43-0.03-0.65,0V677.15z" class="color007cff svgShape"/><path fill="#0f00ff" d="M221.19,679.48c-0.09-0.07-0.15-0.19-0.15-0.31c0.02-0.17,0.32-4.01,2.24-5.52       c0.53-0.45,1.22-0.65,1.91-0.57c0.94,0.1,1.26,0.57,1.26,0.96c0.27,1.66-3.15,4.7-4.89,5.48h-0.13       C221.34,679.54,221.25,679.52,221.19,679.48z M224.95,673.73c-0.45,0.01-0.88,0.18-1.2,0.5c-1.07,1.24-1.74,2.78-1.91,4.41       c1.78-1.07,4.09-3.49,3.93-4.47c-0.02-0.08-0.06-0.38-0.67-0.38h-0.19L224.95,673.73z" class="color007cff svgShape"/><polygon fill="#a39dff" points="207.13 653.63 221.41 651.74 219.98 679.18 205.7 679.18" class="colorffbe9d svgShape"/><path fill="#272638" d="M223.34,678.64c9.66,5.96,12.64,6.23,23.84,8.67c2.44,0.54,0.82,6.48-5.04,6.48       c-9.7,0-10.72-0.46-18.99-0.46c-7.09,0-15.22,0.33-20.86,0.42c-0.17,0-0.35-0.02-0.51-0.06c-1.11-0.26-1.79-1.38-1.53-2.48       l2.81-12.7c0.13-0.57,0.64-0.97,1.22-0.97h15.62C221.13,677.58,222.32,677.96,223.34,678.64z" class="color263238 svgShape"/><polygon points="207.11 653.65 206.38 664.81 220.69 664.81 221.41 653.65" class="color000000 svgShape" opacity=".2"/><g class="color000000 svgShape"><path fill="#04031c" d="M199.07,651.29l0.8,8.96h29.45c0,0,1.47-10.05,1.36-10.05L199.07,651.29z" class="color1c0303 svgShape"/></g><g class="color000000 svgShape"><path fill="#0f00ff" d="M102.12,679.39c-0.02,0.14-0.13,0.24-0.27,0.27c-0.14,0.03-0.28-0.04-0.34-0.17       c-0.13-0.25-2.94-5.27-2.27-7.64c0.11-0.44,0.39-0.83,0.78-1.07c0.45-0.32,1.04-0.32,1.49,0c0.82,0.61,1.05,2.31,1.05,4.22       C102.54,676.47,102.39,677.94,102.12,679.39z M99.79,672.7c0.22,1.97,0.81,3.87,1.74,5.62c0.4-2.65,0.4-6.26-0.52-6.93       c-0.11-0.15-0.32-0.23-0.75,0c-0.25,0.14-0.43,0.38-0.48,0.67C99.76,672.27,99.76,672.49,99.79,672.7L99.79,672.7z" class="color007cff svgShape"/><path fill="#0f00ff" d="M102.1,679.52c-0.07,0.1-0.19,0.15-0.31,0.13c-0.15-0.02-4.01-0.34-5.48-2.25       c-0.45-0.53-0.66-1.22-0.57-1.91c0.1-0.92,0.57-1.24,0.96-1.24c1.62-0.25,4.68,3.19,5.44,4.91c0.01,0.04,0.01,0.09,0,0.13       C102.16,679.37,102.14,679.45,102.1,679.52z M96.35,675.78c0.02,0.44,0.19,0.86,0.48,1.18c1.24,1.07,2.77,1.73,4.39,1.91       c-1.05-1.78-3.46-4.11-4.43-3.95c-0.08,0-0.38,0.04-0.38,0.65c0,0.08,0,0.21,0,0.21H96.35z" class="color007cff svgShape"/><polygon fill="#a39dff" points="108.36 651.95 122.3 653 115.87 680.38 101.91 679.39" class="colorffbe9d svgShape"/><polygon points="108.53 651.18 105.71 663.23 119.65 664.22 122.49 652.15" class="color000000 svgShape" opacity=".2"/><path fill="#272638" d="M98.55,677.55c-3.76,4.45-5.75,6.74-16.67,10.18c-2.41,0.75-0.25,6.51,5.6,6       c9.66-0.86,4.34-0.84,12.57-1.57c7.05-0.63,15.18-1.01,20.8-1.41c0.19-0.01,0.38-0.04,0.56-0.1c1.1-0.35,1.7-1.52,1.35-2.62       l-3.93-12.41c-0.17-0.56-0.72-0.92-1.3-0.86l-15.55,1.38C100.68,676.14,99.45,676.65,98.55,677.55z" class="color263238 svgShape"/><g class="color000000 svgShape"><path fill="#04031c" d="M99.81,648.62l-0.13,9.01l30.31,3.25c0,0,2.6-9.84,2.48-9.84L99.81,648.62z" class="color1c0303 svgShape"/></g></g></g></g></svg>