<svg xmlns="http://www.w3.org/2000/svg" xmlns:xlink="http://www.w3.org/1999/xlink" enable-background="new 0 0 2000 2000" viewBox="0 0 2000 2000" width="2000" height="2000"><path fill="#cecbff" d="M1333.82,1433.21H751.1c-5.44,0-9.86-4.41-9.86-9.86V603.86c0-5.44,4.41-9.86,9.86-9.86h582.72      c5.44,0,9.86,4.41,9.86,9.86v819.49C1343.68,1428.8,1339.27,1433.21,1333.82,1433.21z" class="colorcbd9ff svgShape"/><path fill="#655cff" d="M886.49,713.84l5.06-11.36c4.83,3.19,11.68,5.37,17.98,5.37c6.38,0,8.87-1.79,8.87-4.44       c0-8.64-30.98-2.34-30.98-22.57c0-9.73,7.94-17.67,24.13-17.67c7.08,0,14.4,1.63,19.77,4.75l-4.75,11.44       c-5.21-2.8-10.35-4.2-15.1-4.2c-6.46,0-8.79,2.18-8.79,4.91c0,8.33,30.9,2.1,30.9,22.18c0,9.5-7.94,17.59-24.13,17.59       C900.5,719.83,891.63,717.42,886.49,713.84z" class="color5c80ff svgShape"/><path fill="#655cff" d="M938.34,664.03c0-4.44,3.58-7.86,9.03-7.86c5.45,0,9.03,3.19,9.03,7.63c0,4.67-3.58,8.09-9.03,8.09       C941.92,671.89,938.34,668.47,938.34,664.03z M939.97,676.56h14.79v42.18h-14.79V676.56z" class="color5c80ff svgShape"/><path fill="#655cff" d="M1009.71,676.56v34.48c0,15.96-9.03,23.5-24.75,23.5c-8.09,0-15.8-1.87-20.94-5.52l5.37-10.35       c3.5,2.8,9.26,4.51,14.24,4.51c7.94,0,11.28-3.58,11.28-10.2v-1.4c-2.88,3.35-7.16,4.98-12.53,4.98       c-11.21,0-20.7-7.94-20.7-20.39c0-12.38,9.5-20.32,20.7-20.32c5.84,0,10.35,1.87,13.23,5.84v-5.14H1009.71z M995.08,696.18       c0-5.14-3.89-8.56-9.18-8.56c-5.29,0-9.26,3.42-9.26,8.56c0,5.14,3.97,8.64,9.26,8.64       C991.19,704.82,995.08,701.31,995.08,696.18z" class="color5c80ff svgShape"/><path fill="#655cff" d="M1064.13,694.62v24.13h-14.79v-21.71c0-6.07-2.65-8.64-6.93-8.64c-4.75,0-8.41,2.96-8.41,9.96v20.39       h-14.79v-42.18h14.09v4.59c3.35-3.5,8.09-5.29,13.39-5.29C1056.58,675.86,1064.13,681.54,1064.13,694.62z" class="color5c80ff svgShape"/><path fill="#655cff" d="M1140.42,676.56v42.18h-14.09v-4.51c-3.19,3.5-7.71,5.21-12.53,5.21c-10.35,0-17.9-5.92-17.9-19.3v-23.58       h14.79v21.17c0,6.54,2.57,9.11,7,9.11c4.36,0,7.94-2.88,7.94-9.96v-20.32H1140.42z" class="color5c80ff svgShape"/><path fill="#655cff" d="M1197.17,697.65c0,13.39-9.26,21.79-20.7,21.79c-4.91,0-8.87-1.48-11.75-4.44v18.84h-14.79v-57.28h14.09       v4.2c2.8-3.35,6.93-4.91,12.46-4.91C1187.91,675.86,1197.17,684.27,1197.17,697.65z M1182.23,697.65       c0-6.38-3.89-10.04-8.87-10.04s-8.88,3.66-8.88,10.04c0,6.38,3.89,10.04,8.88,10.04S1182.23,704.04,1182.23,697.65z" class="color5c80ff svgShape"/><g class="color000000 svgShape"><path fill="#272638" d="M809.85,875.53c68.08,0,136.17,0,204.25,0c0.56,0,0.56-0.87,0-0.87c-68.08,0-136.17,0-204.25,0        C809.29,874.66,809.29,875.53,809.85,875.53L809.85,875.53z" class="color263238 svgShape"/><path d="M1014.1,876.03H809.85c-0.53,0-0.92-0.4-0.92-0.94s0.4-0.94,0.92-0.94h204.25c0.53,0,0.92,0.4,0.92,0.94        S1014.63,876.03,1014.1,876.03z M809.85,875.03l0,0.5L809.85,875.03C809.85,875.03,809.85,875.03,809.85,875.03z" class="color000000 svgShape"/></g><g class="color000000 svgShape"><path fill="#272638" d="M1074.66,875.53c68.08,0,136.17,0,204.25,0c0.56,0,0.56-0.87,0-0.87c-68.08,0-136.17,0-204.25,0        C1074.1,874.66,1074.1,875.53,1074.66,875.53L1074.66,875.53z" class="color263238 svgShape"/><path d="M1278.91,876.03h-204.25c-0.53,0-0.92-0.4-0.92-0.94s0.4-0.94,0.92-0.94h204.25c0.53,0,0.92,0.4,0.92,0.94        S1279.44,876.03,1278.91,876.03z M1074.66,875.03l0,0.5L1074.66,875.03L1074.66,875.03z" class="color000000 svgShape"/></g><g class="color000000 svgShape"><path fill="#272638" d="M1026.01,873.3c0-6.7,5.16-11.69,12.18-11.69c6.96,0,12.12,4.96,12.12,11.69s-5.16,11.69-12.12,11.69       C1031.17,885,1026.01,880,1026.01,873.3z M1047.05,873.3c0-5.06-3.79-8.79-8.85-8.79c-5.13,0-8.91,3.73-8.91,8.79       s3.79,8.79,8.91,8.79C1043.26,882.09,1047.05,878.36,1047.05,873.3z" class="color263238 svgShape"/><path fill="#272638" d="M1064.16,867.26v3.04c-0.26-0.03-0.49-0.03-0.72-0.03c-3.36,0-5.45,2.06-5.45,5.85v8.62h-3.13v-17.31h3       v2.91C1058.96,868.3,1061.12,867.26,1064.16,867.26z" class="color263238 svgShape"/></g><g class="color000000 svgShape"><path fill="#fff" d="M1274.5,832.17l-462.12,0c-2.42,0-4.38-1.96-4.38-4.38v-49.33c0-2.42,1.96-4.38,4.38-4.38l462.12,0        c2.42,0,4.38,1.96,4.38,4.38v49.33C1278.88,830.21,1276.92,832.17,1274.5,832.17z" class="colorffffff svgShape"/><path fill="#272638" d="M921.24,809.16l1.06-2.24c1.5,1.35,4.06,2.33,6.64,2.33c3.48,0,4.98-1.35,4.98-3.11         c0-4.92-12.2-1.81-12.2-9.29c0-3.11,2.42-5.75,7.71-5.75c2.36,0,4.8,0.63,6.47,1.78l-0.95,2.3         c-1.75-1.12-3.74-1.64-5.52-1.64c-3.42,0-4.89,1.44-4.89,3.19c0,4.92,12.2,1.84,12.2,9.23c0,3.08-2.47,5.72-7.79,5.72         C925.87,811.69,922.85,810.65,921.24,809.16z" class="color263238 svgShape"/><path fill="#272638" d="M940.06,791.5c0-1.01,0.81-1.81,1.87-1.81c1.07,0,1.87,0.78,1.87,1.75c0,1.04-0.78,1.84-1.87,1.84         C940.87,793.28,940.06,792.51,940.06,791.5z M940.55,796.22h2.76v15.25h-2.76V796.22z" class="color263238 svgShape"/><path fill="#272638" d="M963.16,796.22v13.17c0,5.38-2.73,7.82-7.91,7.82c-2.79,0-5.61-0.78-7.28-2.27l1.32-2.13         c1.41,1.21,3.62,1.99,5.87,1.99c3.6,0,5.23-1.67,5.23-5.12v-1.21c-1.32,1.58-3.31,2.36-5.49,2.36c-4.4,0-7.74-2.99-7.74-7.39         c0-4.4,3.34-7.36,7.74-7.36c2.27,0,4.34,0.83,5.64,2.5v-2.36H963.16z M960.46,803.44c0-2.96-2.19-4.95-5.24-4.95         c-3.08,0-5.26,1.99-5.26,4.95c0,2.93,2.19,4.97,5.26,4.97C958.27,808.41,960.46,806.37,960.46,803.44z" class="color263238 svgShape"/><path fill="#272638" d="M982.9,802.69v8.77h-2.76V803c0-2.99-1.5-4.46-4.11-4.46c-2.93,0-4.83,1.75-4.83,5.06v7.85h-2.76v-15.25         h2.64v2.3c1.12-1.55,3.08-2.44,5.49-2.44C980.29,796.07,982.9,798.2,982.9,802.69z" class="color263238 svgShape"/><path fill="#272638" d="M1009.99,796.22v15.25h-2.62v-2.3c-1.12,1.58-3.02,2.47-5.18,2.47c-3.94,0-6.56-2.16-6.56-6.64v-8.77         h2.76v8.46c0,2.99,1.5,4.49,4.11,4.49c2.88,0,4.72-1.78,4.72-5.06v-7.88H1009.99z" class="color263238 svgShape"/><path fill="#272638" d="M1031.05,803.84c0,4.69-3.25,7.8-7.71,7.8c-2.16,0-4.06-0.83-5.32-2.47v7.88h-2.76v-20.83h2.64v2.42         c1.24-1.7,3.19-2.56,5.44-2.56C1027.81,796.07,1031.05,799.18,1031.05,803.84z M1028.26,803.84c0-3.22-2.22-5.35-5.15-5.35         c-2.9,0-5.12,2.13-5.12,5.35c0,3.25,2.22,5.38,5.12,5.38C1026.05,809.22,1028.26,807.09,1028.26,803.84z" class="color263238 svgShape"/><path fill="#272638" d="M1065.7,796.22l-5.7,15.25h-2.65l-4.4-11.56l-4.46,11.56h-2.64l-5.67-15.25h2.62l4.43,12.14l4.6-12.14         h2.33l4.52,12.2l4.54-12.2H1065.7z" class="color263238 svgShape"/><path fill="#272638" d="M1068.01,791.5c0-1.01,0.81-1.81,1.87-1.81c1.06,0,1.87,0.78,1.87,1.75c0,1.04-0.78,1.84-1.87,1.84         C1068.82,793.28,1068.01,792.51,1068.01,791.5z M1068.51,796.22h2.76v15.25h-2.76V796.22z" class="color263238 svgShape"/><path fill="#272638" d="M1085.11,810.57c-0.83,0.72-2.1,1.07-3.34,1.07c-3.08,0-4.83-1.7-4.83-4.78v-8.37h-2.59v-2.27h2.59         v-3.34h2.76v3.34h4.38v2.27h-4.38v8.26c0,1.64,0.86,2.56,2.39,2.56c0.81,0,1.58-0.26,2.15-0.72L1085.11,810.57z" class="color263238 svgShape"/><path fill="#272638" d="M1102.92,802.69v8.77h-2.76V803c0-2.99-1.49-4.46-4.11-4.46c-2.93,0-4.83,1.75-4.83,5.06v7.85h-2.76         v-21.34h2.76v8.26c1.15-1.47,3.05-2.3,5.38-2.3C1100.3,796.07,1102.92,798.2,1102.92,802.69z" class="color263238 svgShape"/><path fill="#272638" d="M1130.14,801.28h2.76v7.85c-2.01,1.7-4.8,2.56-7.62,2.56c-6.18,0-10.73-4.34-10.73-10.3         c0-5.96,4.54-10.3,10.78-10.3c3.19,0,5.9,1.06,7.74,3.11l-1.78,1.78c-1.67-1.61-3.57-2.33-5.84-2.33         c-4.66,0-8.02,3.25-8.02,7.74c0,4.43,3.36,7.74,8,7.74c1.7,0,3.28-0.37,4.72-1.29V801.28z" class="color263238 svgShape"/><path fill="#272638" d="M1136.6,803.84c0-4.54,3.36-7.76,7.94-7.76c4.57,0,7.91,3.22,7.91,7.76c0,4.55-3.34,7.8-7.91,7.8         C1139.96,811.63,1136.6,808.38,1136.6,803.84z M1149.66,803.84c0-3.25-2.19-5.35-5.12-5.35c-2.94,0-5.15,2.1-5.15,5.35         c0,3.25,2.21,5.38,5.15,5.38C1147.47,809.22,1149.66,807.09,1149.66,803.84z" class="color263238 svgShape"/><path fill="#272638" d="M1154.87,803.84c0-4.54,3.36-7.76,7.94-7.76c4.57,0,7.91,3.22,7.91,7.76c0,4.55-3.34,7.8-7.91,7.8         C1158.24,811.63,1154.87,808.38,1154.87,803.84z M1167.93,803.84c0-3.25-2.19-5.35-5.12-5.35c-2.94,0-5.15,2.1-5.15,5.35         c0,3.25,2.21,5.38,5.15,5.38C1165.75,809.22,1167.93,807.09,1167.93,803.84z" class="color263238 svgShape"/><path fill="#272638" d="M1189.14,796.22v13.17c0,5.38-2.73,7.82-7.91,7.82c-2.79,0-5.61-0.78-7.27-2.27l1.32-2.13         c1.41,1.21,3.63,1.99,5.87,1.99c3.6,0,5.24-1.67,5.24-5.12v-1.21c-1.33,1.58-3.31,2.36-5.49,2.36c-4.4,0-7.74-2.99-7.74-7.39         c0-4.4,3.34-7.36,7.74-7.36c2.27,0,4.34,0.83,5.64,2.5v-2.36H1189.14z M1186.44,803.44c0-2.96-2.19-4.95-5.24-4.95         c-3.08,0-5.26,1.99-5.26,4.95c0,2.93,2.18,4.97,5.26,4.97C1184.25,808.41,1186.44,806.37,1186.44,803.44z" class="color263238 svgShape"/><path fill="#272638" d="M1194.41,790.12h2.76v21.34h-2.76V790.12z" class="color263238 svgShape"/><path fill="#272638" d="M1216.16,804.76h-12.37c0.35,2.68,2.51,4.46,5.52,4.46c1.78,0,3.28-0.6,4.4-1.84l1.52,1.78         c-1.38,1.61-3.48,2.47-6.01,2.47c-4.92,0-8.2-3.25-8.2-7.8c0-4.52,3.25-7.76,7.65-7.76c4.4,0,7.54,3.16,7.54,7.85         C1216.22,804.16,1216.19,804.5,1216.16,804.76z M1203.79,802.77h9.78c-0.29-2.56-2.22-4.37-4.89-4.37         C1206.04,798.4,1204.08,800.19,1203.79,802.77z" class="color263238 svgShape"/><g class="color000000 svgShape"><path fill="#272638" d="M883.23,803.05v4.5h11.04c-0.96,3.9-4.44,6.34-9.24,6.34c-6.16,0-10.64-4.39-10.64-10.45         c0-3.48,1.76-6.79,4.67-8.69c4.67-3.05,10.27-1.88,13.19,1.46c0.75,0.85,1.95,1.13,2.94,0.57l0,0         c1.25-0.71,1.6-2.41,0.65-3.48c-2.68-3.04-6.68-4.85-10.96-4.85c-8.61,0-15.1,6.44-15.1,14.99s6.56,14.99,15.26,14.99         c8.18,0,14.12-5.49,14.12-13.06v-2.32H883.23z" class="color263238 svgShape"/></g></g><g class="color000000 svgShape"><path fill="#272638" d="M810.44,909.84v5.33h9.33v3.74h-9.33v7.34h-4.67v-20.16h15.23v3.74H810.44z" class="color263238 svgShape"/><path fill="#272638" d="M839.08,910.76v15.49h-4.26v-1.84c-1.18,1.35-2.91,2.07-4.81,2.07c-3.89,0-6.62-2.19-6.62-6.97v-8.75h4.49       v8.09c0,2.59,1.15,3.74,3.14,3.74c2.07,0,3.57-1.32,3.57-4.18v-7.66H839.08z" class="color263238 svgShape"/><path fill="#272638" d="M843.26,904.88h4.49v21.37h-4.49V904.88z" class="color263238 svgShape"/><path fill="#272638" d="M851.93,904.88h4.49v21.37h-4.49V904.88z" class="color263238 svgShape"/><path fill="#272638" d="M887.56,906.09v20.16h-3.83l-10.05-12.24v12.24h-4.61v-20.16h3.86l10.02,12.24v-12.24H887.56z" class="color263238 svgShape"/><path fill="#272638" d="M905.74,917.41v8.84h-4.2v-1.93c-0.84,1.41-2.45,2.16-4.72,2.16c-3.63,0-5.79-2.01-5.79-4.69       c0-2.73,1.93-4.64,6.65-4.64h3.57c0-1.93-1.15-3.05-3.57-3.05c-1.64,0-3.34,0.55-4.46,1.44l-1.61-3.14       c1.7-1.21,4.2-1.87,6.68-1.87C903,910.53,905.74,912.72,905.74,917.41z M901.25,921.35v-1.58h-3.08c-2.1,0-2.76,0.78-2.76,1.81       c0,1.12,0.95,1.87,2.53,1.87C899.44,923.46,900.73,922.77,901.25,921.35z" class="color263238 svgShape"/><path fill="#272638" d="M935.99,917.38v8.87h-4.49v-8.18c0-2.5-1.12-3.66-2.94-3.66c-2.01,0-3.43,1.3-3.43,4.06v7.77h-4.49v-8.18       c0-2.5-1.06-3.66-2.94-3.66c-1.99,0-3.4,1.3-3.4,4.06v7.77h-4.49v-15.49h4.29v1.78c1.15-1.32,2.88-2.02,4.87-2.02       c2.16,0,4,0.84,5.1,2.53c1.24-1.58,3.25-2.53,5.59-2.53C933.34,910.53,935.99,912.66,935.99,917.38z" class="color263238 svgShape"/><path fill="#272638" d="M955.29,919.77h-11.72c0.43,1.93,2.07,3.11,4.43,3.11c1.64,0,2.82-0.49,3.89-1.5l2.39,2.59       c-1.44,1.64-3.6,2.5-6.39,2.5c-5.35,0-8.84-3.37-8.84-7.98c0-4.64,3.54-7.98,8.26-7.98c4.55,0,8.06,3.05,8.06,8.03       C955.38,918.91,955.32,919.4,955.29,919.77z M943.52,917.15h7.63c-0.32-1.96-1.78-3.22-3.8-3.22       C945.3,913.93,943.83,915.16,943.52,917.15z" class="color263238 svgShape"/><path fill="#272638" d="M822.27,1019.35v3.96h-16.5v-21.3h16.1v3.96h-11.2v4.62h9.89v3.84h-9.89v4.93H822.27z" class="color263238 svgShape"/><path fill="#272638" d="M853.54,1013.94v9.37h-4.75v-8.64c0-2.65-1.19-3.87-3.1-3.87c-2.13,0-3.62,1.37-3.62,4.29v8.22h-4.75       v-8.64c0-2.65-1.12-3.87-3.11-3.87c-2.1,0-3.59,1.37-3.59,4.29v8.22h-4.75v-16.37h4.53v1.89c1.22-1.4,3.04-2.13,5.14-2.13       c2.28,0,4.23,0.88,5.38,2.68c1.31-1.67,3.44-2.68,5.91-2.68C850.74,1006.69,853.54,1008.95,853.54,1013.94z" class="color263238 svgShape"/><path fill="#272638" d="M872.31,1013.97v9.34h-4.44v-2.04c-0.88,1.49-2.59,2.28-4.99,2.28c-3.83,0-6.12-2.13-6.12-4.96       c0-2.89,2.04-4.9,7.03-4.9h3.77c0-2.04-1.22-3.23-3.77-3.23c-1.73,0-3.53,0.58-4.72,1.52l-1.7-3.32       c1.8-1.28,4.44-1.98,7.06-1.98C869.41,1006.69,872.31,1009.01,872.31,1013.97z M867.56,1018.14v-1.67h-3.26       c-2.22,0-2.92,0.82-2.92,1.92c0,1.19,1,1.98,2.68,1.98C865.64,1020.36,867.01,1019.63,867.56,1018.14z" class="color263238 svgShape"/><path fill="#272638" d="M876.03,1002.01c0-1.49,1.19-2.65,2.95-2.65c1.76,0,2.95,1.1,2.95,2.55c0,1.58-1.19,2.74-2.95,2.74       C877.22,1004.66,876.03,1003.5,876.03,1002.01z M876.61,1006.94h4.75v16.37h-4.75V1006.94z" class="color263238 svgShape"/><path fill="#272638" d="M885.77,1000.73h4.75v22.58h-4.75V1000.73z" class="color263238 svgShape"/><path fill="#272638" d="M917.92,1018.75h-9.89l-1.89,4.56h-5.05l9.5-21.3h4.87l9.53,21.3h-5.17L917.92,1018.75z M916.37,1015       l-3.38-8.16l-3.38,8.16H916.37z" class="color263238 svgShape"/><path fill="#272638" d="M943.41,1000.73v22.58h-4.54v-1.89c-1.18,1.43-2.92,2.13-5.11,2.13c-4.63,0-8.19-3.29-8.19-8.43       c0-5.14,3.56-8.43,8.19-8.43c2.01,0,3.71,0.64,4.9,1.98v-7.95H943.41z M938.75,1015.12c0-2.83-1.83-4.54-4.17-4.54       c-2.37,0-4.2,1.7-4.2,4.54c0,2.83,1.83,4.53,4.2,4.53C936.93,1019.66,938.75,1017.96,938.75,1015.12z" class="color263238 svgShape"/><path fill="#272638" d="M964.48,1000.73v22.58h-4.53v-1.89c-1.19,1.43-2.92,2.13-5.11,2.13c-4.63,0-8.18-3.29-8.18-8.43       c0-5.14,3.56-8.43,8.18-8.43c2.01,0,3.72,0.64,4.9,1.98v-7.95H964.48z M959.82,1015.12c0-2.83-1.83-4.54-4.17-4.54       c-2.37,0-4.2,1.7-4.2,4.54c0,2.83,1.83,4.53,4.2,4.53C958,1019.66,959.82,1017.96,959.82,1015.12z" class="color263238 svgShape"/><path fill="#272638" d="M979.04,1006.69v4.38c-0.39-0.03-0.7-0.06-1.07-0.06c-2.62,0-4.35,1.43-4.35,4.57v7.73h-4.75v-16.37h4.54       v2.16C974.57,1007.52,976.51,1006.69,979.04,1006.69z" class="color263238 svgShape"/><path fill="#272638" d="M997.68,1016.46h-12.39c0.46,2.04,2.19,3.29,4.69,3.29c1.73,0,2.98-0.52,4.11-1.58l2.53,2.74       c-1.52,1.73-3.8,2.65-6.76,2.65c-5.66,0-9.34-3.56-9.34-8.43c0-4.9,3.74-8.43,8.74-8.43c4.81,0,8.52,3.23,8.52,8.49       C997.76,1015.55,997.7,1016.07,997.68,1016.46z M985.23,1013.69h8.06c-0.33-2.07-1.89-3.41-4.02-3.41       C987.11,1010.29,985.56,1011.59,985.23,1013.69z" class="color263238 svgShape"/><path fill="#272638" d="M999.36,1021.79l1.58-3.41c1.46,0.94,3.68,1.58,5.69,1.58c2.19,0,3.01-0.58,3.01-1.49       c0-2.68-9.89,0.06-9.89-6.48c0-3.1,2.8-5.3,7.58-5.3c2.25,0,4.75,0.52,6.3,1.43l-1.58,3.38c-1.61-0.91-3.23-1.22-4.72-1.22       c-2.13,0-3.04,0.67-3.04,1.52c0,2.8,9.89,0.09,9.89,6.54c0,3.04-2.83,5.2-7.73,5.2       C1003.68,1023.55,1000.88,1022.79,999.36,1021.79z" class="color263238 svgShape"/><path fill="#272638" d="M1015.53,1021.79l1.58-3.41c1.46,0.94,3.68,1.58,5.69,1.58c2.19,0,3.01-0.58,3.01-1.49       c0-2.68-9.89,0.06-9.89-6.48c0-3.1,2.8-5.3,7.58-5.3c2.25,0,4.75,0.52,6.3,1.43l-1.58,3.38c-1.61-0.91-3.23-1.22-4.72-1.22       c-2.13,0-3.04,0.67-3.04,1.52c0,2.8,9.89,0.09,9.89,6.54c0,3.04-2.83,5.2-7.73,5.2       C1019.85,1023.55,1017.05,1022.79,1015.53,1021.79z" class="color263238 svgShape"/><g class="color000000 svgShape"><path fill="#272638" d="M826.46,1103.44c0,4.74-3.56,7.7-9.25,7.7h-4.29v5.87H808v-21.29h9.22       C822.9,1095.72,826.46,1098.67,826.46,1103.44z M821.47,1103.44c0-2.34-1.52-3.71-4.53-3.71h-4.01v7.39h4.01       C819.95,1107.12,821.47,1105.75,821.47,1103.44z" class="color263238 svgShape"/><path fill="#272638" d="M843.96,1107.67v9.34h-4.44v-2.04c-0.88,1.49-2.59,2.28-4.99,2.28c-3.83,0-6.11-2.13-6.11-4.96       c0-2.89,2.04-4.89,7.03-4.89h3.77c0-2.04-1.22-3.22-3.77-3.22c-1.73,0-3.53,0.57-4.71,1.52l-1.7-3.32       c1.8-1.28,4.44-1.98,7.06-1.98C841.07,1100.4,843.96,1102.71,843.96,1107.67z M839.22,1111.84v-1.67h-3.25       c-2.22,0-2.92,0.82-2.92,1.92c0,1.19,1,1.98,2.68,1.98C837.3,1114.05,838.67,1113.33,839.22,1111.84z" class="color263238 svgShape"/><path fill="#272638" d="M846.68,1115.49l1.58-3.41c1.46,0.95,3.68,1.59,5.69,1.59c2.19,0,3.01-0.58,3.01-1.49       c0-2.68-9.89,0.06-9.89-6.48c0-3.11,2.8-5.29,7.57-5.29c2.25,0,4.75,0.52,6.3,1.43l-1.58,3.37c-1.61-0.91-3.22-1.21-4.72-1.21       c-2.13,0-3.04,0.67-3.04,1.52c0,2.8,9.89,0.09,9.89,6.54c0,3.04-2.83,5.2-7.73,5.2C851,1117.25,848.2,1116.49,846.68,1115.49z" class="color263238 svgShape"/><path fill="#272638" d="M862.84,1115.49l1.58-3.41c1.46,0.95,3.68,1.59,5.69,1.59c2.19,0,3.01-0.58,3.01-1.49       c0-2.68-9.89,0.06-9.89-6.48c0-3.11,2.8-5.29,7.57-5.29c2.25,0,4.75,0.52,6.3,1.43l-1.58,3.37c-1.61-0.91-3.22-1.21-4.72-1.21       c-2.13,0-3.04,0.67-3.04,1.52c0,2.8,9.89,0.09,9.89,6.54c0,3.04-2.83,5.2-7.73,5.2       C867.16,1117.25,864.36,1116.49,862.84,1115.49z" class="color263238 svgShape"/><path fill="#272638" d="M906.56,1100.64l-5.93,16.37h-4.56l-3.68-10.16l-3.8,10.16h-4.56l-5.9-16.37h4.47l3.86,11.08l4.01-11.08       h4.02l3.89,11.08l3.98-11.08H906.56z" class="color263238 svgShape"/><path fill="#272638" d="M907.12,1108.82c0-4.93,3.8-8.43,9-8.43s8.97,3.5,8.97,8.43s-3.77,8.43-8.97,8.43       S907.12,1113.75,907.12,1108.82z M920.29,1108.82c0-2.83-1.8-4.53-4.17-4.53c-2.37,0-4.2,1.7-4.2,4.53s1.83,4.53,4.2,4.53       C918.49,1113.36,920.29,1111.65,920.29,1108.82z" class="color263238 svgShape"/><path fill="#272638" d="M938.43,1100.4v4.38c-0.39-0.03-0.7-0.06-1.06-0.06c-2.62,0-4.35,1.43-4.35,4.56v7.73h-4.75v-16.37h4.53       v2.16C933.96,1101.22,935.91,1100.4,938.43,1100.4z" class="color263238 svgShape"/><path fill="#272638" d="M957.78,1094.44v22.57h-4.53v-1.89c-1.18,1.43-2.92,2.13-5.11,2.13c-4.62,0-8.18-3.28-8.18-8.43       s3.56-8.43,8.18-8.43c2.01,0,3.71,0.64,4.9,1.98v-7.94H957.78z M953.13,1108.82c0-2.83-1.83-4.53-4.17-4.53       c-2.37,0-4.2,1.7-4.2,4.53s1.83,4.53,4.2,4.53C951.3,1113.36,953.13,1111.65,953.13,1108.82z" class="color263238 svgShape"/></g><g class="color000000 svgShape"><path fill="#655cff" d="M1205.79,1352.36l-303.27,0c-2.64,0-4.78-2.14-4.78-4.78v-54.47c0-2.64,2.14-4.78,4.78-4.78h303.27        c2.64,0,4.78,2.14,4.78,4.78v54.47C1210.57,1350.22,1208.43,1352.36,1205.79,1352.36z" class="color5c80ff svgShape"/><path fill="#fff" d="M933,1318.9c0-6.3,4.82-10.76,11.38-10.76c3.81,0,6.88,1.39,8.9,3.9l-3.72,3.37        c-1.3-1.57-2.9-2.43-4.88-2.43c-3.4,0-5.76,2.36-5.76,5.91c0,3.54,2.37,5.91,5.76,5.91c1.98,0,3.58-0.86,4.88-2.42l3.72,3.37        c-2.01,2.51-5.08,3.9-8.9,3.9C937.81,1329.65,933,1325.19,933,1318.9z" class="colorffffff svgShape"/><path fill="#fff" d="M966.32,1312.95v5.06c-0.5-0.06-0.86-0.09-1.27-0.09c-2.28,0-3.84,1.15-3.84,3.96v7.36h-5.61v-16.02h5.35        v1.92C962.09,1313.7,963.95,1312.95,966.32,1312.95z" class="colorffffff svgShape"/><path fill="#fff" d="M984.75,1322.65h-11.64c0.47,1.62,1.86,2.57,3.93,2.57c1.57,0,2.6-0.45,3.69-1.39l2.95,3.07        c-1.54,1.71-3.78,2.6-6.83,2.6c-5.7,0-9.4-3.52-9.4-8.31c0-4.82,3.75-8.24,8.81-8.24c4.73,0,8.57,3.02,8.57,8.31        C984.84,1321.67,984.78,1322.2,984.75,1322.65z M973.02,1319.69h6.56c-0.29-1.68-1.54-2.75-3.28-2.75        C974.55,1316.94,973.34,1318.01,973.02,1319.69z" class="colorffffff svgShape"/><path fill="#fff" d="M1002,1320.34v8.9h-5.23v-2.07c-0.8,1.54-2.39,2.34-4.73,2.34c-3.84,0-5.97-2.16-5.97-4.94        c0-2.95,2.16-4.79,7.12-4.79h3.19c-0.09-1.62-1.18-2.54-3.4-2.54c-1.54,0-3.25,0.53-4.34,1.39l-1.89-3.81        c1.83-1.21,4.55-1.86,7.06-1.86C999.01,1312.95,1002,1315.26,1002,1320.34z M996.38,1324.1v-1.39h-2.42        c-1.8,0-2.45,0.65-2.45,1.62c0,0.95,0.77,1.63,2.1,1.63C994.84,1325.96,995.94,1325.36,996.38,1324.1z" class="colorffffff svgShape"/><path fill="#fff" d="M1016.58,1328.59c-0.98,0.62-2.42,0.92-3.9,0.92c-4.11,0-6.5-2.01-6.5-6.12v-5.38h-2.34v-4.2h2.34v-4.17        h5.61v4.17h3.66v4.2h-3.66v5.32c0,1.18,0.68,1.83,1.68,1.83c0.62,0,1.24-0.18,1.71-0.5L1016.58,1328.59z" class="colorffffff svgShape"/><path fill="#fff" d="M1034.54,1322.65h-11.64c0.47,1.62,1.86,2.57,3.93,2.57c1.57,0,2.6-0.45,3.69-1.39l2.95,3.07        c-1.53,1.71-3.78,2.6-6.82,2.6c-5.7,0-9.4-3.52-9.4-8.31c0-4.82,3.75-8.24,8.8-8.24c4.73,0,8.57,3.02,8.57,8.31        C1034.63,1321.67,1034.57,1322.2,1034.54,1322.65z M1022.81,1319.69h6.56c-0.3-1.68-1.54-2.75-3.28-2.75        C1024.35,1316.94,1023.13,1318.01,1022.81,1319.69z" class="colorffffff svgShape"/><path fill="#fff" d="M1059.94,1325.22h-8.75l-1.63,4.02h-5.96l9.13-20.68h5.76l9.16,20.68h-6.09L1059.94,1325.22z         M1058.22,1320.91l-2.66-6.62l-2.66,6.62H1058.22z" class="colorffffff svgShape"/><path fill="#fff" d="M1067.87,1321.2c0-4.82,3.81-8.24,9.19-8.24c3.63,0,6.41,1.63,7.51,4.4l-4.35,2.22        c-0.77-1.51-1.89-2.16-3.19-2.16c-1.95,0-3.49,1.36-3.49,3.78c0,2.48,1.54,3.84,3.49,3.84c1.3,0,2.42-0.65,3.19-2.16        l4.35,2.22c-1.1,2.78-3.87,4.4-7.51,4.4C1071.68,1329.51,1067.87,1326.08,1067.87,1321.2z" class="colorffffff svgShape"/><path fill="#fff" d="M1085.51,1321.2c0-4.82,3.81-8.24,9.19-8.24c3.63,0,6.41,1.63,7.51,4.4l-4.35,2.22        c-0.77-1.51-1.89-2.16-3.19-2.16c-1.95,0-3.49,1.36-3.49,3.78c0,2.48,1.54,3.84,3.49,3.84c1.3,0,2.42-0.65,3.19-2.16        l4.35,2.22c-1.1,2.78-3.87,4.4-7.51,4.4C1089.32,1329.51,1085.51,1326.08,1085.51,1321.2z" class="colorffffff svgShape"/><path fill="#fff" d="M1103.14,1321.2c0-4.82,3.81-8.24,9.04-8.24c5.29,0,9.04,3.43,9.04,8.24c0,4.85-3.75,8.31-9.04,8.31        C1106.95,1329.51,1103.14,1326.04,1103.14,1321.2z M1115.55,1321.2c0-2.42-1.45-3.78-3.37-3.78c-1.89,0-3.37,1.36-3.37,3.78        c0,2.46,1.47,3.84,3.37,3.84C1114.1,1325.04,1115.55,1323.65,1115.55,1321.2z" class="colorffffff svgShape"/><path fill="#fff" d="M1140.65,1313.22v16.02h-5.35v-1.71c-1.21,1.33-2.93,1.98-4.75,1.98c-3.93,0-6.8-2.25-6.8-7.33v-8.95        h5.62v8.04c0,2.48,0.97,3.46,2.66,3.46c1.66,0,3.02-1.1,3.02-3.78v-7.71H1140.65z" class="colorffffff svgShape"/><path fill="#fff" d="M1161.3,1320.08v9.16h-5.62v-8.24c0-2.3-1.01-3.28-2.63-3.28c-1.8,0-3.19,1.12-3.19,3.78v7.74h-5.62        v-16.02h5.35v1.74c1.27-1.33,3.07-2.01,5.08-2.01C1158.43,1312.95,1161.3,1315.11,1161.3,1320.08z" class="colorffffff svgShape"/><path fill="#fff" d="M1175.85,1328.59c-0.98,0.62-2.42,0.92-3.9,0.92c-4.11,0-6.5-2.01-6.5-6.12v-5.38h-2.33v-4.2h2.33v-4.17        h5.62v4.17h3.66v4.2h-3.66v5.32c0,1.18,0.68,1.83,1.69,1.83c0.62,0,1.24-0.18,1.71-0.5L1175.85,1328.59z" class="colorffffff svgShape"/></g><g class="color000000 svgShape"><path fill="#272638" d="M1054.95,916.82v-11.93h4.93v11.75c0,4.05,1.77,5.72,4.75,5.72c3.01,0,4.74-1.68,4.74-5.72v-11.75h4.87       v11.93c0,6.27-3.59,9.74-9.65,9.74C1058.54,926.56,1054.95,923.09,1054.95,916.82z" class="color263238 svgShape"/><path fill="#272638" d="M1077.22,924.67l1.58-3.41c1.46,0.94,3.68,1.58,5.69,1.58c2.2,0,3.01-0.58,3.01-1.49       c0-2.68-9.89,0.06-9.89-6.49c0-3.1,2.8-5.3,7.58-5.3c2.25,0,4.75,0.52,6.3,1.43l-1.59,3.38c-1.61-0.91-3.22-1.22-4.72-1.22       c-2.13,0-3.04,0.67-3.04,1.52c0,2.8,9.89,0.09,9.89,6.55c0,3.04-2.83,5.21-7.73,5.21       C1081.55,926.44,1078.74,925.68,1077.22,924.67z" class="color263238 svgShape"/><path fill="#272638" d="M1110.94,919.35h-12.39c0.46,2.04,2.19,3.29,4.69,3.29c1.74,0,2.98-0.52,4.11-1.58l2.53,2.74       c-1.52,1.74-3.81,2.65-6.76,2.65c-5.66,0-9.35-3.56-9.35-8.43c0-4.9,3.74-8.43,8.74-8.43c4.81,0,8.52,3.23,8.52,8.5       C1111.03,918.43,1110.97,918.95,1110.94,919.35z M1098.48,916.57h8.07c-0.34-2.07-1.89-3.41-4.02-3.41       C1100.37,913.17,1098.82,914.47,1098.48,916.57z" class="color263238 svgShape"/><path fill="#272638" d="M1124.38,909.57v4.39c-0.4-0.03-0.7-0.06-1.07-0.06c-2.62,0-4.35,1.43-4.35,4.57v7.73h-4.75v-16.38h4.54       v2.16C1119.9,910.39,1121.85,909.57,1124.38,909.57z" class="color263238 svgShape"/><path fill="#272638" d="M1143.96,916.82v9.38h-4.74v-8.65c0-2.65-1.22-3.87-3.32-3.87c-2.28,0-3.93,1.4-3.93,4.42v8.1h-4.75       v-16.38h4.54v1.92c1.28-1.4,3.2-2.16,5.42-2.16C1141.04,909.57,1143.96,911.82,1143.96,916.82z" class="color263238 svgShape"/><path fill="#272638" d="M1162.76,916.85v9.35h-4.44v-2.04c-0.89,1.49-2.59,2.28-5,2.28c-3.83,0-6.12-2.13-6.12-4.96       c0-2.89,2.04-4.9,7.04-4.9h3.77c0-2.04-1.22-3.23-3.77-3.23c-1.74,0-3.54,0.58-4.72,1.52l-1.71-3.32       c1.8-1.28,4.45-1.98,7.07-1.98C1159.87,909.57,1162.76,911.89,1162.76,916.85z M1158.01,921.02v-1.67h-3.26       c-2.22,0-2.92,0.82-2.92,1.92c0,1.19,1,1.98,2.68,1.98C1156.09,923.24,1157.46,922.51,1158.01,921.02z" class="color263238 svgShape"/><path fill="#272638" d="M1194.74,916.82v9.38h-4.75v-8.65c0-2.65-1.19-3.87-3.1-3.87c-2.13,0-3.62,1.37-3.62,4.29v8.22h-4.75       v-8.65c0-2.65-1.13-3.87-3.1-3.87c-2.1,0-3.59,1.37-3.59,4.29v8.22h-4.75v-16.38h4.54v1.89c1.22-1.4,3.04-2.13,5.15-2.13       c2.28,0,4.23,0.89,5.39,2.68c1.31-1.67,3.44-2.68,5.91-2.68C1191.93,909.57,1194.74,911.82,1194.74,916.82z" class="color263238 svgShape"/><path fill="#272638" d="M1215.15,919.35h-12.39c0.46,2.04,2.19,3.29,4.69,3.29c1.74,0,2.98-0.52,4.11-1.58l2.53,2.74       c-1.52,1.74-3.81,2.65-6.76,2.65c-5.66,0-9.35-3.56-9.35-8.43c0-4.9,3.74-8.43,8.74-8.43c4.81,0,8.52,3.23,8.52,8.5       C1215.24,918.43,1215.18,918.95,1215.15,919.35z M1202.7,916.57h8.07c-0.34-2.07-1.89-3.41-4.02-3.41       C1204.59,913.17,1203.04,914.47,1202.7,916.57z" class="color263238 svgShape"/></g><g class="color000000 svgShape"><path fill="#fff" d="M1027.21,986.88H807.18c-1.73,0-3.14-1.4-3.14-3.14v-38.06c0-1.73,1.4-3.14,3.14-3.14h220.04       c1.73,0,3.14,1.4,3.14,3.14v38.06C1030.35,985.48,1028.94,986.88,1027.21,986.88z" class="colorffffff svgShape"/></g><g class="color000000 svgShape"><path fill="#fff" d="M1272.36,1081.02H807.18c-1.73,0-3.14-1.4-3.14-3.14v-38.06c0-1.73,1.4-3.14,3.14-3.14h465.19       c1.73,0,3.14,1.4,3.14,3.14v38.06C1275.5,1079.62,1274.1,1081.02,1272.36,1081.02z" class="colorffffff svgShape"/></g><g class="color000000 svgShape"><path fill="#fff" d="M1272.36,1175.41l-465.19,0c-1.73,0-3.14-1.4-3.14-3.14v-38.06c0-1.73,1.4-3.14,3.14-3.14l465.19,0       c1.73,0,3.14,1.4,3.14,3.14v38.06C1275.5,1174,1274.1,1175.41,1272.36,1175.41z" class="colorffffff svgShape"/></g><g class="color000000 svgShape"><path fill="#fff" d="M1272.36,986.88h-215.89c-1.73,0-3.14-1.4-3.14-3.14l0-38.06c0-1.73,1.4-3.14,3.14-3.14h215.89       c1.73,0,3.14,1.4,3.14,3.14v38.06C1275.5,985.48,1274.1,986.88,1272.36,986.88z" class="colorffffff svgShape"/></g><g class="color000000 svgShape"><path fill="#655cff" d="M827.11,1219.3h-16.49c-0.55,0-0.99-0.44-0.99-0.99l0-16.49c0-0.55,0.44-0.99,0.99-0.99h16.49       c0.55,0,0.99,0.44,0.99,0.99v16.49C828.11,1218.86,827.66,1219.3,827.11,1219.3z" class="color5c80ff svgShape"/></g><g class="color000000 svgShape"><path fill="#fff" d="M1254.42,1218.04l-406.31,0c-3.76,0-6.81-3.05-6.81-6.81l0,0c0-3.76,3.05-6.81,6.81-6.81h406.31       c3.76,0,6.81,3.05,6.81,6.81l0,0C1261.23,1214.99,1258.18,1218.04,1254.42,1218.04z" class="colorffffff svgShape"/></g><g class="color000000 svgShape"><path fill="#fff" d="M914.96,1243.52H850.2c-3.76,0-6.81-3.05-6.81-6.81l0,0c0-3.76,3.05-6.81,6.81-6.81h64.76       c3.76,0,6.81,3.05,6.81,6.81l0,0C921.77,1240.47,918.72,1243.52,914.96,1243.52z" class="colorffffff svgShape"/></g></g><g class="color000000 svgShape"><rect width="1293.77" height="14.1" x="353.12" y="1494.37" fill="#2f2d54" class="color2d3154 svgShape"/></g><g class="color000000 svgShape"><path fill="#3a3493" d="M1398.24,1251.42c-11.13-6.99-23.88-11.38-36.96-12.72c-6.04-0.62-12.64-0.44-17.48,3.21          c-1.03,0.78-2.03,1.92-1.8,3.19c0.17,0.93,0.96,1.61,1.71,2.18C1358.74,1258.76,1381.49,1260.21,1398.24,1251.42" class="color348c93 svgShape"/><path fill="#3a3493" d="M1397.29,1250.37c-8.37-6.53-16.78-13.1-23.87-21c-7.09-7.9-12.85-17.28-14.97-27.68          c-0.64-3.15-0.84-6.76,1.18-9.26C1378.66,1207.29,1393.61,1226.51,1397.29,1250.37" class="color348c93 svgShape"/><path fill="#3a3493" d="M1398.04,1251.28c-1.43-10.41-1.95-21.11,0.44-31.34c2.39-10.23,7.96-20.02,16.69-25.86          c3.29,7.68,1.87,16.54-0.44,24.57c-3.58,12.41-9.19,24.23-16.55,34.85" class="color348c93 svgShape"/><path fill="#3a3493" d="M1416.69,1284.7c-11.32,1.38-21.18,7.34-29.64,15c-8.45,7.66-14.46,17.97-16.95,29.1          c11.11-0.69,20.53-8.52,27.36-17.3c6.83-8.78,11.57-18.42,19.07-26.63" class="color348c93 svgShape"/><path fill="#3a3493" d="M1420.74,1290.04c-9.12-22.46-5.82-49.53,8.44-69.15C1435.63,1243.84,1433.27,1269.76,1420.74,1290.04" class="color348c93 svgShape"/><path fill="#3a3493" d="M1445.39,1319.39c-10.28-0.64-20.72,1.81-29.65,6.95c-8.92,5.14-16.29,12.94-20.9,22.15          c-0.63,1.25-1.18,2.84-0.34,3.96c0.73,0.97,2.14,1.06,3.35,0.99c9.96-0.65,18.79-6.64,26.07-13.46          c7.28-6.82,13.63-14.71,21.68-20.61" class="color348c93 svgShape"/><path fill="#3a3493" d="M1444.6,1317.79c-5.3-16.96-5.63-35.44-0.94-52.58c1.85-6.77,4.96-13.89,11.22-17.07          c0.53-0.27,1.16-0.51,1.72-0.3c0.53,0.2,0.84,0.75,1.08,1.26c2.23,4.65,2.88,9.93,2.65,15.09          c-0.23,5.15-1.3,10.23-2.36,15.27c-1.97,9.33-3.02,19.36-8.14,27.41c-1.22,1.91-2.29,3.97-3.25,6.02          c-0.97,2.05-0.98,2.77-1.86,4.39" class="color348c93 svgShape"/><path fill="#3a3493" d="M1509.84,1327.51c-4.83-18.38,0.3-40.67,11.88-55.74c0.85-1.11,1.98-2.3,3.38-2.17          c2.13,0.2,2.69,3.04,2.59,5.18C1526.85,1293.56,1520.58,1312.08,1509.84,1327.51" class="color348c93 svgShape"/><path fill="#3a3493" d="M1515.72,1331.53c22.34,5.81,47.96,0.16,66.54-13.53c-11.01-5.58-23.99-7.17-36.02-4.42          C1534.21,1316.33,1523.21,1321.72,1515.72,1331.53" class="color348c93 svgShape"/><path fill="#3a3493" d="M1520.68,1319.29c12.51-20.4,36.49-33.71,60.39-34.92c-2.75,9.72-10.74,17.27-19.75,21.84          c-9.01,4.56-19.07,6.55-28.99,8.48C1528.47,1315.44,1523.18,1316.26,1520.68,1319.29" class="color348c93 svgShape"/><path fill="#3a3493" d="M1511.08,1259.89c3.39-11.61,6.79-23.31,7.72-35.37c0.93-12.05-0.79-24.64-7.04-34.98          c-11.69,22.61-12.87,49.03-1.03,71.56" class="color348c93 svgShape"/><path fill="#3a3493" d="M1550.42,1240.01c13.67-24.84,41.54-44.67,69.75-47.45          C1609.29,1219.65,1579.62,1240.59,1550.42,1240.01" class="color348c93 svgShape"/><path fill="#3a3493" d="M1541.83,1244.87c20.38,3.1,37.74,16.12,56.79,24.01c4.07,1.69,8.47,3.03,12.84,2.46          c4.37-0.57,8.68-3.51,9.66-7.8c0.81-3.57-0.81-7.36-3.37-9.97c-2.56-2.62-5.94-4.25-9.32-5.66          c-20.74-8.64-42.99-8.85-64.84-3.61" class="color348c93 svgShape"/><path fill="#3a3493" d="M1530.03,1259.17c4.61,1.32,6.19,3.71,9.84,6.82c12.4,10.56,27.26,18.19,43.06,22.12          c1.65,0.41,3.8,0.57,4.62-0.91c0.71-1.3-0.19-2.87-1.11-4.03c-6.62-8.28-16.06-13.95-26-17.65          c-9.94-3.7-18.55-8.16-30.41-7.2" class="color348c93 svgShape"/><path fill="#3a3493" d="M1516.72,1172.84c16.57,15.47,39.91,23.41,62.48,21.26c1.03-0.1,2.15-0.26,2.84-1.02          c1.57-1.71-0.31-4.35-2.15-5.78C1561.53,1172.97,1539.28,1167.03,1516.72,1172.84" class="color348c93 svgShape"/><path fill="#3a3493" d="M1532.5,1167.06c21.91-16.42,51.94-21.38,77.96-12.86c-9.82,9.68-23.44,14.88-37.15,16.31          C1559.6,1171.94,1545.87,1170.42,1532.5,1167.06" class="color348c93 svgShape"/><path fill="#3a3493" d="M1526.23,1127.39c-1.8-18.34-0.63-32.81-1.91-51.23c-0.1-1.47-0.42-3.24-1.79-3.77          c-1.92-0.74-3.52,1.62-4.14,3.57c-5.46,16.98-2.48,36.46,7.82,51.02" class="color348c93 svgShape"/><path fill="#3a3493" d="M1524.91,1129.42c12.43-7.69,21.75-17.72,30.37-29.52c6-8.21,11.06-18.04,9.69-28.12          c-8.42-0.17-16.43,4.48-21.91,10.88c-5.48,6.4-8.74,14.4-11.17,22.47C1529.47,1113.2,1527.77,1121.49,1524.91,1129.42" class="color348c93 svgShape"/><path fill="#3a3493" d="M1554.75,1121.13c27.27-10.09,52.72-25.09,74.75-44.07c-8.93-3.6-19.15-1.44-28.08,2.16          c-20.39,8.23-37.06,22.13-47.06,41.72" class="color348c93 svgShape"/><path fill="#3a3493" d="M1533.3,1139.45c13.8,1.51,27.81,2.49,41.5,0.2c13.46-2.25,26.17-7.58,38.75-12.87          c1.04-0.44,2.18-0.96,2.63-2c0.5-1.12-0.03-2.49-0.94-3.32c-0.91-0.82-2.12-1.22-3.3-1.55c-13.67-3.82-28.42-2.03-41.87,2.5          C1556.62,1126.95,1545.59,1132.34,1533.3,1139.45" class="color348c93 svgShape"/><path fill="#3a3493" d="M1454.51,1173.46c-9.41-19-8.8-41.18-0.67-60.76c5.72,8.72,6.42,19.83,5.38,30.21          c-1.05,10.38-4.21,21.06-4.41,31.5" class="color348c93 svgShape"/><path fill="#3a3493" d="M1416.91,1154.5c-23.5-0.45-47.02,9.57-62.97,26.83c11.73,1.84,23.81-1.18,34.48-6.39          c10.67-5.21,20.15-12.52,29.55-19.78" class="color348c93 svgShape"/><path fill="#3a3493" d="M1391.62,1146.04c-11.5-0.93-22.56-2.36-33.62,1.03c-11.06,3.39-21.12,11.08-25.62,21.73          c10.75,1.21,21.66-1.48,31.52-5.95C1373.76,1158.38,1382.72,1152.19,1391.62,1146.04" class="color348c93 svgShape"/><path fill="#3a3493" d="M1429.06,1146.43c-10.34-6.78-20.97-13.68-33.01-16.49c-12.04-2.81-26-0.73-34.4,8.34          c9.75,5.72,21.58,6.4,32.88,6.39c11.3-0.01,25.16-0.14,35.82,3.63" class="color348c93 svgShape"/><path fill="#3a3493" d="M1429.12,1146.97c-17.68-17.36-24.39-48.56-17.27-72.3C1425.75,1095.8,1431.97,1121.85,1429.12,1146.97          " class="color348c93 svgShape"/><path fill="#3a3493" d="M1477.75,1097.77c3.33-7.75,5.68-15.89,8.67-23.78c2.99-7.89,6.71-15.66,12.36-21.93          c5.65-6.27,13.47-10.93,21.9-11.35c-5.28,23.89-21.15,45.24-42.51,57.18" class="color348c93 svgShape"/><path fill="#3a3493" d="M1468.95,1108.03c-5.52-7.6-11.9-17.91-19.38-23.58c-7.48-5.67-17.23-9.1-26.36-6.92          C1432.49,1094.13,1450.05,1105.83,1468.95,1108.03" class="color348c93 svgShape"/><path fill="#3a3493" d="M1470.71,1098.41c-3.62-9.19-7.26-18.48-8.72-28.25c-1.46-9.77-0.57-20.2,4.42-28.73          c9.71,18.35,12.83,38.05,4.8,57.19" class="color348c93 svgShape"/><path fill="#3a3493" d="M1477.84,1041.43c5.5-18.19,22.15-31.58,40.14-37.73c2.27-0.77,4.67-1.42,7.04-1.06          c2.37,0.37,4.69,1.99,5.19,4.33c0.66,3.09-1.9,5.87-4.3,7.92C1511.89,1026.87,1495.43,1035.96,1477.84,1041.43" class="color348c93 svgShape"/><path fill="#3a3493" d="M1478.03,1026.55c0.7-11.73,1.43-23.63,5.25-34.74c3.81-11.11,11.17-21.54,21.86-26.4          c1.82,11.85-3.41,23.63-9.71,33.82c-6.3,10.19-13.9,19.81-17.69,31.18" class="color348c93 svgShape"/><path fill="#3a3493" d="M1477.75,1034.63c-4.54-13.26-5.01-30.1-12.95-41.64c-5.55-8.07-14.44-13.57-19.22-22.12          c-3.18,7.99-2.2,17.19,1.12,25.11c3.32,7.93,8.81,14.75,14.69,21.02C1467.26,1023.27,1472.29,1027.99,1477.75,1034.63" class="color348c93 svgShape"/><path fill="#3a3493" d="M1477.84,1426.22c-1.19,0-1.22-1.05-1.26-2.17c-0.02-0.68-0.04-1.69-0.07-3.01           c-0.04-2.63-0.08-6.52-0.12-11.52c-0.08-9.95-0.15-24.19-0.21-42.33c-0.13-37.29-0.21-86.89-0.22-139.65           c-0.01-52.76,0.04-102.36,0.16-139.68c0.05-18.14,0.12-32.38,0.19-42.33c0.04-5,0.08-8.88,0.12-11.52           c0.02-1.32,0.04-2.33,0.06-3.01c0.03-1.12,0.07-2.17,1.25-2.17c1.19,0,1.22,1.05,1.26,2.17c0.02,0.68,0.04,1.69,0.07,3.01           c0.04,2.63,0.08,6.52,0.12,11.52c0.08,9.95,0.15,24.19,0.21,42.33c0.13,37.3,0.21,86.9,0.22,139.68           c0.01,52.74-0.04,102.34-0.16,139.65c-0.05,18.14-0.12,32.38-0.19,42.33c-0.04,5-0.08,8.89-0.12,11.52           c-0.02,1.32-0.04,2.33-0.06,3.01C1479.06,1425.16,1479.02,1426.22,1477.84,1426.22z" class="color348c93 svgShape"/><path fill="#3a3493" d="M1477.79,1201.79c-0.08,0-0.17-0.01-0.27-0.03c-1.15-0.19-1.02-1.37-0.93-2.23           c0.11-0.66,0.28-1.65,0.71-2.85c1-2.92,3.14-6.02,5.86-8.48c2.94-2.68,7.05-5.24,12.55-7.81           c5.1-2.38,10.54-4.76,16.16-7.07c13.37-5.48,24.61-9.16,30.12-10.86c4.08-1.27,7.33-2.18,9.33-2.72           c3.94-1.03,4.55-1.19,4.92,0.03l0,0.01c0.35,1.22-0.24,1.42-4.09,2.71l-9.15,3.09c-10.26,3.49-20.27,7.24-29.75,11.12           c-1.86,0.8-3.73,1.58-5.56,2.35c-8.95,3.76-17.4,7.3-22.36,11.6c-3.25,2.78-4.75,5.62-5.36,7.07           c-0.51,1.2-0.76,2.11-0.91,2.65C1478.97,1200.81,1478.7,1201.79,1477.79,1201.79z" class="color348c93 svgShape"/><path fill="#3a3493" d="M1483.79,1191.07c-0.24,0-0.48-0.09-0.74-0.31c-0.93-0.75-0.31-1.59,0.56-2.76l0.25-0.33           c0.53-0.7,1.24-1.66,2.17-2.8c2.44-3.07,5.76-6.96,9.35-10.93c9.08-10.09,21.08-21.88,33.81-33.21           c16.16-14.3,29.19-25.64,35.52-31.13l10.87-9.32l3.01-2.5c1.1-0.89,1.96-1.58,2.76-0.67c0.79,0.9,0.04,1.63-1,2.63           l-2.85,2.68l-11.03,10.02l-34.84,31.03c-16.85,15-28.42,26.92-33.82,32.7c-4.25,4.53-7.55,8.25-9.57,10.56l-2.56,2.93           C1484.95,1190.44,1484.39,1191.07,1483.79,1191.07z" class="color348c93 svgShape"/><path fill="#3a3493" d="M1516.06,1156.27c-0.18,0-0.37-0.06-0.58-0.15c-1.22-0.54-1.09-0.89,1.09-6.64           c0.98-2.6,2.33-6.16,3.65-10.02c1.64-4.75,2.78-9.07,3.53-11.93c1.02-3.88,1.17-4.48,2.41-4.28l0.52,0.09l0.31,0.47           c0.79,1.23-0.92,9.88-3.31,16.84c-1.57,4.62-3.22,8.39-4.33,10.75C1517.58,1155.14,1516.89,1156.27,1516.06,1156.27z" class="color348c93 svgShape"/><path fill="#3a3493" d="M1477.89,1209.82c-0.67,0-1.35-0.87-3.03-2.98l-5.44-6.98c-5.11-6.61-11.13-14.37-17.94-22.95           c-6.85-8.63-13.03-16.23-18.28-22.68l-5.56-6.88c-2.27-2.86-2.74-3.45-1.76-4.28c0.96-0.82,1.47-0.27,3.94,2.4           c1.43,1.55,3.47,3.85,5.89,6.64c3.31,3.82,10.14,11.83,18.63,22.52c8.46,10.67,14.72,19.14,17.7,23.25           c2.16,2.98,3.94,5.48,5.13,7.25c2.04,2.99,2.46,3.62,1.45,4.38l-0.02,0.01           C1478.35,1209.72,1478.12,1209.82,1477.89,1209.82z" class="color348c93 svgShape"/><path fill="#3a3493" d="M1460.97,1186.81c-0.21,0.22-4.73-5.14-7.1-13.29c-1.75-5.74-1.83-11-1.61-13.4l0.56,0.05           c-0.25,1.02-0.44,1.56-0.54,1.55c-0.1-0.02-0.11-0.59-0.02-1.64l0.56,0.05c0.21,2.38,0.57,7.45,2.27,13.03           C1457.39,1181.05,1461.31,1186.59,1460.97,1186.81z" class="color348c93 svgShape"/><path fill="#3a3493" d="M1439.13,1160.5c-0.55,0-1.07-0.41-1.34-0.63c-0.69-0.55-1.96-1.57-4.06-2.34           c-2.96-1.14-7.65-1.5-13.25-1.03c-4.45,0.33-9.04,1.07-13.67,2.21c-1.26,0.31-2.34,0.6-3.21,0.83           c-2.74,0.73-3.48,0.93-3.89-0.21l-0.18-0.47l0.22-0.48c0.33-0.69,2.41-1.65,6.17-2.84c2.54-0.8,7.78-2.22,14.28-2.69           c6.1-0.52,11.36,0.05,14.78,1.64c3.14,1.39,5.4,3.73,5.31,4.88l-0.07,0.84l-0.62,0.17           C1439.44,1160.47,1439.28,1160.5,1439.13,1160.5z" class="color348c93 svgShape"/><path fill="#3a3493" d="M1434,1153.84c-0.55,0-1.33-0.31-2.51-0.78c-1.27-0.5-3.18-1.26-5.56-2.07           c-3.35-1.15-10.23-3.18-18.65-3.84c-8.43-0.63-15.53,0.34-19.02,0.97c-2.48,0.44-4.48,0.9-5.81,1.21           c-2.26,0.52-3.1,0.71-3.46-0.44c-0.39-1.21,0.66-1.59,2.75-2.33c1.42-0.53,3.45-1.1,5.87-1.65           c3.55-0.81,10.85-2.08,19.95-1.4c9.09,0.71,16.12,3.06,19.51,4.4c2.3,0.9,4.22,1.78,5.57,2.53           c1.94,1.05,2.92,1.58,2.34,2.73C1434.74,1153.64,1434.44,1153.84,1434,1153.84z" class="color348c93 svgShape"/><path fill="#3a3493" d="M1477.6,1125.65c-1.06,0-1.94-2.04-6.54-20.17c-4.89-19.26-4.43-20.03-4.18-20.44l0.25-0.42l0.97-0.25           l0.45,0.26c0.41,0.24,1.18,0.7,6.06,19.96c5.21,20.55,4.76,20.66,3.44,21l0,0           C1477.88,1125.61,1477.74,1125.65,1477.6,1125.65z" class="color348c93 svgShape"/><path fill="#3a3493" d="M1478,1125.63c-0.83,0-1.22-0.92-1.85-2.41c-0.87-2.04-2.48-5.84-5.16-9.63           c-2.8-4.16-6.18-6.85-7.8-8.15c-1.08-0.86-1.86-1.49-1.31-2.44l0.22-0.45l0.56-0.15c1.1-0.28,3.68,1.46,4.44,2           c2.39,1.66,4.9,4.24,6.88,7.08c4,5.67,5.8,12.19,5.22,13.42l-0.3,0.63l-0.58,0.06           C1478.21,1125.62,1478.1,1125.63,1478,1125.63z" class="color348c93 svgShape"/><path fill="#3a3493" d="M1477.76,1379.08c-0.96,0-1.15-0.96-1.4-2.15c-0.21-1.02-0.52-2.56-1.07-4.62           c-0.68-2.61-2.35-8.04-5.83-15.09c-6.15-12.57-17.51-28.57-31.18-43.91c-1.43-1.63-2.84-3.24-4.24-4.83           c-5.53-6.28-10.75-12.21-15.36-17.99c-5.69-7.11-10.57-14.14-14.09-20.32c-3.78-6.61-5.97-11.89-7.15-15.15           c-0.73-2.07-1.17-3.42-1.42-4.38c-0.46-1.62-0.74-2.62,0.45-2.97c1.13-0.35,1.44,0.51,2.08,2.24           c0.35,0.95,0.87,2.34,1.58,4.09c1.3,3.21,3.62,8.34,7.3,14.53c3.54,5.97,8.38,12.8,14.02,19.74           c4.31,5.32,9.16,10.82,14.31,16.65c1.73,1.96,3.49,3.96,5.27,5.98c13.86,15.56,25.31,31.93,31.39,44.9           c3.54,7.5,5.07,13.14,5.66,15.83c0.46,2.16,0.71,3.57,0.8,4.58c0.21,1.66,0.34,2.69-0.89,2.86           C1477.92,1379.07,1477.84,1379.08,1477.76,1379.08z" class="color348c93 svgShape"/><path fill="#3a3493" d="M1477.95,1379.13c-0.18,0-0.37-0.06-0.61-0.16c-1.1-0.47-0.67-1.58-0.28-2.56l0.21-0.51           c0.25-0.62,0.59-1.46,1.06-2.44c0.96-2.13,2.7-5.65,5.5-10.21c4.39-7.33,11.29-15.95,19.28-25.93l3.52-4.41           c5.17-6.47,9.66-11.65,13.7-15.84c4.31-4.45,8.78-8.4,12.93-11.42c4.18-3.05,7.74-5,9.98-6.1           c0.94-0.47,1.77-0.81,2.37-1.07l0.53-0.22c0.99-0.4,2.09-0.85,2.59,0.25l0,0.01c0.49,1.08-0.09,1.39-2.53,2.7l-1.64,0.89           c-3.18,1.79-6.33,3.87-9.34,6.17c-3.94,3.02-8.2,6.91-12.33,11.25c-3.9,4.12-8.16,9.1-13.42,15.67           c-1.92,2.41-3.82,4.77-5.67,7.06c-7.07,8.77-13.17,16.35-17.21,22.73c-2.68,4.14-4.58,7.59-5.71,9.76l-0.79,1.5           C1479.03,1378.34,1478.62,1379.13,1477.95,1379.13z" class="color348c93 svgShape"/><path fill="#3a3493" d="M1500.77,1344.38c-0.23,0-0.48-0.09-0.73-0.29l-0.37-0.3l-0.07-0.49c-0.05-0.35-0.1-0.74,1.39-2.66           c0.97-1.28,2.46-2.81,4.19-4.3c4.54-3.91,10.74-7.32,17.02-9.37c6.78-2.15,13.1-2.88,18.92-3.35           c8.97-0.65,9.01-0.36,9.11,0.86c0.12,1.33,0.12,1.33-8.78,2.41l-0.61,0.08c-4.63,0.6-10.97,1.41-17.52,3.49           c-5.75,1.87-11.6,4.94-16.05,8.42c-2.35,1.82-3.93,3.45-4.78,4.33C1501.91,1343.81,1501.37,1344.38,1500.77,1344.38z" class="color348c93 svgShape"/><path fill="#3a3493" d="M1503.08,1341.58c-0.21,0-0.42-0.07-0.64-0.21c-1.14-0.66-0.67-1.58,0.74-4.3           c1.19-2.3,2.99-5.76,4.54-9.87c1.49-4.23,2.31-8.26,2.81-10.67c0.56-2.75,0.78-3.78,2.08-3.58           c1.19,0.14,1.36,1.11,0.87,5.46c-0.43,3.61-1.21,6.99-2.32,10.05c-1.11,3.05-2.62,6.06-4.6,9.2           C1504.76,1340.46,1503.91,1341.58,1503.08,1341.58z" class="color348c93 svgShape"/><path fill="#3a3493" d="M1477.94,1327.15c-0.14,0-0.29-0.03-0.45-0.08c-1.19-0.4-0.83-1.48-0.38-2.85l1.31-3.8           c0.73-2.17,1.48-4.07,2.35-6c0.24-0.55,0.49-1.13,0.75-1.74c0.77-1.81,1.64-3.86,2.76-5.97l2.18-4.34           c0.52-1.02,1.09-1.99,1.69-3.02c0.31-0.54,0.63-1.08,0.94-1.64c1.47-2.7,3.23-5.39,5.1-8.24l1.14-1.74           c5.25-7.56,10.98-14.59,17.04-20.93c6.13-6.28,12.96-12.24,20.31-17.73l1.73-1.22c2.78-1.96,5.4-3.81,8.06-5.38           c0.53-0.32,1.05-0.65,1.58-0.98c1.02-0.64,1.97-1.24,2.97-1.79l4.29-2.35c2.05-1.18,4.07-2.12,5.85-2.95           c0.59-0.28,1.17-0.55,1.72-0.81c1.87-0.92,3.81-1.76,5.91-2.55l3.73-1.43c1.41-0.52,2.42-0.89,2.87,0.26l0.01,0.02           c0.4,1.08-0.49,1.51-1.84,2.15l-3.65,1.66c-1.47,0.63-3.42,1.49-5.64,2.67c-0.62,0.32-1.26,0.64-1.92,0.97           c-1.74,0.86-3.53,1.76-5.41,2.89l-4.25,2.41c-0.9,0.52-1.8,1.1-2.76,1.72c-0.54,0.35-1.09,0.71-1.65,1.06           c-2.48,1.5-4.95,3.28-7.57,5.16l-1.93,1.38c-7.16,5.43-13.82,11.3-19.78,17.4c-5.9,6.17-11.53,13.03-16.73,20.39           l-1.28,1.92c-1.8,2.69-3.49,5.23-4.91,7.75c-0.34,0.59-0.68,1.15-1.01,1.71c-0.58,0.97-1.13,1.89-1.63,2.81l-2.25,4.29           c-1.07,1.94-1.9,3.76-2.71,5.52c-0.31,0.68-0.61,1.33-0.9,1.96c-1.1,2.27-1.9,4.25-2.47,5.71l-1.54,3.71           C1479.07,1326.32,1478.71,1327.15,1477.94,1327.15z" class="color348c93 svgShape"/><path fill="#3a3493" d="M1515.02,1267.34c-0.11-0.02,0.5-2.16,3.04-4.53c2.47-2.36,6.99-4.54,12.25-4.7           c5.24-0.14,9.78,1.33,12.89,2.52c3.12,1.23,4.93,2.22,4.87,2.37c-0.07,0.18-2.02-0.52-5.17-1.51           c-3.14-0.96-7.58-2.23-12.55-2.09c-4.95,0.15-9.22,2.06-11.7,4.11C1516.11,1265.54,1515.22,1267.46,1515.02,1267.34z" class="color348c93 svgShape"/><path fill="#3a3493" d="M1506.53,1277.14l-0.4-0.27c-1.01-0.6-0.53-1.64,0.02-2.83c0.85-1.84,2.42-5.25,2.9-9.62           c0.55-4.38-0.2-8.07-0.6-10.05c-0.26-1.28-0.48-2.39,0.61-2.75l0.45-0.18l0.51,0.24c0.9,0.44,1.66,2.72,2.02,4.04           c0.77,2.71,1,6.04,0.65,9.12c-0.36,3.08-1.36,6.26-2.73,8.73c-0.66,1.2-1.92,3.24-2.9,3.46L1506.53,1277.14z" class="color348c93 svgShape"/><g class="color000000 svgShape"><path fill="#554aff" d="M1416.76,1390.55c1.91,33.8,12.09,68.17,27.75,102.92h68.12c14.94-34.41,24.42-68.72,26.11-102.92         H1416.76z" class="colorff5f4a svgShape"/></g><g class="color000000 svgShape"><rect width="132.93" height="17.51" x="1410.28" y="1390.55" fill="#5149ce" class="colorce4949 svgShape"/></g></g><g class="color000000 svgShape"><defs><path id="a" d="M609.21,697.52c-7.91-11.73-4.24-42.56-4.24-42.56l-37.19-1.13c0,0,3.67,30.82-4.24,42.56       c-7.07,10.48-30.91,12.91-30.91,12.91s2.84,58.49,53.74,58.31c45.6-0.16,53.74-57.17,53.74-57.17S616.27,707.99,609.21,697.52z       "/></defs><clipPath id="b"><use class="color000000 svgShape" overflow="visible" xlink:href="#a"/></clipPath><g class="color000000 svgShape" clip-path="url(#b)"><path fill="#867ff2" d="M609.21,697.52c-7.91-11.73-4.24-42.56-4.24-42.56l-37.19-1.13c0,0,3.67,30.82-4.24,42.56        c-7.07,10.48-30.91,12.91-30.91,12.91s2.84,58.49,53.74,58.31c45.6-0.16,53.74-57.17,53.74-57.17S616.27,707.99,609.21,697.52        z" class="colorf2a07f svgShape"/></g><g class="color000000 svgShape" clip-path="url(#b)"><path fill="#5b54d1" d="M604.81,683.17c-1.22,0.2-2.52,0.31-3.9,0.31c-11,0-25.14-3.92-32.33-10.31        c0.04-2.5,0.01-6.62-0.03-8.18c6.73,1.09,28.81,9.47,35.7,11.51C604.41,679.23,603.95,679.03,604.81,683.17z" class="colord17154 svgShape"/></g><polygon fill="#1e1d28" points="462.37 1497.8 455.67 1497.8 448.98 1452.92 461.51 1457.42" class="color1d2028 svgShape"/><path fill="#867ff2" d="M459.14,1466.75c4.38,9.24,5.27,19.46,11.11,27.73c0.6,0.88,1.27,1.69,1.98,2.43l26.69-2.3       c3.33-4.06,5.12-6.53,0.19-13.45c-1.39-1.94-2.33-2.41-3.84-4.08c-3.59-3.96-6.03-9.64-8.4-15.28       c-0.64-1.52-5.23-9.33-5.89-10.82c-3.83-8.67-4.66-11.39-2.88-20.3c2.73-13.6,11.5-25.58,11.02-36.77       c-0.73-10.7,1.33-18.74-10.83-16.06c-2.43,0.49-6.82,2.04-6.82,2.04c0.73,9.49-5.48,23.95-7.92,33.85       c-3.12,14.44-11.32,20.65-15.76,30.01c-0.59,3.3,0.69,3.99,1.35,7C450.54,1457.14,456.33,1460.8,459.14,1466.75z" class="colorf2a07f svgShape"/><path d="M448.39,1442.85c2.57,1.28,4.87,3.15,6.92,5.73c4.38,5.68,7.3,13.79,9.89,20.44c2.59,6.65,6.16,10.22,17.52,9.24       c8.82-0.76,11.03-0.32,8.6-5.22c-1.24-2.49-4.45-7.45-4.45-11.23c0.96,1.91,1.93,3.74,2.88,5.43c2.55,4.52,6.1,8.4,10.44,11.24       c0.34,0.23,0.66,0.45,0.93,0.67c0.55,0.31,7.57,9.89,0.78,18.65h-31.72c-4.65-5.01-5.59-8.25-11.05-25.19       c-2.97-9.22-11.76-18.16-12.72-21.77C445.32,1447.36,447.39,1444.06,448.39,1442.85z" class="color000000 svgShape"/><polygon fill="#1e1d28" points="573.97 1497.8 567.28 1497.8 560.59 1452.92 573.12 1457.42" class="color1d2028 svgShape"/><path fill="#867ff2" d="M570.75,1466.37c4.38,9.24,5.27,19.46,11.11,27.73c0.6,0.88,1.27,1.69,1.98,2.43l26.69-2.3       c3.33-4.06,5.12-6.53,0.19-13.45c-1.39-1.94-2.33-2.41-3.84-4.08c-3.59-3.96-6.03-9.64-8.4-15.28       c-0.64-1.52-5.23-9.33-5.89-10.81c-3.84-8.67-4.66-11.39-2.88-20.3c2.73-13.6,7.53-28.01,7.05-39.2       c-0.73-10.7,5.31-16.31-6.86-13.63c-2.43,0.49-6.82,2.04-6.82,2.04c0.73,9.49-7.6,24.1-10.04,34.01       c-3.12,14.44-9.2,20.5-13.64,29.86c-0.59,3.3,0.69,3.99,1.35,7C562.15,1456.76,567.94,1460.42,570.75,1466.37z" class="colorf2a07f svgShape"/><path d="M560,1442.85c2.57,1.28,4.87,3.15,6.92,5.73c4.38,5.68,7.3,13.79,9.89,20.44c2.59,6.65,6.16,10.22,17.52,9.24       c8.82-0.76,11.03-0.32,8.6-5.22c-1.24-2.49-4.45-7.45-4.45-11.23c0.96,1.91,1.93,3.74,2.88,5.43c2.55,4.52,6.1,8.4,10.44,11.24       c0.34,0.23,0.66,0.45,0.93,0.67c0.55,0.31,7.57,9.89,0.78,18.65h-31.72c-4.65-5.01-5.59-8.25-11.05-25.19       c-2.97-9.22-11.76-18.16-12.72-21.77C556.93,1447.36,558.99,1444.06,560,1442.85z" class="color000000 svgShape"/><g class="color000000 svgShape"><path fill="#867ff2" d="M626.27,921.59c0,0,30.23,16.46,33.26,66.73c8.73,144.93-29.63,231.57-31.58,247.78     c-1.75,14.56-4.95,31.08-5.47,47.15c-0.96,29.72-30.09,135.25-30.09,135.25s-0.13,0.61-8.47,1.11     c-8.09,0.49-10.76-2.77-10.76-2.77s-3.27-84.19-1.64-136.52c0.83-26.49,15.5-54,14.86-58.72c-2.39-17.73-7.91-176.52-7.91-176.52     s-11.53,111.86-16.69,129.2c-4.72,15.86-15.27,66.24-19.18,74.27c-3.9,8.03-7.15,18.95-8.34,23.41     c-1.19,4.46-4.39,28.29-7.41,34.81c-3.02,6.52-44.73,110.07-44.73,110.07l-18.01-3.6c0,0,13.27-128.58,18.87-143.06     c5.7-14.72,23.33-45.32,23.74-54.61c0.42-9.29-11.33-107.28-12.25-165.95c-0.87-55.34,6.36-79.72,9.51-94.39     c3.16-14.68,19.75-31.78,19.75-31.78L626.27,921.59z" class="colorf2a07f svgShape"/></g><g class="color000000 svgShape"><path fill="#5b54d1" d="M794.4,753.7c0,0,15.98-27.3,18.62-30.84c2.64-3.53,4.62-14.56,9.12-18.46        c4.5-3.9,9.98-8.65,13.76-12.77c3.61-3.94,9.89-12.99,11.03-8.45c0.93,3.68-0.84,7.44-4.28,11.83        c-1.97,2.51-8.24,6.74-6.21,7.81c2.03,1.07,21.91-3.3,26.12-3.51c4.21-0.21,25.42-5.4,26.13-3.17        c1.42,4.51-28.41,11.33-28.41,11.33s3.38-0.08,4.42,2.04c1.89,3.84-2.2,5.84-2.2,5.84s2.39-0.33,2.79,3.15        c0.59,5.02-5.29,5.26-5.29,5.26s4.25-0.05,4.39,2.56c0.23,4.39-6.53,3.65-12.64,6.28c-6.11,2.63-13.88,6.2-21.22,5.28        c-6.39-0.8-18.31,24.59-18.31,24.59L794.4,753.7z" class="colord17154 svgShape"/><path fill="#867ff2" d="M794.4,753.7c0,0,15.98-27.3,18.62-30.84c2.64-3.53,4.62-14.56,9.12-18.46c4.5-3.9,9.98-8.65,13.76-12.77        c3.61-3.94,9.89-12.99,11.03-8.45c0.93,3.68-0.84,7.44-4.28,11.83c-1.97,2.51-8.24,6.74-6.21,7.81        c2.03,1.07,21.24-3.61,25.24-4.29c4.16-0.71,26.31-4.62,27.02-2.39c1.42,4.51-27.39,11.11-27.39,11.11s-19.41,3.98-17.79,7.23        c1.22,2.46,18.99,0.87,18.99,0.87s-22.92,3.74-22.52,7.22c0.59,5.02,20.02,1.18,20.02,1.18s-17.16,2.6-17.02,5.22        c0.23,4.39,16.82,1.32,16.82,1.32s-20.83,8.7-29.28,7.58c-6.38-0.85-20.35,23.59-20.35,23.59L794.4,753.7z" class="colorf2a07f svgShape"/><g class="color000000 svgShape"><path fill="#1e1d28" d="M757.13,827.2c23.17-13.03,69.35-86.68,69.35-86.68l-27.13,0.97c0,0-46.07,41.2-50.55,41.25       C745.51,782.78,732.75,829.11,757.13,827.2z" class="color1d2028 svgShape"/></g></g><g class="color000000 svgShape"><path fill="#1e1d28" d="M641.52,754.14c4.22,20.76,19.3,36.66,19.3,36.66s88.57,40.76,96.31,36.4c23.17-13.03-3.85-44.5-8.33-44.45     c-3.29,0.04-43.39-32.93-69.17-49.53c-9.29-5.99-39.25-22.5-39.25-22.5S633.61,715.23,641.52,754.14z" class="color1d2028 svgShape"/></g><g class="color000000 svgShape"><defs><path id="c" d="M630.68,921.59c0,0,30.23,16.46,33.26,66.73      c8.73,144.93-23.83,216.98-25.78,233.18c-1.75,14.56-136.22,3.36-135.81-5.92c0.42-9.29-17.97-107.09-18.89-165.76      c-0.87-55.34,6.36-79.72,9.51-94.4c3.16-14.68,19.75-31.78,19.75-31.78L630.68,921.59z"/></defs><clipPath id="d"><use class="color000000 svgShape" overflow="visible" xlink:href="#c"/></clipPath><g class="color000000 svgShape" clip-path="url(#d)"><path d="M630.68,921.59c0,0,30.23,16.46,33.26,66.73c8.73,144.93-23.83,216.98-25.78,233.18       c-1.75,14.56-136.22,3.36-135.81-5.92c0.42-9.29-17.97-107.09-18.89-165.76c-0.87-55.34,6.36-79.72,9.51-94.4       c3.16-14.68,19.75-31.78,19.75-31.78L630.68,921.59z" class="color000000 svgShape"/></g></g><g class="color000000 svgShape"><defs><path id="e" d="M543.07,704.78l23.22-14.54        c0,0,19.68,14.78,27,14.54c7.32-0.24,14.09-10.82,14.09-10.82l16.95,10.82l16.06,56.98c0,0,10.6,49.84-28.06,48.38        c-38.66-1.46-63.76-45.28-63.76-45.28L543.07,704.78z"/></defs><clipPath id="f"><use class="color000000 svgShape" overflow="visible" xlink:href="#e"/></clipPath><g class="color000000 svgShape" clip-path="url(#f)"><path fill="#dddcf0" d="M539.72,710.71l29.35-12.85c0,0,19.07,9.47,26.39,9.22c7.32-0.24,14.67-8.32,14.67-8.32l20.78,13.57         l10.39,43.99c0,0,6.55,54.17-32.11,52.71c-38.66-1.46-63.76-49.45-63.76-49.45L539.72,710.71z" class="colordce9f0 svgShape"/></g><g class="color000000 svgShape" clip-path="url(#f)"><path fill="#fff" d="M543.07,704.78c0,0,33.74,38.16,45.9,35.24c18.45-4.43,4.32-35.24,4.32-35.24s-4.33,0-11.76-4.5         c-5.15-2.81-15.24-10.05-15.24-10.05L543.07,704.78z" class="colorffffff svgShape"/></g><g class="color000000 svgShape" clip-path="url(#f)"><path fill="#fff" d="M624.95,705.02c0.63,12.45-0.42,27.66-9.06,29.01c-12.49,1.95-22.61-29.24-22.61-29.24s2.05,0,5.67-2.03         c3.23-1.56,8.42-8.78,8.42-8.78S610.11,695.71,624.95,705.02z" class="colorffffff svgShape"/></g><g class="color000000 svgShape"><path fill="#dddcf0" d="M588.06,887.15l-35.52,65.2c0,0,22.95,9.24,45.54,7.3c22.58-1.95,38.16-7.3,38.16-7.3l-21.41-69.09        L588.06,887.15z" class="colordce9f0 svgShape"/></g><g class="color000000 svgShape"><path fill="#1e1d28" d="M665.2,792.74c4.38-23.36-12.65-36.01-17.52-51.09c-4.87-15.08-7.3-30.94-7.3-30.94l-16.06-5.93       l6.26,90.65c0,0-48.6-54.75-65.14-68.86c-16.54-14.11-22.38-21.78-22.38-21.78l-29.68,5.93c0,0,3.41,34.83,10.7,61.1       c7.3,26.27,15.57,65.69,10.7,89.53c-4.87,23.84-40.39,75.91-40.39,75.91s52.12,34.62,106.79,28.5l5.44-40.83l24.21,35.19       c28.89-8.1,30.45-18.97,30.45-18.97s-24.82-37.95-24.82-66.66c0-28.71-1.46-43.79,6.33-51.09       C650.6,816.1,660.82,816.1,665.2,792.74z" class="color1d2028 svgShape"/><path d="M643.76,822.55c-4.52,0.15-9.16-0.81-13.6-3.05c-8.01-4.04-16.54-3.89-25.3-2.43c-9.24,1.46-21.07,6.87-31.93,6.84       c-7.31-0.02-22.56-4.04-26.46-11.83c-3.89-8.27,5-10.31,11.52-8.31c7.95,2.43,24,6.49,32.76,7.46       c8.76,1.46,17.19-0.3,25.46-0.32c32.2-0.11,42.38-4.91,47.12-10.54c-0.39,1.69-1.17,3.32-1.8,4.76       C656.52,816.55,645.24,820.59,643.76,822.55z" class="color000000 svgShape"/><path d="M629.11,793.78c2.19,4.76-1.48,9.83-4.2,13.59c-3.33,4.6-6.65,8.75-8.99,14c-2.76,6.18-4.3,12.84-5.8,19.42        c-1.63,7.16-3.21,14.3-4.34,21.56c-3.49,22.3-3.9,45.05,0.27,67.1c0.37-3.14,0.58-3.84,0.6-4.52c0.26,0.33,0.22,0.3,0.44,0.64        c0.37,0.57,0.97,1.41,1.7,2.47c-0.46-2.41-0.87-4.84-1.22-7.27c-2.17-15.1-2.02-30.53-0.5-45.68        c1.46-14.54,4.32-29.19,8.15-43.3c1.74-6.4,4.26-12.65,8.41-17.89c3.04-3.84,6.07-7.8,7.69-12.47        c1.08-3.13,1.17-6.61-0.95-9.24c-0.05-0.06,0.19,2.78,0.22,3.24C630.4,795.22,629.09,793.74,629.11,793.78z" class="color000000 svgShape"/><path fill="#5951da" d="M756.89,773.65l-16.46,62.18c-0.91,3.45-4.06,5.82-7.63,5.75l-85.23-1.67           c-4.85-0.1-8.42-4.58-7.42-9.33l12.55-59.55c0.75-3.58,3.91-6.14,7.57-6.14h89.87           C754.73,764.89,758.06,769.23,756.89,773.65z" class="color4c69f9 svgShape"/><path fill="#867ff2" d="M580.75,840.86c0,0,26.72-18.74,29.6-22.05c2.88-3.32,8.25-14.84,13-18.38          c4.74-3.55,12.65-6.26,16.7-10.09c3.86-3.65,9.05-13.32,9.86-8.72c0.66,3.72-0.21,7.83-3.94,11.93          c-2.14,2.35-9.94,6.32-8,7.53c1.94,1.21,17.85-1.22,22.04-1.13c4.2,0.09,26.56-2.18,27.11,0.09          c1.09,4.57-28.54,5.91-27.95,7.76c0.59,1.85,31.68-3.25,32.52,0.26c0.99,4.14-32.9,5.58-31.93,9.18          c0.67,2.51,27.8-3.13,27.96,0.36c0.23,5.02-31.43,5.52-31.04,7.81c0.4,2.29,21.92-1.4,21.88,1.2          c-0.08,4.37-24.44,4.81-30.7,6.99c-6.25,2.18-16.43,1.22-23.79,0.96c-8.7-0.31-32.06,19.8-32.06,19.8L580.75,840.86z" class="colorf2a07f svgShape"/><path fill="#13131b" d="M504.62,897.04c23.17,12.75,112.09-54.29,112.09-54.29l-15.05-22.42c0,0-56.64,31.15-59.03,27.4         C522.83,854.35,494.41,873.33,504.62,897.04z" class="color13171b svgShape"/><path fill="#13131b" d="M498.65,719.52c-15.34,14.45-8.98,58.05-8.98,58.05s7.21,115.21,14.95,119.47       c30.56,7.02,40.39-45.56,38-49.31c-1.76-2.76,1.85-50.71,1.29-81.21c-0.28-15.23-2.94-33.26-2.94-33.26       S527.4,692.43,498.65,719.52z" class="color13171b svgShape"/><polygon points="532.4 706.92 539.41 729.9 630.59 795.43 591.86 752.58 543.07 704.78" class="color000000 svgShape"/><g class="color000000 svgShape"><polygon points="630.35 707.01 637.79 729.32 630.59 794.86 624.32 704.78" class="color000000 svgShape"/></g></g></g><g class="color000000 svgShape"><path fill="#35326b" d="M517.75,683.07c-6.64-5.78-15.82-14.36-25.86-25.55c-16.75-18.69-25.1-28.03-29.1-38.99      c-8.73-23.86,3.09-47.18,26.67-93.87c12.14-23.95,19.18-31.38,28.46-32.86c12.24-1.96,23.33,7.28,28.19,12      c-2.39,5.01-4.53,9.8-6.39,14.48c-11.88,29.92-13.24,53.51-11.73,70.64c1.28,14.52,5.11,30.62,1.63,54.48      C527.08,660.48,521.87,674.05,517.75,683.07z" class="color6b3b32 svgShape"/><path fill="#2d2a5f" d="M517.75,683.07c1.04-12.32,0.91-30.76-6.78-50.52c-7.36-18.91-16.12-24.87-21.2-37.17      c-6.36-15.41-7.05-41.04,21.78-85.04c9.39,2.65,18.78,5.29,28.17,7.94c-11.88,29.92-13.24,53.51-11.73,70.64      c1.28,14.52,5.11,30.62,1.63,54.48C527.08,660.48,521.87,674.05,517.75,683.07z" class="color5f302a svgShape"/><path fill="#665df9" d="M545.93,499.62c-2.44-0.82-11.23-3.45-21.15,0.48c-0.9,0.36-12.86,5.3-17.24,17.5      c-6,16.69,5.03,39.08,17.77,40.42c11.83,1.24,21.9-16,25.36-24.75c1.14-2.89,7.72-19.59-0.5-29.87      C548.72,501.58,547.12,500.38,545.93,499.62z" class="colorf9c35d svgShape"/><path fill="#35326b" d="M641.1,621.92c-5.56,8.78-9.07,14.31-16.18,19.41c-11.13,7.98-22.79,8.86-32.24,9.71      c-14.73,1.33-25.92-1.55-32.49-3.31c-11.77-3.15-24.35-6.4-35.03-17.04c-10.28-10.23-13.58-22.04-15.36-28.72      c-2.09-7.86-11.24-47.23,16.61-75.87c21.96-22.58,52.21-23.38,65.19-21.23c0.95,0.16,2.68,0.5,4.72,0.95      c6.72,1.47,22.37,4.94,36.59,18.16c4.82,4.47,18.2,17.9,22.15,38.93c1.86,9.93,1,17.8,0.53,21.78      C653.54,602.01,646.07,614.09,641.1,621.92z" class="color6b3b32 svgShape"/><path fill="#7e77ef" d="M529.09,561.8c3.09-23,63.21-61.8,90.2-43.4c13.55,9.24,17.09,21.27,17.09,21.27      c0.97,3.29,1.22,6.12,1.28,7.93c0,0,0,0,0,0c1.33,10.57,1.97,18.6,2.05,19.67c1.04,13.4-1.35,35.29-1.35,35.29      c-2.74,26.17-4.21,39.25-10.57,51.01c-3.43,6.35-11.82,21.85-24.98,23.13c-3.81,0.37-7.63-0.94-15.26-3.56      c-8.42-2.89-16.18-5.56-23.72-11.39c-10.97-8.48-16.29-19.66-18.86-26.97c-21.08-17.97-14.34-36.97-18.96-48.63      c0,0-3.2,0.81-3.19,0.81C539.85,579.89,527.06,576.92,529.09,561.8z" class="coloref9c77 svgShape"/><path fill="#2d2a5f" d="M612.74,557.63c1.87-0.29,4.15-0.46,6.71-0.24c6.74,0.58,11.69,3.52,14.26,5.35      c-1.36-3.6-2.72-7.19-4.08-10.79l-12.73-11.38L612.74,557.63z" class="color5f302a svgShape"/><path fill="#35326b" d="M628.42,520.7c-13.89-14.18-31.02-16.82-37.61-17.74c-28.6-3.99-56.39,10.39-70.59,30.72      c-3.07,4.39-9.88,14.4-10.99,28.7c-0.85,10.89,2.13,19.09,4.72,26.73c5.83,17.18,15.66,29.1,22.65,36.1      c8.1-3.83-1.49-48.69,21.78-5.24c0.51-1.35,4.04-10.37,4.78-12.73c0.57-1.83,0.78-2.57,0.78-2.57c0.44-1.6,0.7-2.45,1.26-3.95      c2.1-5.77,6.25-9.51,11.34-12.8l0.09-0.05c0.8-0.52,1.61-1.04,2.45-1.51c5.3-3.16,11.34-6.14,17.16-10.39      c17.07-12.56,17.03-25.78,25.23-25.02c7.72,0.72,13.01,12.9,15.92,19.62c3.59,8.22,4.51,15.67,4.77,20.51      C642.94,588.37,654.22,547.03,628.42,520.7z" class="color6b3b32 svgShape"/><path fill="#7e77ef" d="M532.98,598.78c-3.48,1.49-4.91,5.11-5.76,7.17c-3.68,8.94,1,17.75,2.06,19.73      c2.95,5.55,9.75,13.79,16.17,12.51c1.82-0.36,3.02-1.37,3.44-1.72c3.87-3.3,3.41-9.4,2.55-19.08c-0.53-5.98-0.8-8.97-2.06-11.09      C546.13,600.82,538.56,596.39,532.98,598.78z" class="coloref9c77 svgShape"/></g></g><g class="color000000 svgShape"><path fill="#655cff" d="M1540.38,692.1l-10.68,3.71l-4.63-13.34c-8.54-24.6-35.51-37.66-60.09-29.13    c-24.59,8.54-37.64,35.49-29.1,60.09l4.63,13.34l-10.71,3.72c-8.33,2.89-12.8,12.11-9.91,20.45l30.13,86.79    c2.94,8.46,12.17,12.94,20.5,10.05l110.57-38.39c8.46-2.94,12.94-12.18,10-20.64l-30.13-86.79    C1558.08,693.62,1548.84,689.16,1540.38,692.1z M1456.04,706.43c-4.68-13.48,2.47-28.26,15.95-32.94    c13.47-4.68,28.24,2.49,32.92,15.97l4.63,13.34l-48.87,16.97L1456.04,706.43z M1520.12,785.54l7.69,22.16    c0.33,0.94-0.23,1.9-1.18,2.23l-10.61,3.68c-0.81,0.28-1.85-0.12-2.18-1.06l-7.69-22.16c-8.23-0.3-15.9-5.48-18.79-13.82    c-3.72-10.72,1.97-22.48,12.73-26.22c10.75-3.73,22.5,1.97,26.23,12.69C1529.21,771.38,1526.41,780.2,1520.12,785.54z" class="color5c80ff svgShape"/></g></svg>